<svg width="29" height="29" viewBox="0 0 29 29" fill="none" xmlns="http://www.w3.org/2000/svg">
<path fill-rule="evenodd" clip-rule="evenodd" d="M0 14.5C0 22.5081 6.49187 29 14.5 29C22.5081 29 29 22.5081 29 14.5C29 6.49187 22.5081 0 14.5 0C6.49187 0 0 6.49187 0 14.5ZM11.8411 21.1458L12.0878 17.4497L12.0876 17.4495L18.8113 11.3819C19.1064 11.12 18.7469 10.9923 18.3552 11.2298L10.0572 16.4649L6.47288 15.3462C5.69884 15.1092 5.69328 14.5773 6.64667 14.1949L20.6138 8.80926C21.2517 8.51965 21.8674 8.96248 21.6239 9.93883L19.2453 21.1477C19.0792 21.9442 18.5979 22.1347 17.9311 21.7668L14.3077 19.0898L12.5661 20.7833C12.5606 20.7887 12.5551 20.794 12.5497 20.7993C12.3549 20.9889 12.1938 21.1458 11.8411 21.1458Z" fill="white"/>
</svg>
