<svg width="29" height="29" viewBox="0 0 29 29" fill="none" xmlns="http://www.w3.org/2000/svg">
<path fill-rule="evenodd" clip-rule="evenodd" d="M0 14.5C0 22.5081 6.49187 29 14.5 29C22.5081 29 29 22.5081 29 14.5C29 6.49187 22.5081 0 14.5 0C6.49187 0 0 6.49187 0 14.5ZM23.601 13.945C23.5991 18.6979 19.7327 22.5651 14.9789 22.5671H14.9753C13.5323 22.5666 12.1144 22.2045 10.855 21.5176L6.28428 22.7166L7.50748 18.2487C6.75295 16.9411 6.35592 15.4578 6.35657 13.9382C6.35846 9.1843 10.2264 5.31661 14.9788 5.31661C17.2853 5.3176 19.4502 6.21553 21.078 7.84529C22.7059 9.47498 23.6019 11.6412 23.601 13.945Z" fill="white"/>
<path fill-rule="evenodd" clip-rule="evenodd" d="M8.35267 20.6682L11.065 19.9567L11.3267 20.1121C12.427 20.765 13.6883 21.1105 14.9742 21.111H14.9771C18.927 21.111 22.1418 17.8961 22.1434 13.9446C22.1442 12.0297 21.3995 10.2292 20.0464 8.87457C18.6934 7.51997 16.8941 6.77361 14.9799 6.77295C11.027 6.77295 7.81212 9.98752 7.81055 13.9387C7.80999 15.2929 8.18887 16.6116 8.90624 17.7526L9.07663 18.0237L8.35267 20.6682ZM19.0271 15.8014C19.1774 15.874 19.2789 15.9231 19.3222 15.9954C19.376 16.0852 19.376 16.5166 19.1966 17.0199C19.017 17.5231 18.1563 17.9824 17.7424 18.0442C17.3712 18.0997 16.9015 18.1229 16.3854 17.9589C16.0725 17.8596 15.6713 17.727 15.1573 17.505C13.1376 16.6329 11.7727 14.6754 11.5147 14.3055C11.4966 14.2795 11.484 14.2614 11.477 14.252L11.4752 14.2497C11.3612 14.0976 10.5973 13.0783 10.5973 12.0234C10.5973 11.031 11.0847 10.5109 11.3091 10.2714C11.3245 10.255 11.3386 10.2399 11.3513 10.2261C11.5488 10.0104 11.7822 9.95651 11.9258 9.95651C12.0694 9.95651 12.2132 9.95783 12.3387 9.96414C12.3542 9.96492 12.3703 9.96482 12.3869 9.96472C12.5125 9.96399 12.669 9.96307 12.8234 10.334C12.8828 10.4767 12.9697 10.6883 13.0614 10.9115C13.2468 11.3628 13.4516 11.8615 13.4877 11.9336C13.5415 12.0415 13.5774 12.1672 13.5056 12.3111C13.4948 12.3326 13.4849 12.353 13.4753 12.3724C13.4214 12.4825 13.3817 12.5635 13.2902 12.6704C13.2542 12.7125 13.217 12.7578 13.1798 12.8031C13.1057 12.8933 13.0315 12.9836 12.967 13.0479C12.8592 13.1553 12.7469 13.2719 12.8726 13.4876C12.9982 13.7032 13.4306 14.4087 14.0711 14.98C14.7595 15.5941 15.3579 15.8536 15.6612 15.9852C15.7204 16.0109 15.7684 16.0317 15.8036 16.0493C16.0189 16.1572 16.1446 16.1391 16.2703 15.9954C16.396 15.8516 16.8089 15.3663 16.9525 15.1506C17.0961 14.935 17.2397 14.9709 17.4372 15.0428C17.6347 15.1148 18.6939 15.6359 18.9093 15.7437C18.9514 15.7648 18.9907 15.7838 19.0271 15.8014Z" fill="white"/>
</svg>
