<svg width="228" height="213" viewBox="0 0 228 213" fill="none" xmlns="http://www.w3.org/2000/svg">
<rect y="2.85254" width="228" height="152.143" fill="url(#paint0_radial_146_2966)"/>
<path d="M77.6815 149.932L83.8376 156.305C84.0163 156.49 84.5304 156.59 85.0191 156.536C85.4476 156.489 85.7222 156.338 85.727 156.176C85.7285 156.128 85.7262 44.43 85.7262 42.9085L81.7521 39.6596C80.4854 39.105 78.0426 36.4801 77.6292 36.5375C77.6292 39.9766 77.6291 149.691 77.6292 149.821C77.6292 149.858 77.646 149.895 77.6815 149.932Z" fill="url(#paint1_radial_146_2966)"/>
<path d="M85.7227 43.2656V155.629" stroke="url(#paint2_linear_146_2966)" stroke-width="0.8" stroke-linecap="round"/>
<path d="M77.6814 36.6558L83.8376 43.0287C84.0163 43.2137 84.5303 43.3144 85.019 43.2601C85.5739 43.1984 85.8707 42.964 85.6579 42.7555L79.2016 36.4276C79.0397 36.2689 78.5836 36.1887 78.1702 36.2461C77.7415 36.3056 77.5214 36.4901 77.6814 36.6558Z" fill="#CECFDB"/>
<path fill-rule="evenodd" clip-rule="evenodd" d="M84.7915 47.1401L21.9761 44.8579V159.258C21.9958 158.912 22.3752 158.578 23.047 158.339C28.1852 156.507 35.4198 155.857 42.1042 156.628L84.748 161.547L84.7915 161.548V47.1401Z" fill="#8C8EA5"/>
<path fill-rule="evenodd" clip-rule="evenodd" d="M22.0438 159.545C23.4464 162.201 28.3306 164.375 34.9094 165.273L86.5283 172.317C82.4844 169.227 81.4653 165.537 84.4283 161.978C84.5472 161.835 84.6716 161.693 84.8014 161.553L42.105 156.628C35.4207 155.857 28.186 156.507 23.0478 158.339C22.1911 158.645 21.8099 159.103 22.0438 159.545Z" fill="#CECFDB"/>
<path fill-rule="evenodd" clip-rule="evenodd" d="M22.0438 45.1279C23.4464 47.7833 28.3306 49.9576 34.9094 50.8554L86.5283 57.8997C82.4844 54.8092 81.4653 51.1199 84.4283 47.5602C84.5472 47.4174 84.6716 47.2758 84.8014 47.1356L42.105 42.2109C35.4207 41.4399 28.186 42.0894 23.0478 43.9217C22.1911 44.2272 21.8099 44.6852 22.0438 45.1279Z" fill="#CECFDB"/>
<path fill-rule="evenodd" clip-rule="evenodd" d="M34.9092 50.8553C28.3305 49.9575 23.4463 47.7832 22.0436 45.1279C22.0001 45.0455 21.9779 44.9627 21.9761 44.8804C21.9761 45.4384 21.9762 50.7739 21.9763 58.8628C21.9768 89.3614 21.9781 159.002 21.9765 159.283C21.9761 159.37 21.9983 159.457 22.0442 159.544C23.4469 162.199 28.3311 164.374 34.9098 165.272L86.5287 172.316L86.5287 57.9014C86.5258 57.9004 86.5229 57.8995 86.52 57.8985L34.9092 50.8553Z" fill="url(#paint3_radial_146_2966)"/>
<path fill-rule="evenodd" clip-rule="evenodd" d="M104.407 14.3356C98.3405 15.672 94.5236 18.1481 94.3522 20.8581L93.0073 42.1209C99.3252 39.6735 108.04 38.1606 117.663 38.1606C118.049 38.1606 118.434 38.163 118.817 38.1679L117.722 20.8581C117.55 18.1481 113.734 15.672 107.668 14.3356C106.656 14.1127 105.418 14.1127 104.407 14.3356Z" fill="#CECFDB"/>
<path fill-rule="evenodd" clip-rule="evenodd" d="M93.0081 42.121C93.0078 42.125 93.0076 42.1289 93.0073 42.1329L93.0073 156.537C99.3252 154.09 108.04 152.577 117.663 152.577C118.049 152.577 118.434 152.579 118.817 152.584V38.1708C118.817 38.17 118.817 38.1691 118.817 38.1683C118.434 38.1634 118.049 38.161 117.663 38.161C108.04 38.161 99.3259 39.6738 93.0081 42.121ZM118.813 38.1145L118.59 34.5767C118.773 35.3836 118.78 36.2237 118.787 37.0299C118.79 37.4008 118.793 37.7645 118.813 38.1145Z" fill="url(#paint4_radial_146_2966)"/>
<path fill-rule="evenodd" clip-rule="evenodd" d="M104.407 128.752C98.3405 130.089 94.5236 132.565 94.3522 135.275L93.0073 156.537C99.3252 154.09 108.04 152.577 117.663 152.577C118.049 152.577 118.434 152.58 118.817 152.584L117.722 135.275C117.55 132.565 113.734 130.089 107.668 128.752C106.656 128.529 105.418 128.529 104.407 128.752Z" fill="#CECFDB"/>
<path d="M141.633 32.7134L127.716 36.7911C127.716 39.9449 127.716 151.089 127.716 151.199C127.715 151.274 127.772 151.349 127.888 151.415C128.216 151.6 128.882 151.634 129.322 151.489L142.676 147.086C142.866 147.023 142.964 146.934 142.964 146.844C142.964 146.775 142.964 34.8417 142.964 32.4328C142.682 32.2939 141.986 32.6014 141.633 32.7134Z" fill="url(#paint5_radial_146_2966)"/>
<path d="M142.975 32.7104V145.074" stroke="url(#paint6_linear_146_2966)" stroke-width="0.8" stroke-linecap="round"/>
<path d="M141.636 32.1832L128.077 36.4903C127.683 36.6153 127.602 36.8368 127.891 36.9995C128.219 37.1842 128.885 37.2185 129.325 37.0733L142.679 32.6701C143.014 32.5597 143.063 32.366 142.791 32.2321C142.509 32.0932 141.989 32.0712 141.636 32.1832Z" fill="#CECFDB"/>
<path fill-rule="evenodd" clip-rule="evenodd" d="M204.959 149.615C199.803 147.79 192.562 147.151 185.885 147.932L133.497 154.059C141.447 155.631 147.86 158.379 150.857 161.934C150.978 162.077 151.092 162.22 151.199 162.363L193.165 156.566C199.735 155.658 204.598 153.477 205.974 150.82C206.204 150.376 205.818 149.919 204.959 149.615Z" fill="#CECFDB"/>
<path fill-rule="evenodd" clip-rule="evenodd" d="M206.036 36.0767C206.05 36.1826 206.031 36.2901 205.975 36.3967C204.599 39.054 199.736 41.2355 193.166 42.143L151.2 47.9397C151.199 47.9391 151.199 47.9385 151.198 47.9379V162.353L151.2 162.356L193.166 156.559C199.736 155.652 204.599 153.47 205.976 150.813C206.018 150.731 206.04 150.648 206.041 150.566C206.045 150.256 206.042 68.2229 206.041 43.1738L206.041 41.7665C206.041 38.5317 206.041 36.5029 206.041 36.0783L206.036 36.0767Z" fill="url(#paint7_radial_146_2966)"/>
<path fill-rule="evenodd" clip-rule="evenodd" d="M133.497 39.6357C141.447 41.2074 147.86 43.9556 150.857 47.5109C150.977 47.6529 151.091 47.7952 151.198 47.9376V162.353C151.091 162.211 150.977 162.069 150.858 161.927C147.86 158.372 141.448 155.623 133.498 154.052L133.497 39.6439L133.539 39.6439C133.525 39.6412 133.511 39.6385 133.497 39.6357V39.6357Z" fill="url(#paint8_radial_146_2966)"/>
<path d="M206.053 36.4824V148.846" stroke="url(#paint9_linear_146_2966)" stroke-width="0.4" stroke-linecap="round"/>
<path fill-rule="evenodd" clip-rule="evenodd" d="M204.959 35.192C199.803 33.3672 192.562 32.7284 185.885 33.5093L133.497 39.6361C141.447 41.2078 147.86 43.956 150.857 47.5113C150.978 47.6539 151.092 47.7968 151.199 47.9398L193.165 42.1431C199.735 41.2356 204.598 39.0541 205.974 36.3967C206.204 35.9536 205.818 35.4962 204.959 35.192Z" fill="#CECFDB"/>
<path d="M173.197 55.0971L163.279 52.8625C161.142 52.1176 157.023 51.2331 156.71 51.3886C156.71 54.4314 156.709 165.724 156.71 165.806C156.712 165.93 156.87 166.052 157.163 166.124L171.945 169.773C172.316 169.864 172.806 169.825 173.054 169.684C173.151 169.63 173.197 169.567 173.197 169.505C173.196 169.403 173.197 57.5377 173.197 55.0971Z" fill="url(#paint10_radial_146_2966)"/>
<path d="M173.186 55.3735V167.737" stroke="url(#paint11_linear_146_2966)" stroke-width="0.4" stroke-linecap="round"/>
<path d="M172.831 54.8244L158.223 51.071C157.799 50.962 157.231 50.9979 156.917 51.1534C156.561 51.3299 156.675 51.5874 157.162 51.7077L171.945 55.3562C172.315 55.4477 172.806 55.4085 173.054 55.2677C173.311 55.1216 173.21 54.922 172.831 54.8244Z" fill="#CECFDB"/>
<path d="M124.082 138.069C124.618 137.214 125.328 136.642 125.791 136.69C125.791 137.894 125.791 157.055 125.791 157.177C125.79 157.204 125.781 157.232 125.761 157.26L120.657 164.666C120.533 164.846 120.056 164.953 119.593 164.905C119.208 164.865 118.953 164.731 118.948 164.583C118.947 164.553 118.947 144.154 118.947 144.091L124.082 138.069Z" fill="url(#paint12_radial_146_2966)"/>
<path d="M124.08 136.602C124.205 136.421 124.681 136.314 125.145 136.363C125.609 136.411 125.884 136.596 125.76 136.777L120.656 144.182C120.531 144.363 120.055 144.47 119.591 144.421C119.127 144.373 118.852 144.188 118.976 144.008L124.08 136.602Z" fill="#CECFDB"/>
<path d="M102.861 158.433C102.783 158.38 102.745 158.322 102.745 158.265C102.745 157.071 102.745 140.621 102.745 137.784C103.161 137.69 106.077 139.54 106.317 139.701L114.344 144.424C114.344 144.789 114.344 164.329 114.344 164.907C114.341 165.022 114.185 165.134 113.909 165.196C113.493 165.29 112.962 165.234 112.722 165.073L102.861 158.433Z" fill="url(#paint13_radial_146_2966)"/>
<path d="M102.86 137.948C102.62 137.787 102.763 137.58 103.178 137.487C103.594 137.393 104.126 137.449 104.366 137.61L114.226 144.25C114.466 144.412 114.324 144.619 113.908 144.712C113.492 144.805 112.96 144.75 112.72 144.588L102.86 137.948Z" fill="#CECFDB"/>
<path d="M90.2968 165.216C89.9075 165.176 89.651 165.039 89.6523 164.889C89.6526 164.861 89.6537 144.566 89.6537 144.408C89.7779 144.228 94.2438 144.867 94.7075 144.915L110.44 146.389C110.44 146.69 110.44 166.611 110.44 166.881C110.438 166.907 110.429 166.935 110.41 166.962C110.286 167.142 109.809 167.249 109.345 167.201L90.2968 165.216Z" fill="url(#paint14_radial_146_2966)"/>
<path d="M90.2991 144.737C89.8354 144.689 89.5602 144.504 89.6844 144.323C89.8087 144.143 90.2853 144.036 90.749 144.085L109.798 146.069C110.261 146.117 110.536 146.303 110.412 146.483C110.288 146.663 109.811 146.77 109.348 146.722L90.2991 144.737Z" fill="#CECFDB"/>
<path d="M93.7612 173.474C93.3454 173.567 92.8138 173.512 92.5738 173.35C92.4982 173.299 92.4606 173.244 92.4574 173.189C92.4505 173.07 92.4574 153.173 92.4574 152.697L109.97 149.084C110.386 148.991 111.034 148.7 111.274 148.862C111.274 149.75 111.276 169.292 111.274 169.35C111.272 169.466 111.116 169.578 110.84 169.64L93.7612 173.474Z" fill="url(#paint15_radial_146_2966)"/>
<path d="M93.7599 152.99C93.3441 153.083 92.8125 153.028 92.5725 152.866C92.3324 152.704 92.4749 152.498 92.8906 152.404L109.969 148.571C110.385 148.477 110.916 148.533 111.157 148.695C111.397 148.856 111.254 149.063 110.838 149.156L93.7599 152.99Z" fill="#CECFDB"/>
<path d="M111.222 178.357C111.098 178.537 110.622 178.644 110.158 178.596C109.769 178.555 109.512 178.418 109.513 178.268C109.514 178.24 109.513 159.337 109.513 157.784L114.627 151.445C114.751 151.265 115.893 150.335 116.356 150.383C116.356 150.462 116.356 170.685 116.356 170.869C116.355 170.896 116.345 170.924 116.327 170.951L111.222 178.357Z" fill="url(#paint16_radial_146_2966)"/>
<path d="M111.223 157.873C111.099 158.054 110.622 158.161 110.158 158.112C109.694 158.064 109.419 157.879 109.544 157.698L114.648 150.292C114.772 150.112 115.248 150.005 115.712 150.053C116.176 150.102 116.451 150.287 116.327 150.467L111.223 157.873Z" fill="#CECFDB"/>
<path d="M138.407 142.602C138.823 142.509 142.604 141.616 142.844 141.778C142.844 142.38 142.846 162.207 142.844 162.266C142.84 162.381 142.685 162.492 142.409 162.554L125.331 166.388C124.915 166.481 124.384 166.426 124.144 166.264C124.065 166.211 124.027 166.153 124.027 166.096C124.026 165.979 124.027 146.184 124.027 145.613L138.407 142.602Z" fill="url(#paint17_radial_146_2966)"/>
<path d="M141.543 141.484C141.959 141.391 142.49 141.446 142.73 141.608C142.97 141.77 142.828 141.976 142.412 142.07L125.334 145.903C124.918 145.997 124.386 145.941 124.146 145.78C123.906 145.618 124.049 145.411 124.464 145.318L141.543 141.484Z" fill="#CECFDB"/>
<path d="M145.653 150.066C145.653 151.683 145.656 170.4 145.653 170.55C145.653 170.578 145.643 170.607 145.623 170.635C145.499 170.816 145.022 170.923 144.559 170.874L125.51 168.89C125.124 168.85 124.869 168.715 124.866 168.566C124.865 168.537 124.866 150.051 124.866 148.085C125.268 147.974 128.545 148.323 130.445 148.688L145.653 150.066Z" fill="url(#paint18_radial_146_2966)"/>
<path d="M145.008 149.737C145.471 149.785 145.746 149.97 145.622 150.151C145.498 150.331 145.021 150.438 144.558 150.39L125.509 148.405C125.045 148.357 124.77 148.172 124.894 147.991C125.019 147.811 125.495 147.704 125.959 147.752L145.008 149.737Z" fill="#CECFDB"/>
<path d="M132.565 156.691C132.565 157.214 132.567 177.124 132.565 177.183C132.56 177.298 132.405 177.409 132.13 177.471C131.714 177.564 131.183 177.509 130.943 177.347L121.082 170.707C121.004 170.654 120.966 170.597 120.966 170.539C120.965 170.422 120.966 150.811 120.966 150.051C121.381 149.957 125.017 151.127 125.647 152.935L132.565 156.691Z" fill="url(#paint19_radial_146_2966)"/>
<path d="M132.446 156.525C132.687 156.686 132.544 156.893 132.128 156.986C131.713 157.08 131.181 157.024 130.941 156.863L121.081 150.223C120.841 150.061 120.983 149.854 121.399 149.761C121.815 149.668 122.346 149.723 122.586 149.885L132.446 156.525Z" fill="#CECFDB"/>
<path d="M124.082 105.954C124.618 105.1 125.328 104.527 125.791 104.576C125.791 105.78 125.791 124.941 125.791 125.062C125.79 125.09 125.781 125.118 125.761 125.146L120.657 132.552C120.533 132.732 120.056 132.839 119.593 132.791C119.208 132.751 118.953 132.616 118.948 132.469C118.947 132.438 118.947 112.04 118.947 111.977L124.082 105.954Z" fill="url(#paint20_radial_146_2966)"/>
<path d="M124.08 104.487C124.205 104.307 124.681 104.2 125.145 104.248C125.609 104.297 125.884 104.482 125.76 104.662L120.656 112.068C120.531 112.248 120.055 112.355 119.591 112.307C119.127 112.259 118.852 112.074 118.976 111.893L124.08 104.487Z" fill="#CECFDB"/>
<path d="M102.861 126.318C102.783 126.265 102.745 126.208 102.745 126.151C102.745 124.957 102.745 108.506 102.745 105.669C103.161 105.576 106.077 107.425 106.317 107.587L114.344 112.31C114.344 112.674 114.344 132.215 114.344 132.792C114.341 132.908 114.185 133.02 113.909 133.082C113.493 133.175 112.962 133.12 112.722 132.958L102.861 126.318Z" fill="url(#paint21_radial_146_2966)"/>
<path d="M102.86 105.834C102.62 105.673 102.763 105.466 103.178 105.373C103.594 105.279 104.126 105.335 104.366 105.496L114.226 112.136C114.466 112.298 114.324 112.504 113.908 112.598C113.492 112.691 112.96 112.636 112.72 112.474L102.86 105.834Z" fill="#CECFDB"/>
<path d="M90.2968 133.102C89.9075 133.062 89.651 132.925 89.6523 132.775C89.6526 132.746 89.6537 112.452 89.6537 112.294C89.7779 112.113 94.2438 112.753 94.7075 112.801L110.44 114.275C110.44 114.576 110.44 134.497 110.44 134.766C110.438 134.793 110.429 134.821 110.41 134.848C110.286 135.028 109.809 135.135 109.345 135.087L90.2968 133.102Z" fill="url(#paint22_radial_146_2966)"/>
<path d="M90.2991 112.623C89.8354 112.575 89.5602 112.389 89.6844 112.209C89.8087 112.029 90.2853 111.922 90.749 111.97L109.798 113.955C110.261 114.003 110.536 114.188 110.412 114.369C110.288 114.549 109.811 114.656 109.348 114.608L90.2991 112.623Z" fill="#CECFDB"/>
<path d="M93.7612 141.36C93.3454 141.453 92.8138 141.398 92.5738 141.236C92.4982 141.185 92.4606 141.13 92.4574 141.075C92.4505 140.955 92.4574 121.058 92.4574 120.583L109.97 116.97C110.386 116.876 111.034 116.586 111.274 116.748C111.274 117.635 111.276 137.177 111.274 137.236C111.272 137.352 111.116 137.464 110.84 137.526L93.7612 141.36Z" fill="url(#paint23_radial_146_2966)"/>
<path d="M93.7599 120.875C93.3441 120.969 92.8125 120.913 92.5725 120.752C92.3324 120.59 92.4749 120.383 92.8906 120.29L109.969 116.457C110.385 116.363 110.916 116.419 111.157 116.58C111.397 116.742 111.254 116.949 110.838 117.042L93.7599 120.875Z" fill="#CECFDB"/>
<path d="M111.222 146.243C111.098 146.423 110.622 146.53 110.158 146.482C109.769 146.441 109.512 146.304 109.513 146.154C109.514 146.126 109.513 127.223 109.513 125.67L114.627 119.331C114.751 119.15 115.893 118.221 116.356 118.269C116.356 118.348 116.356 138.57 116.356 138.755C116.355 138.782 116.345 138.809 116.327 138.837L111.222 146.243Z" fill="url(#paint24_radial_146_2966)"/>
<path d="M111.223 125.759C111.099 125.939 110.622 126.046 110.158 125.998C109.694 125.95 109.419 125.764 109.544 125.584L114.648 118.178C114.772 117.998 115.248 117.891 115.712 117.939C116.176 117.988 116.451 118.173 116.327 118.353L111.223 125.759Z" fill="#CECFDB"/>
<path d="M138.407 110.488C138.823 110.394 142.604 109.502 142.844 109.664C142.844 110.266 142.846 130.093 142.844 130.151C142.84 130.267 142.685 130.378 142.409 130.44L125.331 134.273C124.915 134.367 124.384 134.311 124.144 134.15C124.065 134.097 124.027 134.039 124.027 133.982C124.026 133.865 124.027 114.069 124.027 113.499L138.407 110.488Z" fill="url(#paint25_radial_146_2966)"/>
<path d="M141.543 109.37C141.959 109.277 142.49 109.332 142.73 109.494C142.97 109.655 142.828 109.862 142.412 109.955L125.334 113.789C124.918 113.882 124.386 113.827 124.146 113.665C123.906 113.504 124.049 113.297 124.464 113.204L141.543 109.37Z" fill="#CECFDB"/>
<path d="M145.653 117.952C145.653 119.569 145.656 138.286 145.653 138.436C145.653 138.464 145.643 138.493 145.623 138.521C145.499 138.701 145.022 138.808 144.559 138.76L125.51 136.776C125.124 136.735 124.869 136.6 124.866 136.452C124.865 136.422 124.866 117.936 124.866 115.971C125.268 115.86 128.545 116.209 130.445 116.573L145.653 117.952Z" fill="url(#paint26_radial_146_2966)"/>
<path d="M145.008 117.622C145.471 117.671 145.746 117.856 145.622 118.036C145.498 118.217 145.021 118.324 144.558 118.275L125.509 116.291C125.045 116.243 124.77 116.057 124.894 115.877C125.019 115.697 125.495 115.59 125.959 115.638L145.008 117.622Z" fill="#CECFDB"/>
<path d="M132.565 124.577C132.565 125.1 132.567 145.01 132.565 145.068C132.56 145.184 132.405 145.295 132.13 145.357C131.714 145.45 131.183 145.395 130.943 145.233L121.082 138.593C121.004 138.54 120.966 138.482 120.966 138.425C120.965 138.308 120.966 118.697 120.966 117.936C121.381 117.843 125.017 119.013 125.647 120.821L132.565 124.577Z" fill="url(#paint27_radial_146_2966)"/>
<path d="M132.446 124.41C132.687 124.572 132.544 124.779 132.128 124.872C131.713 124.965 131.181 124.91 130.941 124.748L121.081 118.108C120.841 117.947 120.983 117.74 121.399 117.647C121.815 117.554 122.346 117.609 122.586 117.771L132.446 124.41Z" fill="#CECFDB"/>
<path d="M124.082 73.8416C124.618 72.9869 125.328 72.4145 125.791 72.4628C125.791 73.6673 125.791 92.8278 125.791 92.9495C125.79 92.9772 125.781 93.0053 125.761 93.0332L120.657 100.439C120.533 100.619 120.056 100.726 119.593 100.678C119.208 100.638 118.953 100.503 118.948 100.356C118.947 100.326 118.947 79.9273 118.947 79.8639L124.082 73.8416Z" fill="url(#paint28_radial_146_2966)"/>
<path d="M124.08 72.3746C124.205 72.1943 124.681 72.0873 125.145 72.1356C125.609 72.1839 125.884 72.3692 125.76 72.5495L120.656 79.9554C120.531 80.1357 120.055 80.2427 119.591 80.1944C119.127 80.1461 118.852 79.9608 118.976 79.7805L124.08 72.3746Z" fill="#CECFDB"/>
<path d="M102.861 94.2056C102.783 94.1527 102.745 94.0949 102.745 94.0379C102.745 92.844 102.745 76.3935 102.745 73.5566C103.161 73.4633 106.077 75.3126 106.317 75.4743L114.344 80.197C114.344 80.5615 114.344 100.102 114.344 100.679C114.341 100.795 114.185 100.907 113.909 100.969C113.493 101.063 112.962 101.007 112.722 100.846L102.861 94.2056Z" fill="url(#paint29_radial_146_2966)"/>
<path d="M102.86 73.7214C102.62 73.5597 102.763 73.3531 103.178 73.2597C103.594 73.1664 104.126 73.2218 104.366 73.3834L114.226 80.0234C114.466 80.185 114.324 80.3917 113.908 80.485C113.492 80.5783 112.96 80.523 112.72 80.3613L102.86 73.7214Z" fill="#CECFDB"/>
<path d="M90.2968 100.989C89.9075 100.949 89.651 100.812 89.6523 100.662C89.6526 100.633 89.6537 80.3394 89.6537 80.1809C89.7779 80.0006 94.2438 80.6397 94.7075 80.688L110.44 82.1618C110.44 82.4629 110.44 102.384 110.44 102.654C110.438 102.68 110.429 102.708 110.41 102.735C110.286 102.915 109.809 103.022 109.345 102.974L90.2968 100.989Z" fill="url(#paint30_radial_146_2966)"/>
<path d="M90.2991 80.5103C89.8354 80.462 89.5602 80.2767 89.6844 80.0964C89.8087 79.9161 90.2853 79.8092 90.749 79.8575L109.798 81.8419C110.261 81.8902 110.536 82.0755 110.412 82.2558C110.288 82.436 109.811 82.543 109.348 82.4947L90.2991 80.5103Z" fill="#CECFDB"/>
<path d="M93.7612 109.247C93.3454 109.34 92.8138 109.285 92.5738 109.123C92.4982 109.072 92.4606 109.017 92.4574 108.962C92.4505 108.843 92.4574 88.9457 92.4574 88.4702L109.97 84.8569C110.386 84.7635 111.034 84.4733 111.274 84.635C111.274 85.5225 111.276 105.065 111.274 105.123C111.272 105.239 111.116 105.351 110.84 105.413L93.7612 109.247Z" fill="url(#paint31_radial_146_2966)"/>
<path d="M93.7599 88.7627C93.3441 88.856 92.8125 88.8006 92.5725 88.639C92.3324 88.4773 92.4749 88.2707 92.8906 88.1773L109.969 84.3438C110.385 84.2504 110.916 84.3058 111.157 84.4675C111.397 84.6291 111.254 84.8358 110.838 84.9291L93.7599 88.7627Z" fill="#CECFDB"/>
<path d="M111.222 114.13C111.098 114.31 110.622 114.417 110.158 114.369C109.769 114.328 109.512 114.191 109.513 114.041C109.514 114.013 109.513 95.1104 109.513 93.5572L114.627 87.2179C114.751 87.0377 115.893 86.1078 116.356 86.1561C116.356 86.2353 116.356 106.458 116.356 106.642C116.355 106.669 116.345 106.697 116.327 106.724L111.222 114.13Z" fill="url(#paint32_radial_146_2966)"/>
<path d="M111.223 93.6462C111.099 93.8265 110.622 93.9335 110.158 93.8852C109.694 93.8369 109.419 93.6516 109.544 93.4713L114.648 86.0654C114.772 85.8851 115.248 85.7781 115.712 85.8264C116.176 85.8747 116.451 86.0601 116.327 86.2403L111.223 93.6462Z" fill="#CECFDB"/>
<path d="M138.407 78.3749C138.823 78.2815 142.604 77.3891 142.844 77.5508C142.844 78.153 142.846 97.9798 142.844 98.0386C142.84 98.1538 142.685 98.2652 142.409 98.327L125.331 102.161C124.915 102.254 124.384 102.198 124.144 102.037C124.065 101.984 124.027 101.926 124.027 101.869C124.026 101.752 124.027 81.9567 124.027 81.3862L138.407 78.3749Z" fill="url(#paint33_radial_146_2966)"/>
<path d="M141.543 77.2574C141.959 77.164 142.49 77.2194 142.73 77.381C142.97 77.5427 142.828 77.7494 142.412 77.8427L125.334 81.6763C124.918 81.7696 124.386 81.7142 124.146 81.5526C123.906 81.3909 124.049 81.1842 124.464 81.0909L141.543 77.2574Z" fill="#CECFDB"/>
<path d="M145.653 85.8394C145.653 87.4559 145.656 106.173 145.653 106.323C145.653 106.351 145.643 106.38 145.623 106.408C145.499 106.589 145.022 106.696 144.559 106.647L125.51 104.663C125.124 104.623 124.869 104.487 124.866 104.339C124.865 104.31 124.866 85.8235 124.866 83.8583C125.268 83.7474 128.545 84.0961 130.445 84.4606L145.653 85.8394Z" fill="url(#paint34_radial_146_2966)"/>
<path d="M145.008 85.5097C145.471 85.558 145.746 85.7433 145.622 85.9236C145.498 86.1039 145.021 86.2109 144.558 86.1626L125.509 84.1782C125.045 84.1299 124.77 83.9445 124.894 83.7643C125.019 83.584 125.495 83.477 125.959 83.5253L145.008 85.5097Z" fill="#CECFDB"/>
<path d="M132.565 92.4639C132.565 92.9869 132.567 112.897 132.565 112.956C132.56 113.071 132.405 113.182 132.13 113.244C131.714 113.337 131.183 113.282 130.943 113.12L121.082 106.48C121.004 106.427 120.966 106.369 120.966 106.312C120.965 106.195 120.966 86.5843 120.966 85.8236C121.381 85.7302 125.017 86.8999 125.647 88.7079L132.565 92.4639Z" fill="url(#paint35_radial_146_2966)"/>
<path d="M132.446 92.2977C132.687 92.4593 132.544 92.666 132.128 92.7593C131.713 92.8526 131.181 92.7972 130.941 92.6356L121.081 85.9957C120.841 85.834 120.983 85.6273 121.399 85.534C121.815 85.4407 122.346 85.4961 122.586 85.6577L132.446 92.2977Z" fill="#CECFDB"/>
<path d="M124.082 41.7273C124.618 40.8726 125.328 40.3002 125.791 40.3485C125.791 41.553 125.791 60.7135 125.791 60.8353C125.79 60.8629 125.781 60.891 125.761 60.919L120.657 68.3249C120.533 68.5051 120.056 68.6121 119.593 68.5638C119.208 68.5237 118.953 68.3892 118.948 68.2415C118.947 68.2113 118.947 47.813 118.947 47.7496L124.082 41.7273Z" fill="url(#paint36_radial_146_2966)"/>
<path d="M124.08 40.2603C124.205 40.08 124.681 39.9731 125.145 40.0214C125.609 40.0697 125.884 40.255 125.76 40.4353L120.656 47.8411C120.531 48.0214 120.055 48.1284 119.591 48.0801C119.127 48.0318 118.852 47.8465 118.976 47.6662L124.08 40.2603Z" fill="#CECFDB"/>
<path d="M102.861 62.0913C102.783 62.0384 102.745 61.9807 102.745 61.9236C102.745 60.7298 102.745 44.2792 102.745 41.4424C103.161 41.3491 106.077 43.1984 106.317 43.36L114.344 48.0828C114.344 48.4473 114.344 67.9881 114.344 68.5652C114.341 68.6809 114.185 68.793 113.909 68.855C113.493 68.9483 112.962 68.8929 112.722 68.7313L102.861 62.0913Z" fill="url(#paint37_radial_146_2966)"/>
<path d="M102.86 41.6071C102.62 41.4455 102.763 41.2388 103.178 41.1455C103.594 41.0522 104.126 41.1075 104.366 41.2692L114.226 47.9091C114.466 48.0708 114.324 48.2774 113.908 48.3708C113.492 48.4641 112.96 48.4087 112.72 48.2471L102.86 41.6071Z" fill="#CECFDB"/>
<path d="M90.2968 68.8752C89.9075 68.8346 89.651 68.6975 89.6523 68.5478C89.6526 68.5192 89.6537 48.2251 89.6537 48.0666C89.7779 47.8863 94.2438 48.5255 94.7075 48.5738L110.44 50.0475C110.44 50.3487 110.44 70.2699 110.44 70.5393C110.438 70.5662 110.429 70.5935 110.41 70.6206C110.286 70.8009 109.809 70.9079 109.345 70.8596L90.2968 68.8752Z" fill="url(#paint38_radial_146_2966)"/>
<path d="M90.2991 48.3961C89.8354 48.3478 89.5602 48.1624 89.6844 47.9822C89.8087 47.8019 90.2853 47.6949 90.749 47.7432L109.798 49.7276C110.261 49.7759 110.536 49.9612 110.412 50.1415C110.288 50.3218 109.811 50.4288 109.348 50.3805L90.2991 48.3961Z" fill="#CECFDB"/>
<path d="M93.7612 77.1325C93.3454 77.2258 92.8138 77.1705 92.5738 77.0088C92.4982 76.9579 92.4606 76.9026 92.4574 76.8477C92.4505 76.7283 92.4574 56.8314 92.4574 56.356L109.97 52.7426C110.386 52.6493 111.034 52.3591 111.274 52.5207C111.274 53.4082 111.276 72.9504 111.274 73.0086C111.272 73.1245 111.116 73.2368 110.84 73.2989L93.7612 77.1325Z" fill="url(#paint39_radial_146_2966)"/>
<path d="M93.7599 56.6484C93.3441 56.7417 92.8125 56.6864 92.5725 56.5247C92.3324 56.3631 92.4749 56.1564 92.8906 56.0631L109.969 52.2295C110.385 52.1362 110.916 52.1916 111.157 52.3532C111.397 52.5148 111.254 52.7215 110.838 52.8148L93.7599 56.6484Z" fill="#CECFDB"/>
<path d="M111.222 82.0155C111.098 82.1958 110.622 82.3028 110.158 82.2545C109.769 82.2139 109.512 82.0768 109.513 81.9272C109.514 81.8986 109.513 62.9961 109.513 61.443L114.627 55.1037C114.751 54.9234 115.893 53.9935 116.356 54.0419C116.356 54.1211 116.356 74.3434 116.356 74.5277C116.355 74.5548 116.345 74.5823 116.327 74.6096L111.222 82.0155Z" fill="url(#paint40_radial_146_2966)"/>
<path d="M111.223 61.532C111.099 61.7123 110.622 61.8192 110.158 61.7709C109.694 61.7226 109.419 61.5373 109.544 61.357L114.648 53.9511C114.772 53.7709 115.248 53.6639 115.712 53.7122C116.176 53.7605 116.451 53.9458 116.327 54.1261L111.223 61.532Z" fill="#CECFDB"/>
<path d="M138.407 46.2606C138.823 46.1673 142.604 45.2749 142.844 45.4365C142.844 46.0387 142.846 65.8655 142.844 65.9244C142.84 66.0395 142.685 66.151 142.409 66.2127L125.331 70.0463C124.915 70.1396 124.384 70.0842 124.144 69.9226C124.065 69.8696 124.027 69.8118 124.027 69.7546C124.026 69.6376 124.027 49.8424 124.027 49.2719L138.407 46.2606Z" fill="url(#paint41_radial_146_2966)"/>
<path d="M141.543 45.1431C141.959 45.0498 142.49 45.1052 142.73 45.2668C142.97 45.4284 142.828 45.6351 142.412 45.7284L125.334 49.562C124.918 49.6553 124.386 49.5999 124.146 49.4383C123.906 49.2767 124.049 49.07 124.464 48.9767L141.543 45.1431Z" fill="#CECFDB"/>
<path d="M145.653 53.7251C145.653 55.3416 145.656 74.0587 145.653 74.2089C145.653 74.237 145.643 74.2656 145.623 74.294C145.499 74.4743 145.022 74.5813 144.559 74.533L125.51 72.5486C125.124 72.5084 124.869 72.3732 124.866 72.2251C124.865 72.1952 124.866 53.7093 124.866 51.7441C125.268 51.6331 128.545 51.9818 130.445 52.3463L145.653 53.7251Z" fill="url(#paint42_radial_146_2966)"/>
<path d="M145.008 53.3954C145.471 53.4438 145.746 53.6291 145.622 53.8093C145.498 53.9896 145.021 54.0966 144.558 54.0483L125.509 52.0639C125.045 52.0156 124.77 51.8303 124.894 51.65C125.019 51.4697 125.495 51.3627 125.959 51.411L145.008 53.3954Z" fill="#CECFDB"/>
<path d="M132.565 60.3496C132.565 60.8726 132.567 80.7825 132.565 80.8414C132.56 80.9565 132.405 81.0679 132.13 81.1296C131.714 81.223 131.183 81.1676 130.943 81.0059L121.082 74.366C121.004 74.313 120.966 74.2552 120.966 74.1982C120.965 74.0811 120.966 54.47 120.966 53.7093C121.381 53.616 125.017 54.7856 125.647 56.5937L132.565 60.3496Z" fill="url(#paint43_radial_146_2966)"/>
<path d="M132.446 60.1834C132.687 60.345 132.544 60.5517 132.128 60.645C131.713 60.7384 131.181 60.683 130.941 60.5214L121.081 53.8814C120.841 53.7198 120.983 53.5131 121.399 53.4198C121.815 53.3264 122.346 53.3818 122.586 53.5435L132.446 60.1834Z" fill="#CECFDB"/>
<rect x="89.4595" y="56.3247" width="56.3983" height="121.175" fill="url(#paint44_radial_146_2966)"/>
<path d="M70.9978 175.963L85.6833 175.769C86.1096 175.764 86.4552 175.607 86.4776 175.41C86.4784 175.403 86.4787 175.396 86.4787 175.39C86.4785 175.175 86.4776 72.9256 86.4776 60.9761L70.2947 61.2296C70.2947 63.4325 70.2902 175.479 70.2947 175.65C70.2994 175.827 70.616 175.968 70.9978 175.963Z" fill="url(#paint45_radial_146_2966)"/>
<path d="M86.4834 61.4282V173.792" stroke="url(#paint46_linear_146_2966)" stroke-width="0.8" stroke-linecap="round"/>
<path d="M70.9992 61.5471L85.6847 61.3537C86.111 61.3481 86.4566 61.1918 86.479 60.9945C86.5044 60.7704 86.1069 60.5851 85.6232 60.5956L70.9478 60.914C70.5798 60.922 70.2916 61.0637 70.2961 61.2343C70.3008 61.4113 70.6174 61.5522 70.9992 61.5471Z" fill="#CECFDB"/>
<path fill-rule="evenodd" clip-rule="evenodd" d="M185.142 193.315C188.01 190.844 187.334 187.97 183.359 185.742L152.171 168.268C150.785 171.693 146.046 174.914 138.277 177.122C137.965 177.211 137.651 177.297 137.334 177.381L164.492 191.104C168.744 193.253 175.583 194.376 182.509 194.063C183.664 194.011 184.663 193.727 185.142 193.315Z" fill="#CECFDB"/>
<path opacity="0.5" fill-rule="evenodd" clip-rule="evenodd" d="M137.334 62.9646L137.42 62.9418V177.358C137.392 177.366 137.363 177.373 137.335 177.381L137.334 177.38L137.335 62.9724L137.35 62.9724L137.334 62.9646ZM186.899 190.138C186.898 188.85 186.899 117.716 186.899 87.8565L186.899 75.7779C186.926 74.2123 185.729 72.654 183.359 71.326L152.176 53.855V168.271L183.359 185.742C185.701 187.055 186.898 188.592 186.899 190.138Z" fill="#CECFDB"/>
<path fill-rule="evenodd" clip-rule="evenodd" d="M186.899 75.7615C186.885 76.8267 186.305 77.8956 185.141 78.898C184.663 79.31 183.663 79.594 182.509 79.6462C175.583 79.959 168.743 78.8357 164.491 76.6873L137.35 62.9722C137.345 62.9722 137.34 62.9722 137.335 62.9722L137.334 177.38L164.492 191.103C168.744 193.252 175.583 194.375 182.509 194.062C183.664 194.01 184.663 193.726 185.142 193.314C186.32 192.299 186.9 191.216 186.899 190.138C186.898 188.85 186.899 117.713 186.899 87.8549C186.899 81.86 186.899 77.5291 186.899 75.7616L186.899 75.7615Z" fill="url(#paint47_radial_146_2966)"/>
<path d="M186.894 76.23V188.594" stroke="url(#paint48_linear_146_2966)" stroke-width="0.4" stroke-linecap="round"/>
<path fill-rule="evenodd" clip-rule="evenodd" d="M185.142 78.8984C188.01 76.4277 187.334 73.553 183.359 71.3259L152.171 53.8516C150.785 57.2769 146.046 60.4977 138.277 62.7056C137.965 62.7942 137.651 62.8805 137.334 62.9645L164.492 76.6877C168.744 78.8362 175.583 79.9594 182.509 79.6466C183.664 79.5944 184.663 79.3104 185.142 78.8984Z" fill="#CECFDB"/>
<path d="M126.284 187.561L131.224 181.03C131.251 180.995 131.264 180.959 131.264 180.924C131.266 180.771 131.264 68.1711 131.264 66.4912C129.55 67.458 129.154 67.553 128.806 68.5356L124.688 73.0524C124.688 76.9035 124.687 187.445 124.688 187.473C124.689 187.608 124.913 187.732 125.26 187.774C125.695 187.827 126.156 187.731 126.284 187.561Z" fill="url(#paint49_radial_146_2966)"/>
<path d="M131.256 66.7847V179.149" stroke="url(#paint50_linear_146_2966)" stroke-width="0.4" stroke-linecap="round"/>
<path d="M126.284 73.1452L131.224 66.6142C131.368 66.4246 131.113 66.224 130.638 66.1531C130.1 66.0726 129.5 66.1904 129.347 66.4068L124.717 72.972C124.601 73.1366 124.841 73.3074 125.26 73.3582C125.695 73.4109 126.156 73.3149 126.284 73.1452Z" fill="#CECFDB"/>
<path opacity="0.5" fill-rule="evenodd" clip-rule="evenodd" d="M96.149 62.4416L96.1607 62.4341V62.4451V78.7393V176.885L96.1474 176.881L70.7814 191.113C68.4802 192.405 67.2868 193.913 67.249 195.434V81.1425V81.0399V80.9933C67.2868 79.4725 68.4802 77.9642 70.7814 76.6731L96.1474 62.4411L96.149 62.4416ZM67.249 195.583L67.2492 195.591L67.249 195.591V195.583Z" fill="#CECFDB"/>
<path fill-rule="evenodd" clip-rule="evenodd" d="M71.6462 84.9939C78.5724 85.305 85.4104 84.18 89.6585 82.0305L122.99 65.1648C114.175 65.6933 104.842 64.9177 97.0697 62.7118C96.7578 62.6233 96.4508 62.5331 96.1488 62.4414L70.7828 76.6734C66.8116 78.9015 66.1395 81.7764 69.0123 84.2464C69.4913 84.6582 70.4914 84.942 71.6462 84.9939Z" fill="#CECFDB"/>
<path fill-rule="evenodd" clip-rule="evenodd" d="M89.6575 82.0306C85.4095 84.1801 78.5715 85.3051 71.6453 84.994C70.4904 84.9421 69.4904 84.6583 69.0114 84.2465C67.8434 83.2423 67.2613 82.1711 67.2488 81.1037L67.2486 81.1037C67.2486 82.468 67.2484 87.258 67.2481 94.1569C67.2467 124.2 67.2436 194.236 67.2485 195.496C67.2528 196.571 67.8347 197.651 69.0113 198.662C69.4904 199.074 70.4904 199.358 71.6452 199.41C78.5715 199.721 85.4094 198.596 89.6575 196.447L122.989 179.581L122.989 65.1763C122.976 65.1789 122.964 65.1815 122.951 65.1841L89.6575 82.0306Z" fill="url(#paint51_radial_146_2966)"/>
<path d="M108.92 167.762L123.819 131.814" stroke="#64A2FF" stroke-width="2" stroke-linecap="round" stroke-linejoin="round"/>
<path d="M129.01 117.014C129.57 116.514 130.443 116.972 130.529 117.81L132.102 133.088C132.175 133.79 131.632 134.321 131.023 134.145L116.905 130.072C116.142 129.852 115.879 128.743 116.465 128.219L129.01 117.014Z" fill="#64A2FF"/>
<path d="M159.21 167.762L144.311 131.814" stroke="#64A2FF" stroke-width="2" stroke-linecap="round" stroke-linejoin="round"/>
<path d="M139.12 117.014C138.561 116.514 137.687 116.972 137.601 117.81L136.028 133.088C135.956 133.79 136.498 134.321 137.107 134.145L151.225 130.072C151.988 129.852 152.251 128.743 151.665 128.219L139.12 117.014Z" fill="#64A2FF"/>
<path d="M134.429 168.308L134.429 154.045" stroke="#64A2FF" stroke-width="2" stroke-linecap="round" stroke-linejoin="round"/>
<path d="M133.565 138.931C133.874 138.236 134.934 138.489 135.316 139.35L141.393 153.039C141.678 153.681 141.39 154.286 140.799 154.286L128.637 154.288C127.864 154.289 127.179 153.302 127.48 152.623L133.565 138.931Z" fill="#64A2FF"/>
<defs>
<radialGradient id="paint0_radial_146_2966" cx="0" cy="0" r="1" gradientUnits="userSpaceOnUse" gradientTransform="translate(114 78.924) rotate(90) scale(76.0714 114)">
<stop stop-color="#347DFE"/>
<stop offset="0.229167" stop-color="#347DFE"/>
<stop offset="1" stop-color="#347DFE" stop-opacity="0"/>
</radialGradient>
<radialGradient id="paint1_radial_146_2966" cx="0" cy="0" r="1" gradientUnits="userSpaceOnUse" gradientTransform="translate(79.5462 38.5108) rotate(91.2737) scale(86.9014 5.86396)">
<stop stop-color="#8C8EA5"/>
<stop offset="1" stop-color="#000002"/>
</radialGradient>
<linearGradient id="paint2_linear_146_2966" x1="86.2227" y1="43.765" x2="86.2227" y2="155.629" gradientUnits="userSpaceOnUse">
<stop stop-color="#8C8EA5"/>
<stop offset="1" stop-color="#8C8EA5" stop-opacity="0"/>
</linearGradient>
<radialGradient id="paint3_radial_146_2966" cx="0" cy="0" r="1" gradientUnits="userSpaceOnUse" gradientTransform="translate(29.4334 49.8744) rotate(90) scale(114.868 58.1864)">
<stop stop-color="#8C8EA5"/>
<stop offset="1" stop-color="#000002"/>
</radialGradient>
<radialGradient id="paint4_radial_146_2966" cx="0" cy="0" r="1" gradientUnits="userSpaceOnUse" gradientTransform="translate(105.912 39.0506) rotate(90) scale(117.487 24.8626)">
<stop stop-color="#8C8EA5"/>
<stop offset="1" stop-color="#000002"/>
</radialGradient>
<radialGradient id="paint5_radial_146_2966" cx="0" cy="0" r="1" gradientUnits="userSpaceOnUse" gradientTransform="translate(127.709 35.9433) rotate(90) scale(66.927 8.56273)">
<stop stop-color="#8C8EA5"/>
<stop offset="1" stop-color="#000002"/>
</radialGradient>
<linearGradient id="paint6_linear_146_2966" x1="143.475" y1="33.2098" x2="143.475" y2="145.074" gradientUnits="userSpaceOnUse">
<stop stop-color="#8C8EA5"/>
<stop offset="1" stop-color="#8C8EA5" stop-opacity="0"/>
</linearGradient>
<radialGradient id="paint7_radial_146_2966" cx="0" cy="0" r="1" gradientUnits="userSpaceOnUse" gradientTransform="translate(151.209 48.0835) rotate(90) scale(114.266 49.627)">
<stop stop-color="#8C8EA5"/>
<stop offset="1" stop-color="#000002"/>
</radialGradient>
<radialGradient id="paint8_radial_146_2966" cx="0" cy="0" r="1" gradientUnits="userSpaceOnUse" gradientTransform="translate(142.347 42.4096) rotate(90) scale(119.944 17.3003)">
<stop stop-color="#8C8EA5"/>
<stop offset="1" stop-color="#000002"/>
</radialGradient>
<linearGradient id="paint9_linear_146_2966" x1="206.553" y1="36.9818" x2="206.553" y2="148.846" gradientUnits="userSpaceOnUse">
<stop stop-color="#8C8EA5"/>
<stop offset="1" stop-color="#8C8EA5" stop-opacity="0"/>
</linearGradient>
<radialGradient id="paint10_radial_146_2966" cx="0" cy="0" r="1" gradientUnits="userSpaceOnUse" gradientTransform="translate(156.719 51.3805) rotate(90) scale(79.3362 11.0429)">
<stop stop-color="#8C8EA5"/>
<stop offset="1" stop-color="#000002"/>
</radialGradient>
<linearGradient id="paint11_linear_146_2966" x1="173.686" y1="55.8729" x2="173.686" y2="167.737" gradientUnits="userSpaceOnUse">
<stop stop-color="#8C8EA5"/>
<stop offset="1" stop-color="#8C8EA5" stop-opacity="0"/>
</linearGradient>
<radialGradient id="paint12_radial_146_2966" cx="0" cy="0" r="1" gradientUnits="userSpaceOnUse" gradientTransform="translate(118.943 144.186) rotate(90) scale(23.0275 5.58333)">
<stop stop-color="#8C8EA5"/>
<stop offset="1" stop-color="#000002"/>
</radialGradient>
<radialGradient id="paint13_radial_146_2966" cx="0" cy="0" r="1" gradientUnits="userSpaceOnUse" gradientTransform="translate(102.734 137.768) rotate(90) scale(27.4808 11.6072)">
<stop stop-color="#8C8EA5"/>
<stop offset="1" stop-color="#000002"/>
</radialGradient>
<radialGradient id="paint14_radial_146_2966" cx="0" cy="0" r="1" gradientUnits="userSpaceOnUse" gradientTransform="translate(91.1877 144.36) rotate(90) scale(32.4888 29.5735)">
<stop stop-color="#8C8EA5"/>
<stop offset="1" stop-color="#000002"/>
</radialGradient>
<radialGradient id="paint15_radial_146_2966" cx="0" cy="0" r="1" gradientUnits="userSpaceOnUse" gradientTransform="translate(92.439 152.761) rotate(90) scale(25.5632 19.4742)">
<stop stop-color="#8C8EA5"/>
<stop offset="1" stop-color="#000002"/>
</radialGradient>
<radialGradient id="paint16_radial_146_2966" cx="0" cy="0" r="1" gradientUnits="userSpaceOnUse" gradientTransform="translate(109.508 157.8) rotate(90) scale(24.7549 6.00131)">
<stop stop-color="#8C8EA5"/>
<stop offset="1" stop-color="#000002"/>
</radialGradient>
<radialGradient id="paint17_radial_146_2966" cx="0" cy="0" r="1" gradientUnits="userSpaceOnUse" gradientTransform="translate(124.042 145.613) rotate(90) scale(23.0591 17.5862)">
<stop stop-color="#8C8EA5"/>
<stop offset="1" stop-color="#000002"/>
</radialGradient>
<radialGradient id="paint18_radial_146_2966" cx="0" cy="0" r="1" gradientUnits="userSpaceOnUse" gradientTransform="translate(128.524 148.735) rotate(90) scale(23.2493 21.1788)">
<stop stop-color="#8C8EA5"/>
<stop offset="1" stop-color="#000002"/>
</radialGradient>
<radialGradient id="paint19_radial_146_2966" cx="0" cy="0" r="1" gradientUnits="userSpaceOnUse" gradientTransform="translate(120.972 150.035) rotate(90) scale(27.4808 11.6045)">
<stop stop-color="#8C8EA5"/>
<stop offset="1" stop-color="#000002"/>
</radialGradient>
<radialGradient id="paint20_radial_146_2966" cx="0" cy="0" r="1" gradientUnits="userSpaceOnUse" gradientTransform="translate(118.943 112.072) rotate(90) scale(23.0275 5.58333)">
<stop stop-color="#8C8EA5"/>
<stop offset="1" stop-color="#000002"/>
</radialGradient>
<radialGradient id="paint21_radial_146_2966" cx="0" cy="0" r="1" gradientUnits="userSpaceOnUse" gradientTransform="translate(102.734 105.654) rotate(90) scale(27.4808 11.6072)">
<stop stop-color="#8C8EA5"/>
<stop offset="1" stop-color="#000002"/>
</radialGradient>
<radialGradient id="paint22_radial_146_2966" cx="0" cy="0" r="1" gradientUnits="userSpaceOnUse" gradientTransform="translate(91.1877 112.246) rotate(90) scale(32.4888 29.5735)">
<stop stop-color="#8C8EA5"/>
<stop offset="1" stop-color="#000002"/>
</radialGradient>
<radialGradient id="paint23_radial_146_2966" cx="0" cy="0" r="1" gradientUnits="userSpaceOnUse" gradientTransform="translate(92.439 120.646) rotate(90) scale(25.5632 19.4742)">
<stop stop-color="#8C8EA5"/>
<stop offset="1" stop-color="#000002"/>
</radialGradient>
<radialGradient id="paint24_radial_146_2966" cx="0" cy="0" r="1" gradientUnits="userSpaceOnUse" gradientTransform="translate(109.508 125.686) rotate(90) scale(24.7549 6.00131)">
<stop stop-color="#8C8EA5"/>
<stop offset="1" stop-color="#000002"/>
</radialGradient>
<radialGradient id="paint25_radial_146_2966" cx="0" cy="0" r="1" gradientUnits="userSpaceOnUse" gradientTransform="translate(124.042 113.499) rotate(90) scale(23.0591 17.5862)">
<stop stop-color="#8C8EA5"/>
<stop offset="1" stop-color="#000002"/>
</radialGradient>
<radialGradient id="paint26_radial_146_2966" cx="0" cy="0" r="1" gradientUnits="userSpaceOnUse" gradientTransform="translate(128.524 116.621) rotate(90) scale(23.2493 21.1788)">
<stop stop-color="#8C8EA5"/>
<stop offset="1" stop-color="#000002"/>
</radialGradient>
<radialGradient id="paint27_radial_146_2966" cx="0" cy="0" r="1" gradientUnits="userSpaceOnUse" gradientTransform="translate(120.972 117.92) rotate(90) scale(27.4808 11.6045)">
<stop stop-color="#8C8EA5"/>
<stop offset="1" stop-color="#000002"/>
</radialGradient>
<radialGradient id="paint28_radial_146_2966" cx="0" cy="0" r="1" gradientUnits="userSpaceOnUse" gradientTransform="translate(118.943 79.959) rotate(90) scale(23.0275 5.58333)">
<stop stop-color="#8C8EA5"/>
<stop offset="1" stop-color="#000002"/>
</radialGradient>
<radialGradient id="paint29_radial_146_2966" cx="0" cy="0" r="1" gradientUnits="userSpaceOnUse" gradientTransform="translate(102.734 73.5408) rotate(90) scale(27.4808 11.6072)">
<stop stop-color="#8C8EA5"/>
<stop offset="1" stop-color="#000002"/>
</radialGradient>
<radialGradient id="paint30_radial_146_2966" cx="0" cy="0" r="1" gradientUnits="userSpaceOnUse" gradientTransform="translate(91.1877 80.1334) rotate(90) scale(32.4888 29.5735)">
<stop stop-color="#8C8EA5"/>
<stop offset="1" stop-color="#000002"/>
</radialGradient>
<radialGradient id="paint31_radial_146_2966" cx="0" cy="0" r="1" gradientUnits="userSpaceOnUse" gradientTransform="translate(92.439 88.5336) rotate(90) scale(25.5632 19.4742)">
<stop stop-color="#8C8EA5"/>
<stop offset="1" stop-color="#000002"/>
</radialGradient>
<radialGradient id="paint32_radial_146_2966" cx="0" cy="0" r="1" gradientUnits="userSpaceOnUse" gradientTransform="translate(109.508 93.5731) rotate(90) scale(24.7549 6.00131)">
<stop stop-color="#8C8EA5"/>
<stop offset="1" stop-color="#000002"/>
</radialGradient>
<radialGradient id="paint33_radial_146_2966" cx="0" cy="0" r="1" gradientUnits="userSpaceOnUse" gradientTransform="translate(124.042 81.3862) rotate(90) scale(23.0591 17.5862)">
<stop stop-color="#8C8EA5"/>
<stop offset="1" stop-color="#000002"/>
</radialGradient>
<radialGradient id="paint34_radial_146_2966" cx="0" cy="0" r="1" gradientUnits="userSpaceOnUse" gradientTransform="translate(128.524 84.5081) rotate(90) scale(23.2493 21.1788)">
<stop stop-color="#8C8EA5"/>
<stop offset="1" stop-color="#000002"/>
</radialGradient>
<radialGradient id="paint35_radial_146_2966" cx="0" cy="0" r="1" gradientUnits="userSpaceOnUse" gradientTransform="translate(120.972 85.8076) rotate(90) scale(27.4808 11.6045)">
<stop stop-color="#8C8EA5"/>
<stop offset="1" stop-color="#000002"/>
</radialGradient>
<radialGradient id="paint36_radial_146_2966" cx="0" cy="0" r="1" gradientUnits="userSpaceOnUse" gradientTransform="translate(118.943 47.8447) rotate(90) scale(23.0275 5.58333)">
<stop stop-color="#8C8EA5"/>
<stop offset="1" stop-color="#000002"/>
</radialGradient>
<radialGradient id="paint37_radial_146_2966" cx="0" cy="0" r="1" gradientUnits="userSpaceOnUse" gradientTransform="translate(102.734 41.4266) rotate(90) scale(27.4808 11.6072)">
<stop stop-color="#8C8EA5"/>
<stop offset="1" stop-color="#000002"/>
</radialGradient>
<radialGradient id="paint38_radial_146_2966" cx="0" cy="0" r="1" gradientUnits="userSpaceOnUse" gradientTransform="translate(91.1877 48.0191) rotate(90) scale(32.4888 29.5735)">
<stop stop-color="#8C8EA5"/>
<stop offset="1" stop-color="#000002"/>
</radialGradient>
<radialGradient id="paint39_radial_146_2966" cx="0" cy="0" r="1" gradientUnits="userSpaceOnUse" gradientTransform="translate(92.439 56.4194) rotate(90) scale(25.5632 19.4742)">
<stop stop-color="#8C8EA5"/>
<stop offset="1" stop-color="#000002"/>
</radialGradient>
<radialGradient id="paint40_radial_146_2966" cx="0" cy="0" r="1" gradientUnits="userSpaceOnUse" gradientTransform="translate(109.508 61.4588) rotate(90) scale(24.7549 6.00131)">
<stop stop-color="#8C8EA5"/>
<stop offset="1" stop-color="#000002"/>
</radialGradient>
<radialGradient id="paint41_radial_146_2966" cx="0" cy="0" r="1" gradientUnits="userSpaceOnUse" gradientTransform="translate(124.042 49.2719) rotate(90) scale(23.0591 17.5862)">
<stop stop-color="#8C8EA5"/>
<stop offset="1" stop-color="#000002"/>
</radialGradient>
<radialGradient id="paint42_radial_146_2966" cx="0" cy="0" r="1" gradientUnits="userSpaceOnUse" gradientTransform="translate(128.524 52.3939) rotate(90) scale(23.2493 21.1788)">
<stop stop-color="#8C8EA5"/>
<stop offset="1" stop-color="#000002"/>
</radialGradient>
<radialGradient id="paint43_radial_146_2966" cx="0" cy="0" r="1" gradientUnits="userSpaceOnUse" gradientTransform="translate(120.972 53.6934) rotate(90) scale(27.4808 11.6045)">
<stop stop-color="#8C8EA5"/>
<stop offset="1" stop-color="#000002"/>
</radialGradient>
<radialGradient id="paint44_radial_146_2966" cx="0" cy="0" r="1" gradientUnits="userSpaceOnUse" gradientTransform="translate(117.659 56.3247) rotate(90) scale(116.072 3351.37)">
<stop stop-color="#000002" stop-opacity="0"/>
<stop offset="1" stop-color="#000002"/>
</radialGradient>
<radialGradient id="paint45_radial_146_2966" cx="0" cy="0" r="1" gradientUnits="userSpaceOnUse" gradientTransform="translate(70.2994 60.9839) rotate(90) scale(87.3078 12.2898)">
<stop stop-color="#8C8EA5"/>
<stop offset="1" stop-color="#000002"/>
</radialGradient>
<linearGradient id="paint46_linear_146_2966" x1="86.9834" y1="61.9276" x2="86.9834" y2="173.792" gradientUnits="userSpaceOnUse">
<stop stop-color="#8C8EA5"/>
<stop offset="1" stop-color="#8C8EA5" stop-opacity="0"/>
</linearGradient>
<radialGradient id="paint47_radial_146_2966" cx="0" cy="0" r="1" gradientUnits="userSpaceOnUse" gradientTransform="translate(137.337 62.9802) rotate(90) scale(115.026 43.474)">
<stop stop-color="#8C8EA5"/>
<stop offset="1" stop-color="#000002"/>
</radialGradient>
<linearGradient id="paint48_linear_146_2966" x1="187.394" y1="76.7294" x2="187.394" y2="188.593" gradientUnits="userSpaceOnUse">
<stop stop-color="#8C8EA5"/>
<stop offset="1" stop-color="#8C8EA5" stop-opacity="0"/>
</linearGradient>
<radialGradient id="paint49_radial_146_2966" cx="0" cy="0" r="1" gradientUnits="userSpaceOnUse" gradientTransform="translate(124.7 72.87) rotate(90) scale(100.494 5.44925)">
<stop stop-color="#8C8EA5"/>
<stop offset="1" stop-color="#000002"/>
</radialGradient>
<linearGradient id="paint50_linear_146_2966" x1="131.756" y1="67.2841" x2="131.756" y2="179.148" gradientUnits="userSpaceOnUse">
<stop stop-color="#8C8EA5"/>
<stop offset="1" stop-color="#8C8EA5" stop-opacity="0"/>
</linearGradient>
<radialGradient id="paint51_radial_146_2966" cx="0" cy="0" r="1" gradientUnits="userSpaceOnUse" gradientTransform="translate(83.2521 84.5984) rotate(90) scale(114.868 47.6828)">
<stop stop-color="#8C8EA5"/>
<stop offset="1" stop-color="#000002"/>
</radialGradient>
</defs>
</svg>
