<svg width="229" height="213" viewBox="0 0 229 213" fill="none" xmlns="http://www.w3.org/2000/svg">
<rect y="2.85254" width="229" height="152.143" fill="url(#paint0_radial_146_2778)"/>
<path d="M78.022 150.161L84.2052 156.544C84.3847 156.729 84.901 156.83 85.3918 156.776C85.8222 156.728 86.098 156.577 86.1029 156.415C86.1043 156.367 86.1021 44.4886 86.1021 42.9647L82.1105 39.7106C80.8383 39.155 78.3848 36.5259 77.9695 36.5834C77.9695 40.0281 77.9695 149.919 77.9695 150.049C77.9695 150.086 77.9864 150.124 78.022 150.161Z" fill="#000002"/>
<path d="M86.0986 43.3213V155.866" stroke="url(#paint1_linear_146_2778)" stroke-width="0.8" stroke-linecap="round"/>
<path d="M77.9546 36.8452V149.39" stroke="url(#paint2_linear_146_2778)" stroke-width="0.8" stroke-linecap="round"/>
<path d="M78.0217 36.7014L84.2049 43.0846C84.3844 43.2699 84.9007 43.3707 85.3915 43.3163C85.9489 43.2546 86.247 43.0198 86.0332 42.8109L79.5486 36.4728C79.386 36.3139 78.9279 36.2335 78.5126 36.291C78.0821 36.3506 77.861 36.5355 78.0217 36.7014Z" fill="#8C8EA5"/>
<path fill-rule="evenodd" clip-rule="evenodd" d="M85.1634 47.2028L22.0725 44.917V159.501C22.0923 159.154 22.4734 158.821 23.1482 158.581C28.3089 156.745 35.5752 156.095 42.2889 156.867L85.1248 161.794L85.1634 161.796V47.2028Z" fill="#000002"/>
<path fill-rule="evenodd" clip-rule="evenodd" d="M22.1405 159.789C23.5493 162.449 28.4549 164.627 35.0625 165.526L86.9078 172.582C82.8462 169.486 81.8226 165.791 84.7987 162.226C84.9181 162.083 85.043 161.941 85.1734 161.8L42.2897 156.868C35.5761 156.095 28.3097 156.746 23.149 158.581C22.2885 158.887 21.9056 159.346 22.1405 159.789Z" fill="#CECFDB"/>
<path d="M35.1165 50.5277C31.8394 50.0817 28.9996 49.3204 26.8143 48.3502C24.6156 47.3741 23.1359 46.2119 22.494 45.0001C22.4715 44.9577 22.4709 44.9315 22.4736 44.9131C22.4769 44.8911 22.4902 44.8489 22.541 44.788C22.6493 44.6583 22.8835 44.4981 23.283 44.356C28.3743 42.5454 35.5771 41.8961 42.244 42.663L84.3752 47.5091C82.9143 49.3232 82.4105 51.2116 82.8237 53.0649C83.1653 54.5969 84.1227 56.0549 85.5839 57.3959L35.1165 50.5277Z" fill="#000002" stroke="#8C8EA5" stroke-width="0.8" stroke-linejoin="round"/>
<path fill-rule="evenodd" clip-rule="evenodd" d="M35.0624 50.9235C28.4548 50.0243 23.5492 47.8465 22.1404 45.1869C22.0967 45.1044 22.0744 45.0214 22.0725 44.939C22.0725 45.4979 22.0726 50.842 22.0727 58.9439C22.0733 89.4917 22.0745 159.245 22.073 159.526C22.0725 159.613 22.0948 159.701 22.1409 159.788C23.5498 162.447 28.4554 164.625 35.063 165.524L86.9082 172.58L86.9083 57.981C86.9053 57.98 86.9024 57.9791 86.8995 57.9781L35.0624 50.9235Z" fill="#000002"/>
<path d="M22.0725 45.1313V157.676" stroke="url(#paint3_linear_146_2778)" stroke-width="0.8" stroke-linecap="round"/>
<path d="M86.0986 57.6724V170.217" stroke="url(#paint4_linear_146_2778)" stroke-width="0.4" stroke-linecap="round"/>
<path d="M84.604 47.481L84.604 56.91" stroke="url(#paint5_linear_146_2778)" stroke-width="0.8" stroke-linecap="round"/>
<path d="M95.1647 20.903C95.2389 19.7333 96.112 18.5308 97.8118 17.4311C99.4999 16.3391 101.932 15.3984 104.95 14.7353C105.909 14.5246 107.094 14.5246 108.053 14.7353C111.072 15.3984 113.503 16.3391 115.191 17.4311C116.891 18.5308 117.764 19.7333 117.839 20.903L118.911 37.811C118.667 37.809 118.423 37.8081 118.179 37.8081C108.768 37.8081 100.202 39.2386 93.8532 41.5817L95.1647 20.903Z" fill="#000002" stroke="#8C8EA5" stroke-width="0.8" stroke-linejoin="round"/>
<path fill-rule="evenodd" clip-rule="evenodd" d="M93.4158 42.1742C93.4156 42.1782 93.4153 42.1821 93.415 42.1861L93.415 156.775C99.7606 154.324 108.513 152.808 118.179 152.808C118.567 152.808 118.953 152.811 119.338 152.816V38.2176C119.338 38.2168 119.338 38.2159 119.337 38.2151C118.953 38.2102 118.566 38.2078 118.179 38.2078C108.514 38.2078 99.7613 39.723 93.4158 42.1742ZM119.334 38.1613L119.109 34.6177C119.294 35.4259 119.301 36.2674 119.308 37.0749C119.311 37.4464 119.314 37.8107 119.334 38.1613Z" fill="#000002"/>
<path d="M93.4114 42.1152V154.66" stroke="url(#paint6_linear_146_2778)" stroke-width="0.8" stroke-linecap="round"/>
<path d="M119.334 38.2422V150.787" stroke="url(#paint7_linear_146_2778)" stroke-width="0.8" stroke-linecap="round"/>
<path fill-rule="evenodd" clip-rule="evenodd" d="M104.864 128.945C98.7716 130.283 94.9379 132.763 94.7658 135.478L93.415 156.775C99.7606 154.324 108.513 152.808 118.179 152.808C118.567 152.808 118.953 152.811 119.338 152.815L118.238 135.478C118.066 132.763 114.232 130.283 108.14 128.945C107.124 128.722 105.88 128.722 104.864 128.945Z" fill="#CECFDB"/>
<path d="M142.255 32.753L128.276 36.8372C128.276 39.9961 128.276 151.32 128.276 151.43C128.276 151.505 128.332 151.58 128.449 151.646C128.779 151.831 129.448 151.865 129.89 151.72L143.302 147.31C143.492 147.247 143.591 147.158 143.591 147.068C143.591 146.999 143.591 34.8847 143.591 32.4719C143.308 32.3328 142.609 32.6408 142.255 32.753Z" fill="#000002"/>
<path d="M143.602 32.7495V145.295" stroke="url(#paint8_linear_146_2778)" stroke-width="0.8" stroke-linecap="round"/>
<path d="M128.492 37.3218V149.867" stroke="url(#paint9_linear_146_2778)" stroke-width="0.8" stroke-linecap="round"/>
<path d="M142.258 32.2215L128.639 36.5355C128.243 36.6608 128.162 36.8827 128.452 37.0456C128.782 37.2306 129.451 37.2649 129.893 37.1195L143.305 32.7092C143.641 32.5986 143.691 32.4046 143.418 32.2705C143.134 32.1314 142.612 32.1093 142.258 32.2215Z" fill="#8C8EA5"/>
<path fill-rule="evenodd" clip-rule="evenodd" d="M206.94 36.1206C206.954 36.2267 206.934 36.3343 206.879 36.4411C205.496 39.1028 200.612 41.2878 194.013 42.1968L151.863 48.0028C151.862 48.0022 151.862 48.0016 151.862 48.001V162.601L151.863 162.603L194.013 156.797C200.612 155.888 205.496 153.703 206.879 151.042C206.922 150.959 206.943 150.877 206.945 150.795C206.949 150.484 206.946 68.3187 206.945 43.2292L206.945 41.8197C206.945 38.5796 206.945 36.5476 206.945 36.1223L206.94 36.1206Z" fill="#000002"/>
<path fill-rule="evenodd" clip-rule="evenodd" d="M134.083 39.6855C142.068 41.2598 148.508 44.0124 151.519 47.5734C151.639 47.7157 151.753 47.8581 151.861 48.0008V162.601C151.753 162.458 151.64 162.316 151.519 162.174C148.508 158.613 142.068 155.86 134.083 154.286L134.083 39.6937L134.124 39.6937C134.11 39.691 134.097 39.6883 134.083 39.6855V39.6855Z" fill="#000002"/>
<path d="M206.957 36.5273V149.072" stroke="url(#paint10_linear_146_2778)" stroke-width="0.8" stroke-linecap="round"/>
<path d="M152.063 47.7666V160.312" stroke="url(#paint11_linear_146_2778)" stroke-width="0.8" stroke-linecap="round"/>
<path d="M134.094 39.9561V152.501" stroke="url(#paint12_linear_146_2778)" stroke-width="0.8" stroke-linecap="round"/>
<path d="M186.746 33.9467C193.406 33.17 200.615 33.8087 205.724 35.612C206.125 35.7535 206.362 35.9137 206.473 36.0442C206.524 36.1056 206.538 36.1484 206.542 36.1709C206.545 36.1896 206.545 36.2154 206.523 36.2571C205.894 37.4684 204.426 38.6322 202.238 39.6114C200.062 40.5846 197.23 41.35 193.957 41.8008L152.037 47.5753C151.968 47.4886 151.897 47.402 151.824 47.3157L151.519 47.5739L151.824 47.3157C150.265 45.4716 147.843 43.8627 144.829 42.5196C142.415 41.4437 139.605 40.5313 136.523 39.8042L186.746 33.9467Z" fill="#000002" stroke="#8C8EA5" stroke-width="0.8" stroke-linejoin="round"/>
<path d="M173.956 55.1714L163.995 52.9332C161.849 52.1872 157.712 51.3012 157.397 51.457C157.397 54.5047 157.396 165.976 157.397 166.059C157.399 166.183 157.558 166.305 157.852 166.378L172.699 170.032C173.071 170.124 173.564 170.085 173.813 169.944C173.91 169.889 173.956 169.826 173.956 169.764C173.956 169.661 173.956 57.616 173.956 55.1714Z" fill="#000002"/>
<path d="M173.945 55.4487V167.994" stroke="url(#paint13_linear_146_2778)" stroke-width="0.8" stroke-linecap="round"/>
<path d="M157.407 51.8301V164.375" stroke="url(#paint14_linear_146_2778)" stroke-width="0.8" stroke-linecap="round"/>
<path d="M173.589 54.8991L158.917 51.1396C158.491 51.0304 157.921 51.0664 157.606 51.2221C157.248 51.399 157.362 51.6569 157.852 51.7773L172.699 55.4317C173.071 55.5233 173.564 55.4841 173.813 55.343C174.071 55.1968 173.97 54.9968 173.589 54.8991Z" fill="#8C8EA5"/>
<path d="M124.627 137.116C125.165 136.262 125.877 135.689 126.343 135.738C126.343 136.942 126.343 156.103 126.343 156.224C126.342 156.252 126.333 156.28 126.313 156.308L121.187 163.714C121.062 163.894 120.583 164.001 120.117 163.953C119.731 163.913 119.475 163.778 119.47 163.631C119.469 163.6 119.469 143.202 119.469 143.139L124.627 137.116Z" fill="url(#paint15_radial_146_2778)"/>
<path d="M124.625 135.649C124.75 135.469 125.228 135.362 125.694 135.411C126.16 135.459 126.436 135.644 126.311 135.824L121.185 143.23C121.06 143.411 120.582 143.518 120.116 143.469C119.65 143.421 119.374 143.236 119.498 143.055L124.625 135.649Z" fill="#CECFDB"/>
<path d="M103.313 157.481C103.234 157.428 103.196 157.37 103.196 157.313C103.196 156.119 103.196 139.668 103.196 136.832C103.613 136.738 106.543 138.588 106.784 138.749L114.845 143.472C114.845 143.836 114.845 163.377 114.845 163.954C114.843 164.07 114.686 164.182 114.409 164.244C113.991 164.337 113.457 164.282 113.216 164.12L103.313 157.481Z" fill="url(#paint16_radial_146_2778)"/>
<path d="M103.312 136.996C103.07 136.835 103.214 136.628 103.631 136.535C104.049 136.441 104.583 136.497 104.824 136.658L114.727 143.298C114.968 143.46 114.825 143.667 114.408 143.76C113.99 143.853 113.456 143.798 113.215 143.636L103.312 136.996Z" fill="#CECFDB"/>
<path d="M90.6932 164.264C90.3021 164.224 90.0446 164.087 90.0459 163.937C90.0462 163.908 90.0472 143.614 90.0472 143.456C90.172 143.276 94.6575 143.915 95.1233 143.963L110.924 145.437C110.924 145.738 110.924 165.659 110.924 165.928C110.923 165.955 110.913 165.983 110.895 166.01C110.77 166.19 110.291 166.297 109.825 166.249L90.6932 164.264Z" fill="url(#paint17_radial_146_2778)"/>
<path d="M90.6953 143.785C90.2296 143.737 89.9532 143.552 90.078 143.371C90.2028 143.191 90.6815 143.084 91.1473 143.132L110.279 145.117C110.745 145.165 111.022 145.35 110.897 145.531C110.772 145.711 110.293 145.818 109.827 145.77L90.6953 143.785Z" fill="#CECFDB"/>
<path d="M94.1724 172.522C93.7549 172.615 93.2209 172.56 92.9798 172.398C92.9039 172.347 92.8661 172.292 92.8629 172.237C92.856 172.117 92.8629 152.221 92.8629 151.745L110.453 148.132C110.87 148.038 111.521 147.748 111.762 147.91C111.762 148.797 111.764 168.34 111.762 168.398C111.76 168.514 111.604 168.626 111.326 168.688L94.1724 172.522Z" fill="url(#paint18_radial_146_2778)"/>
<path d="M94.1714 152.038C93.7538 152.131 93.2198 152.076 92.9788 151.914C92.7377 151.752 92.8808 151.546 93.2983 151.452L110.452 147.619C110.869 147.525 111.403 147.581 111.644 147.742C111.885 147.904 111.742 148.111 111.325 148.204L94.1714 152.038Z" fill="#CECFDB"/>
<path d="M111.711 177.405C111.586 177.585 111.107 177.692 110.641 177.644C110.25 177.603 109.993 177.466 109.994 177.316C109.994 177.288 109.994 158.385 109.994 156.832L115.13 150.493C115.255 150.313 116.401 149.383 116.867 149.431C116.867 149.51 116.867 169.733 116.867 169.917C116.866 169.944 116.856 169.971 116.837 169.999L111.711 177.405Z" fill="url(#paint19_radial_146_2778)"/>
<path d="M111.711 156.921C111.586 157.101 111.107 157.208 110.642 157.16C110.176 157.112 109.899 156.926 110.024 156.746L115.151 149.34C115.275 149.16 115.754 149.053 116.22 149.101C116.686 149.15 116.962 149.335 116.837 149.515L111.711 156.921Z" fill="#CECFDB"/>
<path d="M139.014 141.65C139.432 141.556 143.23 140.664 143.471 140.826C143.471 141.428 143.473 161.255 143.471 161.314C143.467 161.429 143.311 161.54 143.034 161.602L125.881 165.435C125.463 165.529 124.929 165.473 124.688 165.312C124.609 165.259 124.572 165.201 124.571 165.144C124.571 165.027 124.572 145.232 124.572 144.661L139.014 141.65Z" fill="url(#paint20_radial_146_2778)"/>
<path d="M142.164 140.532C142.582 140.439 143.116 140.494 143.357 140.656C143.598 140.818 143.455 141.024 143.037 141.118L125.884 144.951C125.466 145.044 124.932 144.989 124.691 144.827C124.45 144.666 124.593 144.459 125.011 144.366L142.164 140.532Z" fill="#9EC0F4"/>
<path d="M146.292 149.114C146.292 150.731 146.295 169.448 146.292 169.598C146.292 169.626 146.282 169.655 146.262 169.683C146.137 169.863 145.659 169.97 145.193 169.922L126.061 167.938C125.673 167.898 125.417 167.762 125.414 167.614C125.413 167.584 125.414 149.098 125.414 147.133C125.817 147.022 129.109 147.371 131.018 147.735L146.292 149.114Z" fill="url(#paint21_radial_146_2778)"/>
<path d="M145.644 148.785C146.11 148.833 146.386 149.018 146.261 149.199C146.136 149.379 145.658 149.486 145.192 149.437L126.06 147.453C125.594 147.405 125.318 147.219 125.442 147.039C125.567 146.859 126.046 146.752 126.512 146.8L145.644 148.785Z" fill="#64A2FF"/>
<path d="M133.147 155.739C133.147 156.262 133.148 176.172 133.146 176.231C133.142 176.346 132.986 176.457 132.71 176.519C132.292 176.612 131.758 176.557 131.517 176.395L121.614 169.755C121.535 169.702 121.497 169.644 121.496 169.587C121.496 169.47 121.496 149.859 121.496 149.098C121.914 149.005 125.566 150.175 126.198 151.983L133.147 155.739Z" fill="url(#paint22_radial_146_2778)"/>
<path d="M133.028 155.573C133.269 155.734 133.126 155.941 132.708 156.034C132.291 156.128 131.757 156.072 131.516 155.911L121.612 149.271C121.371 149.109 121.514 148.902 121.932 148.809C122.349 148.716 122.883 148.771 123.124 148.933L133.028 155.573Z" fill="url(#paint23_linear_146_2778)"/>
<path d="M124.627 105.32C125.165 104.465 125.877 103.893 126.343 103.941C126.343 105.146 126.343 124.306 126.343 124.428C126.342 124.456 126.333 124.484 126.313 124.512L121.187 131.918C121.062 132.098 120.583 132.205 120.117 132.157C119.731 132.116 119.475 131.982 119.47 131.834C119.469 131.804 119.469 111.406 119.469 111.342L124.627 105.32Z" fill="url(#paint24_radial_146_2778)"/>
<path d="M124.625 103.853C124.75 103.673 125.228 103.566 125.694 103.614C126.16 103.662 126.436 103.848 126.311 104.028L121.185 111.434C121.06 111.614 120.582 111.721 120.116 111.673C119.65 111.625 119.374 111.439 119.498 111.259L124.625 103.853Z" fill="#CECFDB"/>
<path d="M103.313 125.684C103.234 125.631 103.196 125.573 103.196 125.516C103.196 124.323 103.196 107.872 103.196 105.035C103.613 104.942 106.543 106.791 106.784 106.953L114.845 111.676C114.845 112.04 114.845 131.581 114.845 132.158C114.843 132.274 114.686 132.386 114.409 132.448C113.991 132.541 113.457 132.486 113.216 132.324L103.313 125.684Z" fill="url(#paint25_radial_146_2778)"/>
<path d="M103.312 105.2C103.07 105.038 103.214 104.832 103.631 104.738C104.049 104.645 104.583 104.7 104.824 104.862L114.727 111.502C114.968 111.664 114.825 111.87 114.408 111.964C113.99 112.057 113.456 112.001 113.215 111.84L103.312 105.2Z" fill="#CECFDB"/>
<path d="M90.6932 132.468C90.3021 132.427 90.0446 132.29 90.0459 132.141C90.0462 132.112 90.0472 111.818 90.0472 111.659C90.172 111.479 94.6575 112.118 95.1233 112.167L110.924 113.64C110.924 113.941 110.924 133.863 110.924 134.132C110.923 134.159 110.913 134.186 110.895 134.213C110.77 134.394 110.291 134.501 109.825 134.452L90.6932 132.468Z" fill="url(#paint26_radial_146_2778)"/>
<path d="M90.6953 111.989C90.2296 111.941 89.9532 111.755 90.078 111.575C90.2028 111.395 90.6815 111.288 91.1473 111.336L110.279 113.32C110.745 113.369 111.022 113.554 110.897 113.734C110.772 113.915 110.293 114.022 109.827 113.973L90.6953 111.989Z" fill="#CECFDB"/>
<path d="M94.1724 140.725C93.7549 140.819 93.2209 140.763 92.9798 140.602C92.9039 140.551 92.8661 140.495 92.8629 140.44C92.856 140.321 92.8629 120.424 92.8629 119.949L110.453 116.335C110.87 116.242 111.521 115.952 111.762 116.113C111.762 117.001 111.764 136.543 111.762 136.601C111.76 136.717 111.604 136.83 111.326 136.892L94.1724 140.725Z" fill="url(#paint27_radial_146_2778)"/>
<path d="M94.1714 120.241C93.7538 120.335 93.2198 120.279 92.9788 120.117C92.7377 119.956 92.8808 119.749 93.2983 119.656L110.452 115.822C110.869 115.729 111.403 115.784 111.644 115.946C111.885 116.108 111.742 116.314 111.325 116.408L94.1714 120.241Z" fill="#CECFDB"/>
<path d="M111.711 145.608C111.586 145.789 111.107 145.896 110.641 145.847C110.25 145.807 109.993 145.67 109.994 145.52C109.994 145.491 109.994 126.589 109.994 125.036L115.13 118.696C115.255 118.516 116.401 117.586 116.867 117.635C116.867 117.714 116.867 137.936 116.867 138.12C116.866 138.148 116.856 138.175 116.837 138.202L111.711 145.608Z" fill="url(#paint28_radial_146_2778)"/>
<path d="M111.711 125.125C111.586 125.305 111.107 125.412 110.642 125.364C110.176 125.315 109.899 125.13 110.024 124.95L115.151 117.544C115.275 117.364 115.754 117.257 116.22 117.305C116.686 117.353 116.962 117.539 116.837 117.719L111.711 125.125Z" fill="#CECFDB"/>
<path d="M139.014 109.853C139.432 109.76 143.23 108.868 143.471 109.029C143.471 109.632 143.473 129.458 143.471 129.517C143.467 129.632 143.311 129.744 143.034 129.806L125.881 133.639C125.463 133.732 124.929 133.677 124.688 133.515C124.609 133.462 124.572 133.405 124.571 133.347C124.571 133.23 124.572 113.435 124.572 112.865L139.014 109.853Z" fill="url(#paint29_radial_146_2778)"/>
<path d="M142.164 108.736C142.582 108.643 143.116 108.698 143.357 108.86C143.598 109.021 143.455 109.228 143.037 109.321L125.884 113.155C125.466 113.248 124.932 113.193 124.691 113.031C124.45 112.869 124.593 112.663 125.011 112.569L142.164 108.736Z" fill="#9EC0F4"/>
<path d="M146.292 117.318C146.292 118.934 146.295 137.651 146.292 137.802C146.292 137.83 146.282 137.858 146.262 137.887C146.137 138.067 145.659 138.174 145.193 138.126L126.061 136.141C125.673 136.101 125.417 135.966 125.414 135.818C125.413 135.788 125.414 117.302 125.414 115.337C125.817 115.226 129.109 115.575 131.018 115.939L146.292 117.318Z" fill="url(#paint30_radial_146_2778)"/>
<path d="M145.644 116.988C146.11 117.037 146.386 117.222 146.261 117.402C146.136 117.582 145.658 117.689 145.192 117.641L126.06 115.657C125.594 115.608 125.318 115.423 125.442 115.243C125.567 115.062 126.046 114.956 126.512 115.004L145.644 116.988Z" fill="#64A2FF"/>
<path d="M133.147 123.942C133.147 124.465 133.148 144.375 133.146 144.434C133.142 144.549 132.986 144.661 132.71 144.722C132.292 144.816 131.758 144.76 131.517 144.599L121.614 137.959C121.535 137.906 121.497 137.848 121.496 137.791C121.496 137.674 121.496 118.063 121.496 117.302C121.914 117.209 125.566 118.378 126.198 120.186L133.147 123.942Z" fill="url(#paint31_radial_146_2778)"/>
<path d="M133.028 123.776C133.269 123.938 133.126 124.144 132.708 124.238C132.291 124.331 131.757 124.276 131.516 124.114L121.612 117.474C121.371 117.313 121.514 117.106 121.932 117.013C122.349 116.919 122.883 116.975 123.124 117.136L133.028 123.776Z" fill="url(#paint32_linear_146_2778)"/>
<path d="M124.627 73.5237C125.165 72.669 125.877 72.0966 126.343 72.1449C126.343 73.3494 126.343 92.5099 126.343 92.6317C126.342 92.6593 126.333 92.6874 126.313 92.7154L121.187 100.121C121.062 100.302 120.583 100.409 120.117 100.36C119.731 100.32 119.475 100.186 119.47 100.038C119.469 100.008 119.469 79.6094 119.469 79.546L124.627 73.5237Z" fill="url(#paint33_radial_146_2778)"/>
<path d="M124.625 72.0567C124.75 71.8764 125.228 71.7694 125.694 71.8178C126.16 71.8661 126.436 72.0514 126.311 72.2316L121.185 79.6375C121.06 79.8178 120.582 79.9248 120.116 79.8765C119.65 79.8282 119.374 79.6429 119.498 79.4626L124.625 72.0567Z" fill="#CECFDB"/>
<path d="M103.313 93.8877C103.234 93.8348 103.196 93.7771 103.196 93.72C103.196 92.5262 103.196 76.0756 103.196 73.2388C103.613 73.1454 106.543 74.9948 106.784 75.1564L114.845 79.8792C114.845 80.2437 114.845 99.7845 114.845 100.362C114.843 100.477 114.686 100.589 114.409 100.651C113.991 100.745 113.457 100.689 113.216 100.528L103.313 93.8877Z" fill="url(#paint34_radial_146_2778)"/>
<path d="M103.312 73.4035C103.07 73.2419 103.214 73.0352 103.631 72.9419C104.049 72.8485 104.583 72.9039 104.824 73.0656L114.727 79.7055C114.968 79.8671 114.825 80.0738 114.408 80.1671C113.99 80.2605 113.456 80.2051 113.215 80.0434L103.312 73.4035Z" fill="#CECFDB"/>
<path d="M90.6932 100.672C90.3021 100.631 90.0446 100.494 90.0459 100.344C90.0462 100.316 90.0472 80.0215 90.0472 79.863C90.172 79.6827 94.6575 80.3219 95.1233 80.3702L110.924 81.8439C110.924 82.145 110.924 102.066 110.924 102.336C110.923 102.363 110.913 102.39 110.895 102.417C110.77 102.597 110.291 102.704 109.825 102.656L90.6932 100.672Z" fill="url(#paint35_radial_146_2778)"/>
<path d="M90.6953 80.1924C90.2296 80.1441 89.9532 79.9588 90.078 79.7786C90.2028 79.5983 90.6815 79.4913 91.1473 79.5396L110.279 81.524C110.745 81.5723 111.022 81.7576 110.897 81.9379C110.772 82.1182 110.293 82.2252 109.827 82.1768L90.6953 80.1924Z" fill="#CECFDB"/>
<path d="M94.1724 108.929C93.7549 109.022 93.2209 108.967 92.9798 108.805C92.9039 108.754 92.8661 108.699 92.8629 108.644C92.856 108.525 92.8629 88.6278 92.8629 88.1524L110.453 84.539C110.87 84.4457 111.521 84.1555 111.762 84.3171C111.762 85.2046 111.764 104.747 111.762 104.805C111.76 104.921 111.604 105.033 111.326 105.095L94.1724 108.929Z" fill="url(#paint36_radial_146_2778)"/>
<path d="M94.1714 88.4448C93.7538 88.5381 93.2198 88.4827 92.9788 88.3211C92.7377 88.1595 92.8808 87.9528 93.2983 87.8595L110.452 84.0259C110.869 83.9326 111.403 83.9879 111.644 84.1496C111.885 84.3112 111.742 84.5179 111.325 84.6112L94.1714 88.4448Z" fill="#CECFDB"/>
<path d="M111.711 113.812C111.586 113.992 111.107 114.099 110.641 114.051C110.25 114.01 109.993 113.873 109.994 113.724C109.994 113.695 109.994 94.7925 109.994 93.2394L115.13 86.9001C115.255 86.7198 116.401 85.7899 116.867 85.8382C116.867 85.9175 116.867 106.14 116.867 106.324C116.866 106.351 116.856 106.379 116.837 106.406L111.711 113.812Z" fill="url(#paint37_radial_146_2778)"/>
<path d="M111.711 93.3284C111.586 93.5086 111.107 93.6156 110.642 93.5673C110.176 93.519 109.899 93.3337 110.024 93.1534L115.151 85.7475C115.275 85.5673 115.754 85.4603 116.22 85.5086C116.686 85.5569 116.962 85.7422 116.837 85.9225L111.711 93.3284Z" fill="#CECFDB"/>
<path d="M139.014 78.057C139.432 77.9637 143.23 77.0713 143.471 77.2329C143.471 77.8351 143.473 97.6619 143.471 97.7207C143.467 97.8359 143.311 97.9474 143.034 98.0091L125.881 101.843C125.463 101.936 124.929 101.881 124.688 101.719C124.609 101.666 124.572 101.608 124.571 101.551C124.571 101.434 124.572 81.6388 124.572 81.0683L139.014 78.057Z" fill="url(#paint38_radial_146_2778)"/>
<path d="M142.164 76.9395C142.582 76.8462 143.116 76.9015 143.357 77.0632C143.598 77.2248 143.455 77.4315 143.037 77.5248L125.884 81.3584C125.466 81.4517 124.932 81.3963 124.691 81.2347C124.45 81.0731 124.593 80.8664 125.011 80.773L142.164 76.9395Z" fill="#9EC0F4"/>
<path d="M146.292 85.5215C146.292 87.138 146.295 105.855 146.292 106.005C146.292 106.033 146.282 106.062 146.262 106.09C146.137 106.271 145.659 106.378 145.193 106.329L126.061 104.345C125.673 104.305 125.417 104.17 125.414 104.021C125.413 103.992 125.414 85.5057 125.414 83.5405C125.817 83.4295 129.109 83.7782 131.018 84.1427L146.292 85.5215Z" fill="url(#paint39_radial_146_2778)"/>
<path d="M145.644 85.1918C146.11 85.2401 146.386 85.4254 146.261 85.6057C146.136 85.786 145.658 85.893 145.192 85.8447L126.06 83.8603C125.594 83.812 125.318 83.6267 125.442 83.4464C125.567 83.2661 126.046 83.1591 126.512 83.2074L145.644 85.1918Z" fill="#64A2FF"/>
<path d="M133.147 92.146C133.147 92.669 133.148 112.579 133.146 112.638C133.142 112.753 132.986 112.864 132.71 112.926C132.292 113.019 131.758 112.964 131.517 112.802L121.614 106.162C121.535 106.109 121.497 106.052 121.496 105.995C121.496 105.877 121.496 86.2664 121.496 85.5057C121.914 85.4124 125.566 86.582 126.198 88.3901L133.147 92.146Z" fill="url(#paint40_radial_146_2778)"/>
<path d="M133.028 91.9798C133.269 92.1414 133.126 92.3481 132.708 92.4414C132.291 92.5348 131.757 92.4794 131.516 92.3177L121.612 85.6778C121.371 85.5162 121.514 85.3095 121.932 85.2162C122.349 85.1228 122.883 85.1782 123.124 85.3399L133.028 91.9798Z" fill="url(#paint41_linear_146_2778)"/>
<path d="M124.627 41.7273C125.165 40.8726 125.877 40.3002 126.343 40.3485C126.343 41.553 126.343 60.7135 126.343 60.8353C126.342 60.8629 126.333 60.891 126.313 60.919L121.187 68.3249C121.062 68.5051 120.583 68.6121 120.117 68.5638C119.731 68.5237 119.475 68.3892 119.47 68.2415C119.469 68.2113 119.469 47.813 119.469 47.7496L124.627 41.7273Z" fill="url(#paint42_radial_146_2778)"/>
<path d="M124.625 40.2603C124.75 40.08 125.228 39.9731 125.694 40.0214C126.16 40.0697 126.436 40.255 126.311 40.4353L121.185 47.8411C121.06 48.0214 120.582 48.1284 120.116 48.0801C119.65 48.0318 119.374 47.8465 119.498 47.6662L124.625 40.2603Z" fill="#CECFDB"/>
<path d="M103.313 62.0913C103.234 62.0384 103.196 61.9807 103.196 61.9236C103.196 60.7298 103.196 44.2792 103.196 41.4424C103.613 41.3491 106.543 43.1984 106.784 43.36L114.845 48.0828C114.845 48.4473 114.845 67.9881 114.845 68.5652C114.843 68.6809 114.686 68.793 114.409 68.855C113.991 68.9483 113.457 68.8929 113.216 68.7313L103.313 62.0913Z" fill="url(#paint43_radial_146_2778)"/>
<path d="M103.312 41.6071C103.07 41.4455 103.214 41.2388 103.631 41.1455C104.049 41.0522 104.583 41.1075 104.824 41.2692L114.727 47.9091C114.968 48.0708 114.825 48.2774 114.408 48.3708C113.99 48.4641 113.456 48.4087 113.215 48.2471L103.312 41.6071Z" fill="#CECFDB"/>
<path d="M90.6932 68.8752C90.3021 68.8346 90.0446 68.6975 90.0459 68.5478C90.0462 68.5192 90.0472 48.2251 90.0472 48.0666C90.172 47.8863 94.6575 48.5255 95.1233 48.5738L110.924 50.0475C110.924 50.3487 110.924 70.2699 110.924 70.5393C110.923 70.5662 110.913 70.5935 110.895 70.6206C110.77 70.8009 110.291 70.9079 109.825 70.8596L90.6932 68.8752Z" fill="url(#paint44_radial_146_2778)"/>
<path d="M90.6953 48.3961C90.2296 48.3478 89.9532 48.1624 90.078 47.9822C90.2028 47.8019 90.6815 47.6949 91.1473 47.7432L110.279 49.7276C110.745 49.7759 111.022 49.9612 110.897 50.1415C110.772 50.3218 110.293 50.4288 109.827 50.3805L90.6953 48.3961Z" fill="#CECFDB"/>
<path d="M94.1724 77.1325C93.7549 77.2258 93.2209 77.1705 92.9798 77.0088C92.9039 76.9579 92.8661 76.9026 92.8629 76.8477C92.856 76.7283 92.8629 56.8314 92.8629 56.356L110.453 52.7426C110.87 52.6493 111.521 52.3591 111.762 52.5207C111.762 53.4082 111.764 72.9504 111.762 73.0086C111.76 73.1245 111.604 73.2368 111.326 73.2989L94.1724 77.1325Z" fill="url(#paint45_radial_146_2778)"/>
<path d="M94.1714 56.6484C93.7538 56.7417 93.2198 56.6864 92.9788 56.5247C92.7377 56.3631 92.8808 56.1564 93.2983 56.0631L110.452 52.2295C110.869 52.1362 111.403 52.1916 111.644 52.3532C111.885 52.5148 111.742 52.7215 111.325 52.8148L94.1714 56.6484Z" fill="#CECFDB"/>
<path d="M111.711 82.0155C111.586 82.1958 111.107 82.3028 110.641 82.2545C110.25 82.2139 109.993 82.0768 109.994 81.9272C109.994 81.8986 109.994 62.9961 109.994 61.443L115.13 55.1037C115.255 54.9234 116.401 53.9935 116.867 54.0419C116.867 54.1211 116.867 74.3434 116.867 74.5277C116.866 74.5548 116.856 74.5823 116.837 74.6096L111.711 82.0155Z" fill="url(#paint46_radial_146_2778)"/>
<path d="M111.711 61.532C111.586 61.7123 111.107 61.8192 110.642 61.7709C110.176 61.7226 109.899 61.5373 110.024 61.357L115.151 53.9511C115.275 53.7709 115.754 53.6639 116.22 53.7122C116.686 53.7605 116.962 53.9458 116.837 54.1261L111.711 61.532Z" fill="#CECFDB"/>
<path d="M139.014 46.2606C139.432 46.1673 143.23 45.2749 143.471 45.4365C143.471 46.0387 143.473 65.8655 143.471 65.9244C143.467 66.0395 143.311 66.151 143.034 66.2127L125.881 70.0463C125.463 70.1396 124.929 70.0842 124.688 69.9226C124.609 69.8696 124.572 69.8118 124.571 69.7546C124.571 69.6376 124.572 49.8424 124.572 49.2719L139.014 46.2606Z" fill="url(#paint47_radial_146_2778)"/>
<path d="M142.164 45.1431C142.582 45.0498 143.116 45.1052 143.357 45.2668C143.598 45.4284 143.455 45.6351 143.037 45.7284L125.884 49.562C125.466 49.6553 124.932 49.5999 124.691 49.4383C124.45 49.2767 124.593 49.07 125.011 48.9767L142.164 45.1431Z" fill="#9EC0F4"/>
<path d="M146.292 53.7251C146.292 55.3416 146.295 74.0587 146.292 74.2089C146.292 74.237 146.282 74.2656 146.262 74.294C146.137 74.4743 145.659 74.5813 145.193 74.533L126.061 72.5486C125.673 72.5084 125.417 72.3732 125.414 72.2251C125.413 72.1952 125.414 53.7093 125.414 51.7441C125.817 51.6331 129.109 51.9818 131.018 52.3463L146.292 53.7251Z" fill="url(#paint48_radial_146_2778)"/>
<path d="M145.644 53.3954C146.11 53.4438 146.386 53.6291 146.261 53.8093C146.136 53.9896 145.658 54.0966 145.192 54.0483L126.06 52.0639C125.594 52.0156 125.318 51.8303 125.442 51.65C125.567 51.4697 126.046 51.3627 126.512 51.411L145.644 53.3954Z" fill="#64A2FF"/>
<path d="M133.147 60.3496C133.147 60.8726 133.148 80.7825 133.146 80.8414C133.142 80.9565 132.986 81.0679 132.71 81.1296C132.292 81.223 131.758 81.1676 131.517 81.0059L121.614 74.366C121.535 74.313 121.497 74.2552 121.496 74.1982C121.496 74.0811 121.496 54.47 121.496 53.7093C121.914 53.616 125.566 54.7856 126.198 56.5937L133.147 60.3496Z" fill="url(#paint49_radial_146_2778)"/>
<path d="M133.028 60.1834C133.269 60.345 133.126 60.5517 132.708 60.645C132.291 60.7384 131.757 60.683 131.516 60.5214L121.612 53.8814C121.371 53.7198 121.514 53.5131 121.932 53.4198C122.349 53.3265 122.883 53.3818 123.124 53.5435L133.028 60.1834Z" fill="url(#paint50_linear_146_2778)"/>
<rect x="89.8521" y="56.4019" width="56.6457" height="121.371" fill="url(#paint51_radial_146_2778)"/>
<path d="M71.309 176.233L86.0589 176.039C86.4871 176.033 86.8342 175.877 86.8567 175.679C86.8575 175.672 86.8578 175.665 86.8578 175.659C86.8576 175.444 86.8567 73.0294 86.8567 61.0605L70.6028 61.3145C70.6028 63.521 70.5983 175.748 70.6028 175.919C70.6075 176.097 70.9255 176.238 71.309 176.233Z" fill="#000002"/>
<path d="M86.8628 61.5127V174.058" stroke="url(#paint52_linear_146_2778)" stroke-width="0.8" stroke-linecap="round"/>
<path d="M70.6084 61.9565V174.502" stroke="url(#paint53_linear_146_2778)" stroke-width="0.8" stroke-linecap="round"/>
<path d="M71.3104 61.6318L86.0604 61.4381C86.4885 61.4325 86.8356 61.2759 86.8581 61.0782C86.8837 60.8538 86.4844 60.6682 85.9986 60.6787L71.2588 60.9977C70.8892 61.0057 70.5998 61.1475 70.6043 61.3185C70.609 61.4957 70.927 61.6368 71.3104 61.6318Z" fill="#8C8EA5"/>
<path fill-rule="evenodd" clip-rule="evenodd" d="M185.954 193.614C188.835 191.139 188.155 188.26 184.163 186.029L152.838 168.526C151.446 171.957 146.687 175.183 138.883 177.395C138.57 177.483 138.255 177.57 137.937 177.654L165.213 191.399C169.484 193.551 176.353 194.676 183.31 194.363C184.469 194.311 185.473 194.026 185.954 193.614Z" fill="#CECFDB"/>
<path opacity="0.5" fill-rule="evenodd" clip-rule="evenodd" d="M137.937 63.053L138.022 63.0302V177.63C137.994 177.638 137.965 177.646 137.937 177.653L137.937 63.061L137.953 63.061L137.937 63.053ZM138.022 177.696V177.697L137.937 177.654L137.937 177.653L138.022 177.696ZM152.844 185.165V185.166L165.213 191.399C169.484 193.551 176.353 194.676 183.31 194.363C184.469 194.31 185.473 194.026 185.954 193.613C186.731 192.945 187.249 192.248 187.513 191.542C187.249 192.248 186.731 192.945 185.954 193.613C185.473 194.025 184.469 194.31 183.31 194.362C176.353 194.676 169.484 193.55 165.213 191.399L152.844 185.165ZM187.719 190.432C187.718 189.142 187.718 117.923 187.718 88.0044L187.718 75.8872C187.746 74.319 186.544 72.7581 184.163 71.4279L152.844 53.9287V168.529L184.163 186.028C186.516 187.343 187.718 188.883 187.719 190.432Z" fill="#CECFDB"/>
<path fill-rule="evenodd" clip-rule="evenodd" d="M187.718 75.871C187.705 76.9379 187.122 78.0086 185.953 79.0126C185.473 79.4252 184.469 79.7097 183.309 79.762C176.353 80.0753 169.483 78.9502 165.213 76.7983L137.952 63.061C137.947 63.061 137.942 63.061 137.937 63.061L137.937 177.654L165.213 191.399C169.484 193.551 176.353 194.676 183.31 194.363C184.469 194.31 185.473 194.026 185.954 193.613C187.137 192.597 187.72 191.512 187.719 190.432C187.718 189.142 187.718 117.89 187.718 87.9839C187.718 81.9793 187.718 77.6414 187.718 75.8711L187.718 75.871Z" fill="#000002"/>
<path d="M187.714 76.3389V188.884" stroke="url(#paint54_linear_146_2778)" stroke-width="0.8" stroke-linecap="round"/>
<path d="M137.94 63.228V175.773" stroke="url(#paint55_linear_146_2778)" stroke-width="0.8" stroke-linecap="round"/>
<path d="M183.968 71.777C185.925 72.8706 186.976 74.0736 187.247 75.2206C187.509 76.3329 187.066 77.5302 185.693 78.7091C185.515 78.8621 185.206 79.016 184.777 79.1375C184.355 79.2571 183.846 79.3374 183.292 79.3623C176.375 79.6739 169.581 78.5512 165.393 76.4411L139.045 63.1635C142.948 62.0531 146.111 60.6852 148.482 59.1527C150.679 57.7326 152.222 56.1552 153.025 54.4883L183.968 71.777Z" fill="#000002" stroke="#8C8EA5" stroke-width="0.8" stroke-linejoin="round"/>
<path d="M126.838 187.85L131.8 181.309C131.827 181.273 131.84 181.238 131.84 181.203C131.841 181.049 131.84 68.2676 131.84 66.585C130.118 67.5533 129.721 67.6485 129.371 68.6327L125.234 73.1567C125.234 77.014 125.234 187.734 125.235 187.762C125.236 187.897 125.461 188.021 125.809 188.064C126.246 188.116 126.709 188.02 126.838 187.85Z" fill="#000002"/>
<path d="M131.832 66.8784V179.423" stroke="url(#paint56_linear_146_2778)" stroke-width="0.8" stroke-linecap="round"/>
<path d="M125.406 73.6089V186.154" stroke="url(#paint57_linear_146_2778)" stroke-width="0.8" stroke-linecap="round"/>
<path d="M126.838 73.2491L131.8 66.7076C131.944 66.5177 131.688 66.3167 131.211 66.2457C130.67 66.1651 130.068 66.2831 129.915 66.4999L125.264 73.0756C125.147 73.2405 125.388 73.4116 125.809 73.4625C126.246 73.5152 126.709 73.4191 126.838 73.2491Z" fill="#8C8EA5"/>
<path opacity="0.5" fill-rule="evenodd" clip-rule="evenodd" d="M96.5707 62.5285L96.5824 62.521V62.532V78.8525V177.157L96.569 177.153L71.0918 191.408C68.7806 192.701 67.5819 194.212 67.5439 195.735V81.2596V81.1568V81.1101C67.5819 79.5869 68.7806 78.0761 71.0918 76.783L96.569 62.528L96.5707 62.5285ZM67.5439 195.885L67.5442 195.892L67.5439 195.892V195.885Z" fill="#CECFDB"/>
<path d="M89.8715 81.7919C85.6878 83.9029 78.8956 85.0274 71.9783 84.7176C71.4242 84.6928 70.9142 84.6126 70.4921 84.4931C70.0631 84.3717 69.7539 84.2179 69.5753 84.0648C68.2005 82.886 67.755 81.6887 68.0158 80.5763C68.2846 79.4295 69.3333 78.2263 71.2885 77.1324L96.6177 62.9603C96.8706 63.0359 97.1269 63.1105 97.3864 63.184C104.691 65.2513 113.344 66.0699 121.666 65.7482L89.8715 81.7919Z" fill="#000002" stroke="#8C8EA5" stroke-width="0.8" stroke-linejoin="round"/>
<path fill-rule="evenodd" clip-rule="evenodd" d="M90.0507 82.1486C85.7841 84.3015 78.9161 85.4284 71.9595 85.1168C70.7996 85.0648 69.7952 84.7806 69.3141 84.3681C68.1409 83.3622 67.5563 82.2893 67.5437 81.2202L67.5435 81.2202C67.5435 82.5867 67.5433 87.3845 67.543 94.2944C67.5416 124.386 67.5385 194.535 67.5435 195.797C67.5477 196.874 68.1322 197.955 69.314 198.969C69.7951 199.381 70.7995 199.665 71.9595 199.717C78.916 200.029 85.784 198.902 90.0507 196.749L123.528 179.856L123.528 65.2671C123.516 65.2697 123.503 65.2723 123.49 65.2749L90.0507 82.1486Z" fill="#000002"/>
<path d="M123.535 65.6084V178.153" stroke="url(#paint58_linear_146_2778)" stroke-width="0.8" stroke-linecap="round"/>
<path d="M67.5557 81.5137V194.059" stroke="url(#paint59_linear_146_2778)" stroke-width="0.8" stroke-linecap="round"/>
<path d="M126.838 187.561L131.8 181.03C131.827 180.995 131.84 180.959 131.84 180.924C131.841 180.771 131.84 68.1711 131.84 66.4912C130.118 67.458 129.721 67.553 129.371 68.5356L125.234 73.0524C125.234 76.9035 125.234 187.445 125.235 187.473C125.236 187.608 125.461 187.732 125.809 187.774C126.246 187.827 126.709 187.731 126.838 187.561Z" fill="url(#paint60_radial_146_2778)"/>
<path d="M131.832 66.7847V179.149" stroke="url(#paint61_linear_146_2778)" stroke-width="0.8" stroke-linecap="round"/>
<path d="M126.838 73.1452L131.8 66.6142C131.944 66.4246 131.688 66.224 131.211 66.1531C130.67 66.0726 130.068 66.1904 129.915 66.4068L125.264 72.972C125.147 73.1366 125.388 73.3074 125.809 73.3582C126.246 73.4109 126.709 73.3149 126.838 73.1452Z" fill="#64A2FF"/>
<path d="M131.84 180.924C131.84 180.959 131.827 180.995 131.8 181.03L126.838 187.561C126.709 187.731 126.246 187.827 125.809 187.774C125.461 187.732 125.236 187.608 125.234 187.473" stroke="url(#paint62_linear_146_2778)" stroke-width="0.8" stroke-linecap="round"/>
<path d="M109.975 168.02L124.94 132.013" stroke="#64A2FF" stroke-width="2" stroke-linecap="round" stroke-linejoin="round"/>
<path d="M130.168 117.18C130.729 116.679 131.603 117.136 131.688 117.974L133.243 133.29C133.314 133.991 132.77 134.521 132.161 134.347L117.988 130.279C117.225 130.06 116.963 128.952 117.551 128.428L130.168 117.18Z" fill="#64A2FF"/>
<path d="M140.61 106.09C140.481 105.411 139.297 105.384 138.653 106.046L133.388 111.461C132.907 111.956 133.039 112.551 133.66 112.69L140.23 114.154C141.042 114.335 142.04 113.633 141.914 112.97L140.61 106.09Z" fill="#64A2FF"/>
<path d="M137.59 112.578C135.431 115.496 132.651 123.152 138.805 130.425" stroke="#64A2FF" stroke-width="2" stroke-linecap="round"/>
<defs>
<radialGradient id="paint0_radial_146_2778" cx="0" cy="0" r="1" gradientUnits="userSpaceOnUse" gradientTransform="translate(114.5 78.924) rotate(90) scale(76.0714 114.5)">
<stop stop-color="#347DFE"/>
<stop offset="0.229167" stop-color="#347DFE"/>
<stop offset="1" stop-color="#347DFE" stop-opacity="0"/>
</radialGradient>
<linearGradient id="paint1_linear_146_2778" x1="86.5986" y1="43.8215" x2="86.5986" y2="155.866" gradientUnits="userSpaceOnUse">
<stop stop-color="#8C8EA5"/>
<stop offset="1" stop-color="#8C8EA5" stop-opacity="0"/>
</linearGradient>
<linearGradient id="paint2_linear_146_2778" x1="78.4546" y1="37.3454" x2="78.4546" y2="149.39" gradientUnits="userSpaceOnUse">
<stop stop-color="#8C8EA5"/>
<stop offset="1" stop-color="#8C8EA5" stop-opacity="0"/>
</linearGradient>
<linearGradient id="paint3_linear_146_2778" x1="22.5725" y1="45.6315" x2="22.5725" y2="157.676" gradientUnits="userSpaceOnUse">
<stop stop-color="#8C8EA5"/>
<stop offset="1" stop-color="#8C8EA5" stop-opacity="0"/>
</linearGradient>
<linearGradient id="paint4_linear_146_2778" x1="86.5986" y1="58.1726" x2="86.5986" y2="170.217" gradientUnits="userSpaceOnUse">
<stop stop-color="#8C8EA5"/>
<stop offset="1" stop-color="#8C8EA5" stop-opacity="0"/>
</linearGradient>
<linearGradient id="paint5_linear_146_2778" x1="85.104" y1="47.5229" x2="85.104" y2="56.9099" gradientUnits="userSpaceOnUse">
<stop stop-color="#8C8EA5"/>
<stop offset="1" stop-color="#8C8EA5" stop-opacity="0"/>
</linearGradient>
<linearGradient id="paint6_linear_146_2778" x1="93.9114" y1="42.6154" x2="93.9114" y2="154.66" gradientUnits="userSpaceOnUse">
<stop stop-color="#8C8EA5"/>
<stop offset="1" stop-color="#8C8EA5" stop-opacity="0"/>
</linearGradient>
<linearGradient id="paint7_linear_146_2778" x1="119.834" y1="38.7424" x2="119.834" y2="150.787" gradientUnits="userSpaceOnUse">
<stop stop-color="#8C8EA5"/>
<stop offset="1" stop-color="#8C8EA5" stop-opacity="0"/>
</linearGradient>
<linearGradient id="paint8_linear_146_2778" x1="144.102" y1="33.2497" x2="144.102" y2="145.294" gradientUnits="userSpaceOnUse">
<stop stop-color="#8C8EA5"/>
<stop offset="1" stop-color="#8C8EA5" stop-opacity="0"/>
</linearGradient>
<linearGradient id="paint9_linear_146_2778" x1="128.992" y1="37.822" x2="128.992" y2="149.866" gradientUnits="userSpaceOnUse">
<stop stop-color="#8C8EA5"/>
<stop offset="1" stop-color="#8C8EA5" stop-opacity="0"/>
</linearGradient>
<linearGradient id="paint10_linear_146_2778" x1="207.457" y1="37.0275" x2="207.457" y2="149.072" gradientUnits="userSpaceOnUse">
<stop stop-color="#8C8EA5"/>
<stop offset="1" stop-color="#8C8EA5" stop-opacity="0"/>
</linearGradient>
<linearGradient id="paint11_linear_146_2778" x1="152.563" y1="48.2668" x2="152.563" y2="160.311" gradientUnits="userSpaceOnUse">
<stop stop-color="#8C8EA5"/>
<stop offset="1" stop-color="#8C8EA5" stop-opacity="0"/>
</linearGradient>
<linearGradient id="paint12_linear_146_2778" x1="134.594" y1="40.4563" x2="134.594" y2="152.501" gradientUnits="userSpaceOnUse">
<stop stop-color="#8C8EA5"/>
<stop offset="1" stop-color="#8C8EA5" stop-opacity="0"/>
</linearGradient>
<linearGradient id="paint13_linear_146_2778" x1="174.445" y1="55.9489" x2="174.445" y2="167.993" gradientUnits="userSpaceOnUse">
<stop stop-color="#8C8EA5"/>
<stop offset="1" stop-color="#8C8EA5" stop-opacity="0"/>
</linearGradient>
<linearGradient id="paint14_linear_146_2778" x1="157.907" y1="52.3303" x2="157.907" y2="164.375" gradientUnits="userSpaceOnUse">
<stop stop-color="#8C8EA5"/>
<stop offset="1" stop-color="#8C8EA5" stop-opacity="0"/>
</linearGradient>
<radialGradient id="paint15_radial_146_2778" cx="0" cy="0" r="1" gradientUnits="userSpaceOnUse" gradientTransform="translate(119.465 143.234) rotate(90) scale(23.0275 5.60782)">
<stop stop-color="#8C8EA5"/>
<stop offset="1" stop-color="#000002"/>
</radialGradient>
<radialGradient id="paint16_radial_146_2778" cx="0" cy="0" r="1" gradientUnits="userSpaceOnUse" gradientTransform="translate(103.185 136.816) rotate(90) scale(27.4808 11.6581)">
<stop stop-color="#8C8EA5"/>
<stop offset="1" stop-color="#000002"/>
</radialGradient>
<radialGradient id="paint17_radial_146_2778" cx="0" cy="0" r="1" gradientUnits="userSpaceOnUse" gradientTransform="translate(91.588 143.408) rotate(90) scale(32.4888 29.7032)">
<stop stop-color="#8C8EA5"/>
<stop offset="1" stop-color="#000002"/>
</radialGradient>
<radialGradient id="paint18_radial_146_2778" cx="0" cy="0" r="1" gradientUnits="userSpaceOnUse" gradientTransform="translate(92.8445 151.809) rotate(90) scale(25.5632 19.5596)">
<stop stop-color="#8C8EA5"/>
<stop offset="1" stop-color="#000002"/>
</radialGradient>
<radialGradient id="paint19_radial_146_2778" cx="0" cy="0" r="1" gradientUnits="userSpaceOnUse" gradientTransform="translate(109.989 156.848) rotate(90) scale(24.7549 6.02764)">
<stop stop-color="#8C8EA5"/>
<stop offset="1" stop-color="#000002"/>
</radialGradient>
<radialGradient id="paint20_radial_146_2778" cx="0" cy="0" r="1" gradientUnits="userSpaceOnUse" gradientTransform="translate(124.586 144.661) rotate(90) scale(23.0591 17.6633)">
<stop stop-color="#8C8EA5"/>
<stop offset="1" stop-color="#3F5F97"/>
</radialGradient>
<radialGradient id="paint21_radial_146_2778" cx="0" cy="0" r="1" gradientUnits="userSpaceOnUse" gradientTransform="translate(129.088 147.783) rotate(90) scale(23.2493 21.2717)">
<stop stop-color="#347DFE"/>
<stop offset="1" stop-color="#2353AA"/>
</radialGradient>
<radialGradient id="paint22_radial_146_2778" cx="0" cy="0" r="1" gradientUnits="userSpaceOnUse" gradientTransform="translate(121.503 149.083) rotate(90) scale(27.4808 11.6554)">
<stop stop-color="#8C8EA5"/>
<stop offset="1" stop-color="#347DFE"/>
</radialGradient>
<linearGradient id="paint23_linear_146_2778" x1="132.708" y1="156.034" x2="130.658" y2="146.859" gradientUnits="userSpaceOnUse">
<stop stop-color="#64A2FF"/>
<stop offset="1" stop-color="#DEDFE8"/>
</linearGradient>
<radialGradient id="paint24_radial_146_2778" cx="0" cy="0" r="1" gradientUnits="userSpaceOnUse" gradientTransform="translate(119.465 111.437) rotate(90) scale(23.0275 5.60782)">
<stop stop-color="#8C8EA5"/>
<stop offset="1" stop-color="#000002"/>
</radialGradient>
<radialGradient id="paint25_radial_146_2778" cx="0" cy="0" r="1" gradientUnits="userSpaceOnUse" gradientTransform="translate(103.185 105.019) rotate(90) scale(27.4808 11.6581)">
<stop stop-color="#8C8EA5"/>
<stop offset="1" stop-color="#000002"/>
</radialGradient>
<radialGradient id="paint26_radial_146_2778" cx="0" cy="0" r="1" gradientUnits="userSpaceOnUse" gradientTransform="translate(91.588 111.612) rotate(90) scale(32.4888 29.7032)">
<stop stop-color="#8C8EA5"/>
<stop offset="1" stop-color="#000002"/>
</radialGradient>
<radialGradient id="paint27_radial_146_2778" cx="0" cy="0" r="1" gradientUnits="userSpaceOnUse" gradientTransform="translate(92.8445 120.012) rotate(90) scale(25.5632 19.5596)">
<stop stop-color="#8C8EA5"/>
<stop offset="1" stop-color="#000002"/>
</radialGradient>
<radialGradient id="paint28_radial_146_2778" cx="0" cy="0" r="1" gradientUnits="userSpaceOnUse" gradientTransform="translate(109.989 125.052) rotate(90) scale(24.7549 6.02764)">
<stop stop-color="#8C8EA5"/>
<stop offset="1" stop-color="#000002"/>
</radialGradient>
<radialGradient id="paint29_radial_146_2778" cx="0" cy="0" r="1" gradientUnits="userSpaceOnUse" gradientTransform="translate(124.586 112.865) rotate(90) scale(23.0591 17.6633)">
<stop stop-color="#8C8EA5"/>
<stop offset="1" stop-color="#3F5F97"/>
</radialGradient>
<radialGradient id="paint30_radial_146_2778" cx="0" cy="0" r="1" gradientUnits="userSpaceOnUse" gradientTransform="translate(129.088 115.987) rotate(90) scale(23.2493 21.2717)">
<stop stop-color="#347DFE"/>
<stop offset="1" stop-color="#2353AA"/>
</radialGradient>
<radialGradient id="paint31_radial_146_2778" cx="0" cy="0" r="1" gradientUnits="userSpaceOnUse" gradientTransform="translate(121.503 117.286) rotate(90) scale(27.4808 11.6554)">
<stop stop-color="#8C8EA5"/>
<stop offset="1" stop-color="#347DFE"/>
</radialGradient>
<linearGradient id="paint32_linear_146_2778" x1="132.708" y1="124.238" x2="130.658" y2="115.062" gradientUnits="userSpaceOnUse">
<stop stop-color="#64A2FF"/>
<stop offset="1" stop-color="#DEDFE8"/>
</linearGradient>
<radialGradient id="paint33_radial_146_2778" cx="0" cy="0" r="1" gradientUnits="userSpaceOnUse" gradientTransform="translate(119.465 79.6411) rotate(90) scale(23.0275 5.60782)">
<stop stop-color="#8C8EA5"/>
<stop offset="1" stop-color="#000002"/>
</radialGradient>
<radialGradient id="paint34_radial_146_2778" cx="0" cy="0" r="1" gradientUnits="userSpaceOnUse" gradientTransform="translate(103.185 73.2229) rotate(90) scale(27.4808 11.6581)">
<stop stop-color="#8C8EA5"/>
<stop offset="1" stop-color="#000002"/>
</radialGradient>
<radialGradient id="paint35_radial_146_2778" cx="0" cy="0" r="1" gradientUnits="userSpaceOnUse" gradientTransform="translate(91.588 79.8155) rotate(90) scale(32.4888 29.7032)">
<stop stop-color="#8C8EA5"/>
<stop offset="1" stop-color="#000002"/>
</radialGradient>
<radialGradient id="paint36_radial_146_2778" cx="0" cy="0" r="1" gradientUnits="userSpaceOnUse" gradientTransform="translate(92.8445 88.2158) rotate(90) scale(25.5632 19.5596)">
<stop stop-color="#8C8EA5"/>
<stop offset="1" stop-color="#000002"/>
</radialGradient>
<radialGradient id="paint37_radial_146_2778" cx="0" cy="0" r="1" gradientUnits="userSpaceOnUse" gradientTransform="translate(109.989 93.2552) rotate(90) scale(24.7549 6.02764)">
<stop stop-color="#8C8EA5"/>
<stop offset="1" stop-color="#000002"/>
</radialGradient>
<radialGradient id="paint38_radial_146_2778" cx="0" cy="0" r="1" gradientUnits="userSpaceOnUse" gradientTransform="translate(124.586 81.0683) rotate(90) scale(23.0591 17.6633)">
<stop stop-color="#8C8EA5"/>
<stop offset="1" stop-color="#3F5F97"/>
</radialGradient>
<radialGradient id="paint39_radial_146_2778" cx="0" cy="0" r="1" gradientUnits="userSpaceOnUse" gradientTransform="translate(129.088 84.1903) rotate(90) scale(23.2493 21.2717)">
<stop stop-color="#347DFE"/>
<stop offset="1" stop-color="#2353AA"/>
</radialGradient>
<radialGradient id="paint40_radial_146_2778" cx="0" cy="0" r="1" gradientUnits="userSpaceOnUse" gradientTransform="translate(121.503 85.4897) rotate(90) scale(27.4808 11.6554)">
<stop stop-color="#8C8EA5"/>
<stop offset="1" stop-color="#347DFE"/>
</radialGradient>
<linearGradient id="paint41_linear_146_2778" x1="132.708" y1="92.4414" x2="130.658" y2="83.266" gradientUnits="userSpaceOnUse">
<stop stop-color="#64A2FF"/>
<stop offset="1" stop-color="#DEDFE8"/>
</linearGradient>
<radialGradient id="paint42_radial_146_2778" cx="0" cy="0" r="1" gradientUnits="userSpaceOnUse" gradientTransform="translate(119.465 47.8447) rotate(90) scale(23.0275 5.60782)">
<stop stop-color="#8C8EA5"/>
<stop offset="1" stop-color="#000002"/>
</radialGradient>
<radialGradient id="paint43_radial_146_2778" cx="0" cy="0" r="1" gradientUnits="userSpaceOnUse" gradientTransform="translate(103.185 41.4266) rotate(90) scale(27.4808 11.6581)">
<stop stop-color="#8C8EA5"/>
<stop offset="1" stop-color="#000002"/>
</radialGradient>
<radialGradient id="paint44_radial_146_2778" cx="0" cy="0" r="1" gradientUnits="userSpaceOnUse" gradientTransform="translate(91.588 48.0191) rotate(90) scale(32.4888 29.7032)">
<stop stop-color="#8C8EA5"/>
<stop offset="1" stop-color="#000002"/>
</radialGradient>
<radialGradient id="paint45_radial_146_2778" cx="0" cy="0" r="1" gradientUnits="userSpaceOnUse" gradientTransform="translate(92.8445 56.4194) rotate(90) scale(25.5632 19.5596)">
<stop stop-color="#8C8EA5"/>
<stop offset="1" stop-color="#000002"/>
</radialGradient>
<radialGradient id="paint46_radial_146_2778" cx="0" cy="0" r="1" gradientUnits="userSpaceOnUse" gradientTransform="translate(109.989 61.4588) rotate(90) scale(24.7549 6.02764)">
<stop stop-color="#8C8EA5"/>
<stop offset="1" stop-color="#000002"/>
</radialGradient>
<radialGradient id="paint47_radial_146_2778" cx="0" cy="0" r="1" gradientUnits="userSpaceOnUse" gradientTransform="translate(124.586 49.2719) rotate(90) scale(23.0591 17.6633)">
<stop stop-color="#8C8EA5"/>
<stop offset="1" stop-color="#3F5F97"/>
</radialGradient>
<radialGradient id="paint48_radial_146_2778" cx="0" cy="0" r="1" gradientUnits="userSpaceOnUse" gradientTransform="translate(129.088 52.3939) rotate(90) scale(23.2493 21.2717)">
<stop stop-color="#347DFE"/>
<stop offset="1" stop-color="#2353AA"/>
</radialGradient>
<radialGradient id="paint49_radial_146_2778" cx="0" cy="0" r="1" gradientUnits="userSpaceOnUse" gradientTransform="translate(121.503 53.6934) rotate(90) scale(27.4808 11.6554)">
<stop stop-color="#8C8EA5"/>
<stop offset="1" stop-color="#347DFE"/>
</radialGradient>
<linearGradient id="paint50_linear_146_2778" x1="132.708" y1="60.645" x2="130.658" y2="51.4696" gradientUnits="userSpaceOnUse">
<stop stop-color="#64A2FF"/>
<stop offset="1" stop-color="#DEDFE8"/>
</linearGradient>
<radialGradient id="paint51_radial_146_2778" cx="0" cy="0" r="1" gradientUnits="userSpaceOnUse" gradientTransform="translate(118.175 56.4019) rotate(90) scale(116.26 3366.07)">
<stop stop-color="#000002" stop-opacity="0"/>
<stop offset="1" stop-color="#000002"/>
</radialGradient>
<linearGradient id="paint52_linear_146_2778" x1="87.3628" y1="62.0129" x2="87.3628" y2="174.057" gradientUnits="userSpaceOnUse">
<stop stop-color="#8C8EA5"/>
<stop offset="1" stop-color="#8C8EA5" stop-opacity="0"/>
</linearGradient>
<linearGradient id="paint53_linear_146_2778" x1="71.1084" y1="62.4567" x2="71.1084" y2="174.501" gradientUnits="userSpaceOnUse">
<stop stop-color="#8C8EA5"/>
<stop offset="1" stop-color="#8C8EA5" stop-opacity="0"/>
</linearGradient>
<linearGradient id="paint54_linear_146_2778" x1="188.214" y1="76.8391" x2="188.214" y2="188.884" gradientUnits="userSpaceOnUse">
<stop stop-color="#8C8EA5"/>
<stop offset="1" stop-color="#8C8EA5" stop-opacity="0"/>
</linearGradient>
<linearGradient id="paint55_linear_146_2778" x1="138.44" y1="63.7282" x2="138.44" y2="175.773" gradientUnits="userSpaceOnUse">
<stop stop-color="#8C8EA5"/>
<stop offset="1" stop-color="#8C8EA5" stop-opacity="0"/>
</linearGradient>
<linearGradient id="paint56_linear_146_2778" x1="132.332" y1="67.3786" x2="132.332" y2="179.423" gradientUnits="userSpaceOnUse">
<stop stop-color="#8C8EA5"/>
<stop offset="1" stop-color="#8C8EA5" stop-opacity="0"/>
</linearGradient>
<linearGradient id="paint57_linear_146_2778" x1="125.906" y1="74.1091" x2="125.906" y2="186.154" gradientUnits="userSpaceOnUse">
<stop stop-color="#8C8EA5"/>
<stop offset="1" stop-color="#8C8EA5" stop-opacity="0"/>
</linearGradient>
<linearGradient id="paint58_linear_146_2778" x1="124.035" y1="66.1086" x2="124.035" y2="178.153" gradientUnits="userSpaceOnUse">
<stop stop-color="#8C8EA5"/>
<stop offset="1" stop-color="#8C8EA5" stop-opacity="0"/>
</linearGradient>
<linearGradient id="paint59_linear_146_2778" x1="68.0557" y1="82.0139" x2="68.0557" y2="194.058" gradientUnits="userSpaceOnUse">
<stop stop-color="#8C8EA5"/>
<stop offset="1" stop-color="#8C8EA5" stop-opacity="0"/>
</linearGradient>
<radialGradient id="paint60_radial_146_2778" cx="0" cy="0" r="1" gradientUnits="userSpaceOnUse" gradientTransform="translate(125.247 72.87) rotate(90) scale(100.494 5.47315)">
<stop stop-color="#347DFE"/>
<stop offset="1" stop-color="#2353AA"/>
</radialGradient>
<linearGradient id="paint61_linear_146_2778" x1="132.332" y1="67.2841" x2="132.332" y2="179.148" gradientUnits="userSpaceOnUse">
<stop stop-color="#64A2FF"/>
<stop offset="1" stop-color="#64A2FF" stop-opacity="0"/>
</linearGradient>
<linearGradient id="paint62_linear_146_2778" x1="125.247" y1="187.789" x2="131.831" y2="187.789" gradientUnits="userSpaceOnUse">
<stop stop-color="#64A2FF"/>
<stop offset="1" stop-color="#64A2FF" stop-opacity="0"/>
</linearGradient>
</defs>
</svg>
