<svg width="229" height="213" viewBox="0 0 229 213" fill="none" xmlns="http://www.w3.org/2000/svg">
<rect y="2.85254" width="229" height="152.143" fill="url(#paint0_radial_146_2572)"/>
<path d="M78.022 150.161L84.2052 156.544C84.3847 156.729 84.901 156.83 85.3918 156.776C85.8222 156.728 86.098 156.577 86.1029 156.415C86.1043 156.367 86.1021 44.4886 86.1021 42.9647L82.1105 39.7106C80.8383 39.155 78.3848 36.5259 77.9695 36.5834C77.9695 40.0281 77.9695 149.919 77.9695 150.049C77.9695 150.086 77.9864 150.124 78.022 150.161Z" fill="#000002"/>
<path d="M86.0986 43.3213V155.866" stroke="url(#paint1_linear_146_2572)" stroke-width="0.8" stroke-linecap="round"/>
<path d="M77.9546 36.8452V149.39" stroke="url(#paint2_linear_146_2572)" stroke-width="0.8" stroke-linecap="round"/>
<path d="M78.022 36.7014L84.2051 43.0846C84.3846 43.2699 84.9009 43.3707 85.3918 43.3163C85.9491 43.2546 86.2472 43.0198 86.0335 42.8109L79.5488 36.4728C79.3862 36.3139 78.9281 36.2335 78.5129 36.291C78.0823 36.3506 77.8612 36.5355 78.022 36.7014Z" fill="#8C8EA5"/>
<path fill-rule="evenodd" clip-rule="evenodd" d="M85.1634 47.2028L22.0725 44.917V159.501C22.0923 159.154 22.4734 158.821 23.1482 158.581C28.3089 156.745 35.5752 156.095 42.2889 156.867L85.1248 161.794L85.1634 161.796V47.2028Z" fill="#000002"/>
<path fill-rule="evenodd" clip-rule="evenodd" d="M22.1405 159.789C23.5493 162.449 28.4549 164.627 35.0625 165.526L86.9078 172.582C82.8462 169.486 81.8226 165.791 84.7987 162.226C84.9181 162.083 85.043 161.941 85.1734 161.8L42.2897 156.868C35.5761 156.095 28.3097 156.746 23.149 158.581C22.2885 158.887 21.9056 159.346 22.1405 159.789Z" fill="#CECFDB"/>
<path d="M35.1165 50.5277C31.8394 50.0817 28.9996 49.3204 26.8143 48.3502C24.6156 47.3741 23.1359 46.2119 22.494 45.0001C22.4715 44.9577 22.4709 44.9315 22.4736 44.9131C22.4769 44.8911 22.4902 44.8489 22.541 44.788C22.6493 44.6583 22.8835 44.4981 23.283 44.356C28.3743 42.5454 35.5771 41.8961 42.244 42.663L84.3752 47.5091C82.9143 49.3232 82.4105 51.2116 82.8237 53.0649C83.1653 54.5969 84.1227 56.0549 85.5839 57.3959L35.1165 50.5277Z" fill="#000002" stroke="#8C8EA5" stroke-width="0.8" stroke-linejoin="round"/>
<path fill-rule="evenodd" clip-rule="evenodd" d="M35.0624 50.9235C28.4548 50.0243 23.5492 47.8465 22.1404 45.1869C22.0967 45.1044 22.0744 45.0214 22.0725 44.939C22.0725 45.4979 22.0726 50.842 22.0727 58.9439C22.0733 89.4917 22.0745 159.245 22.073 159.526C22.0725 159.613 22.0948 159.701 22.1409 159.788C23.5498 162.447 28.4554 164.625 35.063 165.524L86.9082 172.58L86.9082 57.981C86.9053 57.98 86.9024 57.9791 86.8995 57.9781L35.0624 50.9235Z" fill="#000002"/>
<path d="M22.0725 45.1313V157.676" stroke="url(#paint3_linear_146_2572)" stroke-width="0.8" stroke-linecap="round"/>
<path d="M86.0986 57.6724V170.217" stroke="url(#paint4_linear_146_2572)" stroke-width="0.4" stroke-linecap="round"/>
<path d="M84.604 47.481L84.604 56.91" stroke="url(#paint5_linear_146_2572)" stroke-width="0.8" stroke-linecap="round"/>
<path d="M95.165 20.903C95.2392 19.7333 96.1123 18.5308 97.8121 17.4311C99.5001 16.3391 101.932 15.3984 104.95 14.7353C105.909 14.5246 107.094 14.5246 108.054 14.7353C111.072 15.3984 113.504 16.3391 115.192 17.4311C116.892 18.5308 117.765 19.7333 117.839 20.903L118.911 37.811C118.668 37.809 118.423 37.8081 118.179 37.8081C108.768 37.8081 100.202 39.2386 93.8535 41.5817L95.165 20.903Z" fill="#000002" stroke="#8C8EA5" stroke-width="0.8" stroke-linejoin="round"/>
<path fill-rule="evenodd" clip-rule="evenodd" d="M93.4158 42.1742C93.4156 42.1782 93.4153 42.1821 93.415 42.1861L93.415 156.775C99.7606 154.324 108.513 152.808 118.179 152.808C118.567 152.808 118.953 152.811 119.338 152.816V38.2176C119.338 38.2168 119.338 38.2159 119.337 38.2151C118.953 38.2102 118.566 38.2078 118.179 38.2078C108.514 38.2078 99.7613 39.723 93.4158 42.1742ZM119.334 38.1613L119.109 34.6177C119.294 35.4259 119.301 36.2674 119.308 37.0749C119.311 37.4464 119.314 37.8107 119.334 38.1613Z" fill="#000002"/>
<path d="M93.4114 42.1152V154.66" stroke="url(#paint6_linear_146_2572)" stroke-width="0.8" stroke-linecap="round"/>
<path d="M119.334 38.2422V150.787" stroke="url(#paint7_linear_146_2572)" stroke-width="0.8" stroke-linecap="round"/>
<path fill-rule="evenodd" clip-rule="evenodd" d="M104.864 128.945C98.7716 130.283 94.9379 132.763 94.7658 135.478L93.415 156.775C99.7606 154.324 108.513 152.808 118.179 152.808C118.567 152.808 118.953 152.811 119.338 152.815L118.238 135.478C118.066 132.763 114.232 130.283 108.14 128.945C107.124 128.722 105.88 128.722 104.864 128.945Z" fill="#CECFDB"/>
<path d="M142.255 32.753L128.276 36.8372C128.276 39.9961 128.276 151.32 128.276 151.43C128.276 151.505 128.332 151.58 128.449 151.646C128.779 151.831 129.448 151.865 129.89 151.72L143.302 147.31C143.492 147.247 143.591 147.158 143.591 147.068C143.591 146.999 143.591 34.8847 143.591 32.4719C143.308 32.3328 142.609 32.6408 142.255 32.753Z" fill="#000002"/>
<path d="M143.602 32.7495V145.295" stroke="url(#paint8_linear_146_2572)" stroke-width="0.8" stroke-linecap="round"/>
<path d="M128.492 37.3218V149.867" stroke="url(#paint9_linear_146_2572)" stroke-width="0.8" stroke-linecap="round"/>
<path d="M142.258 32.2215L128.639 36.5355C128.243 36.6608 128.162 36.8827 128.452 37.0456C128.782 37.2306 129.451 37.2649 129.893 37.1195L143.305 32.7092C143.641 32.5986 143.691 32.4046 143.418 32.2705C143.134 32.1314 142.612 32.1093 142.258 32.2215Z" fill="#8C8EA5"/>
<path fill-rule="evenodd" clip-rule="evenodd" d="M206.94 36.1206C206.954 36.2267 206.934 36.3343 206.879 36.4411C205.496 39.1028 200.612 41.2878 194.013 42.1968L151.863 48.0028C151.862 48.0022 151.862 48.0016 151.862 48.001V162.601L151.863 162.603L194.013 156.797C200.612 155.888 205.496 153.703 206.879 151.042C206.922 150.96 206.943 150.877 206.945 150.795C206.949 150.484 206.946 68.3187 206.945 43.2292L206.945 41.8197C206.945 38.5796 206.945 36.5476 206.945 36.1223L206.94 36.1206Z" fill="#000002"/>
<path fill-rule="evenodd" clip-rule="evenodd" d="M134.083 39.6855C142.068 41.2598 148.508 44.0124 151.519 47.5734C151.639 47.7157 151.753 47.8581 151.861 48.0008V162.601C151.753 162.458 151.64 162.316 151.519 162.174C148.508 158.613 142.068 155.86 134.083 154.286L134.083 39.6937L134.124 39.6937C134.11 39.691 134.097 39.6883 134.083 39.6855V39.6855Z" fill="#000002"/>
<path d="M206.957 36.5273V149.072" stroke="url(#paint10_linear_146_2572)" stroke-width="0.8" stroke-linecap="round"/>
<path d="M152.063 47.7666V160.312" stroke="url(#paint11_linear_146_2572)" stroke-width="0.8" stroke-linecap="round"/>
<path d="M134.094 39.9561V152.501" stroke="url(#paint12_linear_146_2572)" stroke-width="0.8" stroke-linecap="round"/>
<path d="M186.747 33.9467C193.406 33.17 200.615 33.8087 205.724 35.612C206.125 35.7535 206.362 35.9137 206.473 36.0442C206.524 36.1056 206.538 36.1484 206.542 36.1709C206.545 36.1896 206.545 36.2154 206.523 36.2571C205.894 37.4684 204.426 38.6322 202.238 39.6114C200.062 40.5846 197.23 41.35 193.958 41.8008L152.037 47.5753C151.968 47.4886 151.897 47.402 151.824 47.3157L151.519 47.5739L151.824 47.3157C150.265 45.4716 147.843 43.8627 144.829 42.5196C142.415 41.4437 139.605 40.5313 136.523 39.8042L186.747 33.9467Z" fill="#000002" stroke="#8C8EA5" stroke-width="0.8" stroke-linejoin="round"/>
<path d="M173.956 55.1714L163.995 52.9332C161.849 52.1872 157.712 51.3012 157.397 51.457C157.397 54.5047 157.396 165.976 157.397 166.059C157.399 166.183 157.558 166.305 157.852 166.378L172.699 170.032C173.071 170.124 173.564 170.085 173.813 169.944C173.91 169.889 173.956 169.826 173.956 169.764C173.956 169.661 173.956 57.616 173.956 55.1714Z" fill="#000002"/>
<path d="M173.945 55.4487V167.994" stroke="url(#paint13_linear_146_2572)" stroke-width="0.8" stroke-linecap="round"/>
<path d="M157.408 51.8301V164.375" stroke="url(#paint14_linear_146_2572)" stroke-width="0.8" stroke-linecap="round"/>
<path d="M173.589 54.8991L158.917 51.1396C158.491 51.0304 157.921 51.0664 157.606 51.2221C157.248 51.399 157.362 51.6569 157.852 51.7773L172.699 55.4317C173.071 55.5233 173.564 55.4841 173.813 55.343C174.071 55.1968 173.97 54.9968 173.589 54.8991Z" fill="#8C8EA5"/>
<path d="M124.627 137.698C125.165 136.842 125.877 136.269 126.343 136.317C126.343 137.524 126.343 156.715 126.343 156.837C126.342 156.865 126.333 156.893 126.313 156.921L121.187 164.339C121.062 164.519 120.583 164.626 120.117 164.578C119.731 164.538 119.475 164.403 119.47 164.255C119.469 164.225 119.469 143.794 119.469 143.73L124.627 137.698Z" fill="url(#paint15_radial_146_2572)"/>
<path d="M124.625 136.229C124.75 136.048 125.228 135.941 125.694 135.989C126.16 136.038 126.436 136.223 126.311 136.404L121.185 143.822C121.06 144.002 120.582 144.109 120.116 144.061C119.65 144.013 119.374 143.827 119.498 143.646L124.625 136.229Z" fill="#CECFDB"/>
<path d="M103.313 158.095C103.234 158.042 103.196 157.984 103.196 157.927C103.196 156.731 103.196 140.254 103.196 137.413C103.613 137.319 106.543 139.171 106.784 139.333L114.845 144.064C114.845 144.429 114.845 164.001 114.845 164.579C114.843 164.695 114.686 164.807 114.409 164.869C113.991 164.963 113.457 164.907 113.216 164.746L103.313 158.095Z" fill="url(#paint16_radial_146_2572)"/>
<path d="M103.312 137.578C103.07 137.416 103.214 137.209 103.631 137.115C104.049 137.022 104.583 137.077 104.824 137.239L114.727 143.89C114.968 144.052 114.825 144.259 114.408 144.352C113.99 144.446 113.456 144.39 113.215 144.228L103.312 137.578Z" fill="#CECFDB"/>
<path d="M90.6932 164.89C90.3021 164.849 90.0446 164.712 90.0459 164.562C90.0462 164.533 90.0472 144.206 90.0472 144.048C90.172 143.867 94.6575 144.507 95.1233 144.556L110.924 146.032C110.924 146.333 110.924 166.287 110.924 166.557C110.923 166.583 110.913 166.611 110.895 166.638C110.77 166.819 110.291 166.926 109.825 166.877L90.6932 164.89Z" fill="url(#paint17_radial_146_2572)"/>
<path d="M90.6953 144.377C90.2296 144.329 89.9532 144.143 90.078 143.963C90.2028 143.782 90.6815 143.675 91.1473 143.723L110.279 145.711C110.745 145.759 111.022 145.945 110.897 146.125C110.772 146.306 110.293 146.413 109.827 146.365L90.6953 144.377Z" fill="#CECFDB"/>
<path d="M94.1724 173.16C93.7549 173.253 93.2209 173.198 92.9798 173.036C92.9039 172.985 92.8661 172.929 92.8629 172.874C92.856 172.755 92.8629 152.826 92.8629 152.35L110.453 148.73C110.87 148.637 111.521 148.346 111.762 148.508C111.762 149.397 111.764 168.971 111.762 169.029C111.76 169.145 111.604 169.258 111.326 169.32L94.1724 173.16Z" fill="url(#paint18_radial_146_2572)"/>
<path d="M94.1714 152.643C93.7538 152.737 93.2198 152.681 92.9788 152.519C92.7377 152.357 92.8808 152.15 93.2983 152.057L110.452 148.217C110.869 148.124 111.403 148.179 111.644 148.341C111.885 148.503 111.742 148.71 111.325 148.804L94.1714 152.643Z" fill="#CECFDB"/>
<path d="M111.711 178.051C111.586 178.231 111.107 178.339 110.641 178.29C110.25 178.25 109.993 178.112 109.994 177.962C109.994 177.934 109.994 159.001 109.994 157.445L115.13 151.096C115.255 150.915 116.401 149.984 116.867 150.032C116.867 150.111 116.867 170.366 116.867 170.551C116.866 170.578 116.856 170.606 116.837 170.633L111.711 178.051Z" fill="url(#paint19_radial_146_2572)"/>
<path d="M111.711 157.534C111.586 157.715 111.107 157.822 110.642 157.774C110.176 157.725 109.899 157.54 110.024 157.359L115.151 149.941C115.275 149.761 115.754 149.654 116.22 149.702C116.686 149.75 116.962 149.936 116.837 150.117L111.711 157.534Z" fill="#CECFDB"/>
<path d="M139.014 142.237C139.432 142.144 143.23 141.25 143.471 141.412C143.471 142.015 143.473 161.874 143.471 161.933C143.467 162.048 143.311 162.16 143.034 162.221L125.881 166.061C125.463 166.155 124.929 166.099 124.688 165.937C124.609 165.884 124.572 165.826 124.571 165.769C124.571 165.652 124.572 145.825 124.572 145.253L139.014 142.237Z" fill="url(#paint20_radial_146_2572)"/>
<path d="M142.164 141.118C142.582 141.025 143.116 141.08 143.357 141.242C143.598 141.404 143.455 141.611 143.037 141.705L125.884 145.544C125.466 145.638 124.932 145.583 124.691 145.421C124.45 145.259 124.593 145.052 125.011 144.958L142.164 141.118Z" fill="#CECFDB"/>
<path d="M146.292 149.715C146.292 151.334 146.295 170.081 146.292 170.232C146.292 170.26 146.282 170.288 146.262 170.317C146.137 170.497 145.659 170.604 145.193 170.556L126.061 168.568C125.673 168.528 125.417 168.393 125.414 168.244C125.413 168.215 125.414 149.699 125.414 147.73C125.817 147.619 129.109 147.969 131.018 148.334L146.292 149.715Z" fill="url(#paint21_radial_146_2572)"/>
<path d="M145.644 149.385C146.11 149.433 146.386 149.619 146.261 149.8C146.136 149.98 145.658 150.087 145.192 150.039L126.06 148.051C125.594 148.003 125.318 147.817 125.442 147.637C125.567 147.456 126.046 147.349 126.512 147.397L145.644 149.385Z" fill="#CECFDB"/>
<path d="M133.147 156.35C133.147 156.873 133.148 176.815 133.146 176.874C133.142 176.99 132.986 177.101 132.71 177.163C132.292 177.257 131.758 177.201 131.517 177.039L121.614 170.389C121.535 170.336 121.497 170.278 121.496 170.22C121.496 170.103 121.496 150.461 121.496 149.699C121.914 149.605 125.566 150.777 126.198 152.588L133.147 156.35Z" fill="url(#paint22_radial_146_2572)"/>
<path d="M133.028 156.183C133.269 156.345 133.126 156.552 132.708 156.646C132.291 156.739 131.757 156.684 131.516 156.522L121.612 149.871C121.371 149.709 121.514 149.502 121.932 149.409C122.349 149.315 122.883 149.371 123.124 149.533L133.028 156.183Z" fill="#CECFDB"/>
<path d="M124.627 138.202C125.165 137.346 125.877 136.772 126.343 136.821C126.343 138.027 126.343 157.219 126.343 157.34C126.342 157.368 126.333 157.396 126.313 157.424L121.187 164.842C121.062 165.023 120.583 165.13 120.117 165.081C119.731 165.041 119.475 164.907 119.47 164.759C119.469 164.728 119.469 144.297 119.469 144.234L124.627 138.202Z" fill="url(#paint23_radial_146_2572)"/>
<path d="M124.625 136.732C124.75 136.551 125.228 136.444 125.694 136.493C126.16 136.541 126.436 136.727 126.311 136.907L121.185 144.325C121.06 144.506 120.582 144.613 120.116 144.564C119.65 144.516 119.374 144.33 119.498 144.15L124.625 136.732Z" fill="#CECFDB"/>
<path d="M103.313 158.598C103.234 158.545 103.196 158.487 103.196 158.43C103.196 157.235 103.196 140.757 103.196 137.916C103.613 137.823 106.543 139.675 106.784 139.837L114.845 144.567C114.845 144.932 114.845 164.505 114.845 165.083C114.843 165.198 114.686 165.311 114.409 165.373C113.991 165.466 113.457 165.411 113.216 165.249L103.313 158.598Z" fill="url(#paint24_radial_146_2572)"/>
<path d="M103.312 138.081C103.07 137.919 103.214 137.712 103.631 137.619C104.049 137.525 104.583 137.581 104.824 137.743L114.727 144.393C114.968 144.555 114.825 144.762 114.408 144.856C113.99 144.949 113.456 144.894 113.215 144.732L103.312 138.081Z" fill="#CECFDB"/>
<path d="M90.6932 165.393C90.3021 165.353 90.0446 165.215 90.0459 165.065C90.0462 165.037 90.0472 144.71 90.0472 144.551C90.172 144.37 94.6575 145.011 95.1233 145.059L110.924 146.535C110.924 146.837 110.924 166.79 110.924 167.06C110.923 167.087 110.913 167.114 110.895 167.141C110.77 167.322 110.291 167.429 109.825 167.381L90.6932 165.393Z" fill="url(#paint25_radial_146_2572)"/>
<path d="M90.6953 144.881C90.2296 144.832 89.9532 144.647 90.078 144.466C90.2028 144.285 90.6815 144.178 91.1473 144.227L110.279 146.214C110.745 146.263 111.022 146.448 110.897 146.629C110.772 146.809 110.293 146.917 109.827 146.868L90.6953 144.881Z" fill="#CECFDB"/>
<path d="M94.1724 173.663C93.7549 173.756 93.2209 173.701 92.9798 173.539C92.9039 173.488 92.8661 173.433 92.8629 173.378C92.856 173.258 92.8629 153.329 92.8629 152.853L110.453 149.234C110.87 149.14 111.521 148.85 111.762 149.012C111.762 149.9 111.764 169.474 111.762 169.532C111.76 169.648 111.604 169.761 111.326 169.823L94.1724 173.663Z" fill="url(#paint26_radial_146_2572)"/>
<path d="M94.1714 153.147C93.7538 153.24 93.2198 153.185 92.9788 153.023C92.7377 152.861 92.8808 152.654 93.2983 152.56L110.452 148.721C110.869 148.627 111.403 148.683 111.644 148.845C111.885 149.006 111.742 149.213 111.325 149.307L94.1714 153.147Z" fill="#CECFDB"/>
<path d="M111.711 178.554C111.586 178.735 111.107 178.842 110.641 178.794C110.25 178.753 109.993 178.616 109.994 178.466C109.994 178.437 109.994 159.504 109.994 157.949L115.13 151.599C115.255 151.418 116.401 150.487 116.867 150.536C116.867 150.615 116.867 170.87 116.867 171.054C116.866 171.082 116.856 171.109 116.837 171.136L111.711 178.554Z" fill="url(#paint27_radial_146_2572)"/>
<path d="M111.711 158.038C111.586 158.218 111.107 158.326 110.642 158.277C110.176 158.229 109.899 158.043 110.024 157.863L115.151 150.445C115.275 150.264 115.754 150.157 116.22 150.205C116.686 150.254 116.962 150.439 116.837 150.62L111.711 158.038Z" fill="#CECFDB"/>
<path d="M139.014 142.74C139.432 142.647 143.23 141.753 143.471 141.915C143.471 142.518 143.473 162.377 143.471 162.436C143.467 162.551 143.311 162.663 143.034 162.725L125.881 166.565C125.463 166.658 124.929 166.603 124.688 166.441C124.609 166.388 124.572 166.33 124.571 166.272C124.571 166.155 124.572 146.328 124.572 145.757L139.014 142.74Z" fill="url(#paint28_radial_146_2572)"/>
<path d="M142.164 141.622C142.582 141.528 143.116 141.584 143.357 141.746C143.598 141.908 143.455 142.115 143.037 142.208L125.884 146.048C125.466 146.141 124.932 146.086 124.691 145.924C124.45 145.762 124.593 145.555 125.011 145.462L142.164 141.622Z" fill="#CECFDB"/>
<path d="M146.292 150.218C146.292 151.837 146.295 170.584 146.292 170.735C146.292 170.763 146.282 170.792 146.262 170.82C146.137 171.001 145.659 171.108 145.193 171.06L126.061 169.072C125.673 169.032 125.417 168.896 125.414 168.748C125.413 168.718 125.414 150.202 125.414 148.234C125.817 148.123 129.109 148.472 131.018 148.837L146.292 150.218Z" fill="url(#paint29_radial_146_2572)"/>
<path d="M145.644 149.888C146.11 149.937 146.386 150.122 146.261 150.303C146.136 150.484 145.658 150.591 145.192 150.542L126.06 148.555C125.594 148.506 125.318 148.321 125.442 148.14C125.567 147.96 126.046 147.852 126.512 147.901L145.644 149.888Z" fill="#CECFDB"/>
<path d="M133.147 156.853C133.147 157.377 133.148 177.319 133.146 177.378C133.142 177.493 132.986 177.605 132.71 177.667C132.292 177.76 131.758 177.705 131.517 177.543L121.614 170.892C121.535 170.839 121.497 170.781 121.496 170.724C121.496 170.607 121.496 150.964 121.496 150.202C121.914 150.109 125.566 151.28 126.198 153.091L133.147 156.853Z" fill="url(#paint30_radial_146_2572)"/>
<path d="M133.028 156.687C133.269 156.849 133.126 157.056 132.708 157.149C132.291 157.243 131.757 157.187 131.516 157.025L121.612 150.375C121.371 150.213 121.514 150.006 121.932 149.912C122.349 149.819 122.883 149.874 123.124 150.036L133.028 156.687Z" fill="#CECFDB"/>
<path d="M124.627 99.6812C125.165 98.8252 125.877 98.2518 126.343 98.3002C126.343 99.5066 126.343 118.698 126.343 118.82C126.342 118.848 126.333 118.876 126.313 118.904L121.187 126.322C121.062 126.502 120.583 126.609 120.117 126.561C119.731 126.521 119.475 126.386 119.47 126.238C119.469 126.208 119.469 105.777 119.469 105.713L124.627 99.6812Z" fill="url(#paint31_radial_146_2572)"/>
<path d="M124.625 98.2114C124.75 98.0308 125.228 97.9237 125.694 97.9721C126.16 98.0205 126.436 98.2061 126.311 98.3866L121.185 105.804C121.06 105.985 120.582 106.092 120.116 106.044C119.65 105.995 119.374 105.81 119.498 105.629L124.625 98.2114Z" fill="#CECFDB"/>
<path d="M103.313 120.078C103.234 120.025 103.196 119.967 103.196 119.91C103.196 118.714 103.196 102.237 103.196 99.3955C103.613 99.302 106.543 101.154 106.784 101.316L114.845 106.047C114.845 106.412 114.845 125.984 114.845 126.562C114.843 126.678 114.686 126.79 114.409 126.852C113.991 126.946 113.457 126.89 113.216 126.728L103.313 120.078Z" fill="url(#paint32_radial_146_2572)"/>
<path d="M103.312 99.5607C103.07 99.3988 103.214 99.1918 103.631 99.0983C104.049 99.0049 104.583 99.0603 104.824 99.2222L114.727 105.873C114.968 106.035 114.825 106.242 114.408 106.335C113.99 106.429 113.456 106.373 113.215 106.211L103.312 99.5607Z" fill="#CECFDB"/>
<path d="M90.6932 126.873C90.3021 126.832 90.0446 126.695 90.0459 126.545C90.0462 126.516 90.0472 106.189 90.0472 106.031C90.172 105.85 94.6575 106.49 95.1233 106.539L110.924 108.015C110.924 108.316 110.924 128.27 110.924 128.539C110.923 128.566 110.913 128.594 110.895 128.621C110.77 128.801 110.291 128.909 109.825 128.86L90.6932 126.873Z" fill="url(#paint33_radial_146_2572)"/>
<path d="M90.6953 106.36C90.2296 106.312 89.9532 106.126 90.078 105.946C90.2028 105.765 90.6815 105.658 91.1473 105.706L110.279 107.694C110.745 107.742 111.022 107.928 110.897 108.108C110.772 108.289 110.293 108.396 109.827 108.348L90.6953 106.36Z" fill="#CECFDB"/>
<path d="M94.1724 135.143C93.7549 135.236 93.2209 135.181 92.9798 135.019C92.9039 134.968 92.8661 134.912 92.8629 134.857C92.856 134.738 92.8629 114.809 92.8629 114.332L110.453 110.713C110.87 110.62 111.521 110.329 111.762 110.491C111.762 111.38 111.764 130.954 111.762 131.012C111.76 131.128 111.604 131.241 111.326 131.303L94.1724 135.143Z" fill="url(#paint34_radial_146_2572)"/>
<path d="M94.1714 114.626C93.7538 114.72 93.2198 114.664 92.9788 114.502C92.7377 114.34 92.8808 114.133 93.2983 114.04L110.452 110.2C110.869 110.107 111.403 110.162 111.644 110.324C111.885 110.486 111.742 110.693 111.325 110.786L94.1714 114.626Z" fill="#CECFDB"/>
<path d="M111.711 140.034C111.586 140.214 111.107 140.322 110.641 140.273C110.25 140.233 109.993 140.095 109.994 139.945C109.994 139.917 109.994 120.984 109.994 119.428L115.13 113.079C115.255 112.898 116.401 111.967 116.867 112.015C116.867 112.094 116.867 132.349 116.867 132.534C116.866 132.561 116.856 132.589 116.837 132.616L111.711 140.034Z" fill="url(#paint35_radial_146_2572)"/>
<path d="M111.711 119.517C111.586 119.698 111.107 119.805 110.642 119.757C110.176 119.708 109.899 119.523 110.024 119.342L115.151 111.924C115.275 111.744 115.754 111.636 116.22 111.685C116.686 111.733 116.962 111.919 116.837 112.099L111.711 119.517Z" fill="#CECFDB"/>
<path d="M139.014 104.22C139.432 104.126 143.23 103.233 143.471 103.395C143.471 103.998 143.473 123.857 143.471 123.915C143.467 124.031 143.311 124.142 143.034 124.204L125.881 128.044C125.463 128.137 124.929 128.082 124.688 127.92C124.609 127.867 124.572 127.809 124.571 127.752C124.571 127.635 124.572 107.808 124.572 107.236L139.014 104.22Z" fill="url(#paint36_radial_146_2572)"/>
<path d="M142.164 103.101C142.582 103.008 143.116 103.063 143.357 103.225C143.598 103.387 143.455 103.594 143.037 103.688L125.884 107.527C125.466 107.621 124.932 107.565 124.691 107.404C124.45 107.242 124.593 107.035 125.011 106.941L142.164 103.101Z" fill="#CECFDB"/>
<path d="M146.292 111.698C146.292 113.317 146.295 132.064 146.292 132.214C146.292 132.243 146.282 132.271 146.262 132.3C146.137 132.48 145.659 132.587 145.193 132.539L126.061 130.551C125.673 130.511 125.417 130.376 125.414 130.227C125.413 130.198 125.414 111.682 125.414 109.713C125.817 109.602 129.109 109.951 131.018 110.317L146.292 111.698Z" fill="url(#paint37_radial_146_2572)"/>
<path d="M145.644 111.368C146.11 111.416 146.386 111.602 146.261 111.783C146.136 111.963 145.658 112.07 145.192 112.022L126.06 110.034C125.594 109.986 125.318 109.8 125.442 109.62C125.567 109.439 126.046 109.332 126.512 109.38L145.644 111.368Z" fill="#CECFDB"/>
<path d="M133.147 118.333C133.147 118.856 133.148 138.798 133.146 138.857C133.142 138.973 132.986 139.084 132.71 139.146C132.292 139.24 131.758 139.184 131.517 139.022L121.614 132.372C121.535 132.318 121.497 132.261 121.496 132.203C121.496 132.086 121.496 112.443 121.496 111.681C121.914 111.588 125.566 112.76 126.198 114.571L133.147 118.333Z" fill="url(#paint38_radial_146_2572)"/>
<path d="M133.028 118.166C133.269 118.328 133.126 118.535 132.708 118.629C132.291 118.722 131.757 118.667 131.516 118.505L121.612 111.854C121.371 111.692 121.514 111.485 121.932 111.392C122.349 111.298 122.883 111.354 123.124 111.516L133.028 118.166Z" fill="#CECFDB"/>
<path d="M124.627 61.1607C125.165 60.3046 125.877 59.7313 126.343 59.7797C126.343 60.9861 126.343 80.1775 126.343 80.2995C126.342 80.3272 126.333 80.3553 126.313 80.3833L121.187 87.8011C121.062 87.9817 120.583 88.0889 120.117 88.0405C119.731 88.0003 119.475 87.8656 119.47 87.7177C119.469 87.6874 119.469 67.2562 119.469 67.1927L124.627 61.1607Z" fill="url(#paint39_radial_146_2572)"/>
<path d="M124.625 59.6909C124.75 59.5103 125.228 59.4032 125.694 59.4516C126.16 59.4999 126.436 59.6856 126.311 59.8661L121.185 67.284C121.06 67.4645 120.582 67.5717 120.116 67.5233C119.65 67.4749 119.374 67.2893 119.498 67.1087L124.625 59.6909Z" fill="#CECFDB"/>
<path d="M103.313 81.5573C103.234 81.5043 103.196 81.4464 103.196 81.3893C103.196 80.1935 103.196 63.7164 103.196 60.875C103.613 60.7815 106.543 62.6338 106.784 62.7957L114.845 67.5261C114.845 67.8912 114.845 87.4636 114.845 88.0416C114.843 88.1574 114.686 88.2697 114.409 88.3318C113.991 88.4253 113.457 88.3698 113.216 88.2079L103.313 81.5573Z" fill="url(#paint40_radial_146_2572)"/>
<path d="M103.312 61.0402C103.07 60.8783 103.214 60.6713 103.631 60.5778C104.049 60.4844 104.583 60.5398 104.824 60.7017L114.727 67.3524C114.968 67.5143 114.825 67.7213 114.408 67.8148C113.99 67.9082 113.456 67.8528 113.215 67.6909L103.312 61.0402Z" fill="#CECFDB"/>
<path d="M90.6932 88.3521C90.3021 88.3115 90.0446 88.1741 90.0459 88.0242C90.0462 87.9956 90.0472 67.6688 90.0472 67.51C90.172 67.3295 94.6575 67.9696 95.1233 68.018L110.924 69.4941C110.924 69.7958 110.924 89.7491 110.924 90.0189C110.923 90.0459 110.913 90.0732 110.895 90.1004C110.77 90.281 110.291 90.3881 109.825 90.3397L90.6932 88.3521Z" fill="url(#paint41_radial_146_2572)"/>
<path d="M90.6953 67.8396C90.2296 67.7912 89.9532 67.6056 90.078 67.425C90.2028 67.2444 90.6815 67.1373 91.1473 67.1856L110.279 69.1733C110.745 69.2216 111.022 69.4072 110.897 69.5878C110.772 69.7684 110.293 69.8755 109.827 69.8272L90.6953 67.8396Z" fill="#CECFDB"/>
<path d="M94.1724 96.622C93.7549 96.7155 93.2209 96.66 92.9798 96.4981C92.9039 96.4471 92.8661 96.3917 92.8629 96.3368C92.856 96.2171 92.8629 76.2882 92.8629 75.812L110.453 72.1927C110.87 72.0993 111.521 71.8086 111.762 71.9705C111.762 72.8594 111.764 92.4332 111.762 92.4914C111.76 92.6075 111.604 92.72 111.326 92.7822L94.1724 96.622Z" fill="url(#paint42_radial_146_2572)"/>
<path d="M94.1714 76.1057C93.7538 76.1991 93.2198 76.1437 92.9788 75.9818C92.7377 75.8199 92.8808 75.6128 93.2983 75.5194L110.452 71.6796C110.869 71.5861 111.403 71.6416 111.644 71.8035C111.885 71.9654 111.742 72.1724 111.325 72.2659L94.1714 76.1057Z" fill="#CECFDB"/>
<path d="M111.711 101.513C111.586 101.694 111.107 101.801 110.641 101.753C110.25 101.712 109.993 101.575 109.994 101.425C109.994 101.396 109.994 82.4632 109.994 80.9076L115.13 74.558C115.255 74.3775 116.401 73.4461 116.867 73.4945C116.867 73.5738 116.867 93.8288 116.867 94.0134C116.866 94.0405 116.856 94.068 116.837 94.0954L111.711 101.513Z" fill="url(#paint43_radial_146_2572)"/>
<path d="M111.711 80.9968C111.586 81.1773 111.107 81.2845 110.642 81.2361C110.176 81.1877 109.899 81.0021 110.024 80.8216L115.151 73.4037C115.275 73.2232 115.754 73.116 116.22 73.1644C116.686 73.2128 116.962 73.3984 116.837 73.5789L111.711 80.9968Z" fill="#CECFDB"/>
<path d="M139.014 65.6995C139.432 65.606 143.23 64.7121 143.471 64.874C143.471 65.4772 143.473 85.336 143.471 85.3949C143.467 85.5103 143.311 85.6219 143.034 85.6838L125.881 89.5235C125.463 89.617 124.929 89.5615 124.688 89.3996C124.609 89.3465 124.572 89.2886 124.571 89.2314C124.571 89.1142 124.572 69.2871 124.572 68.7156L139.014 65.6995Z" fill="url(#paint44_radial_146_2572)"/>
<path d="M142.164 64.5809C142.582 64.4874 143.116 64.5429 143.357 64.7048C143.598 64.8667 143.455 65.0737 143.037 65.1671L125.884 69.0069C125.466 69.1004 124.932 69.0449 124.691 68.883C124.45 68.7211 124.593 68.5141 125.011 68.4206L142.164 64.5809Z" fill="#CECFDB"/>
<path d="M146.292 73.1771C146.292 74.7962 146.295 93.5435 146.292 93.6939C146.292 93.7221 146.282 93.7507 146.262 93.7791C146.137 93.9597 145.659 94.0669 145.193 94.0185L126.061 92.0309C125.673 91.9906 125.417 91.8553 125.414 91.7069C125.413 91.677 125.414 73.1612 125.414 71.1928C125.817 71.0817 129.109 71.431 131.018 71.7961L146.292 73.1771Z" fill="url(#paint45_radial_146_2572)"/>
<path d="M145.644 72.8475C146.11 72.8958 146.386 73.0814 146.261 73.262C146.136 73.4426 145.658 73.5497 145.192 73.5014L126.06 71.5138C125.594 71.4654 125.318 71.2798 125.442 71.0992C125.567 70.9186 126.046 70.8115 126.512 70.8598L145.644 72.8475Z" fill="#CECFDB"/>
<path d="M133.147 79.812C133.147 80.3358 133.148 100.278 133.146 100.337C133.142 100.452 132.986 100.564 132.71 100.626C132.292 100.719 131.758 100.664 131.517 100.502L121.614 93.851C121.535 93.7979 121.497 93.74 121.496 93.6829C121.496 93.5656 121.496 73.9229 121.496 73.161C121.914 73.0675 125.566 74.239 126.198 76.05L133.147 79.812Z" fill="url(#paint46_radial_146_2572)"/>
<path d="M133.028 79.6458C133.269 79.8077 133.126 80.0147 132.708 80.1082C132.291 80.2017 131.757 80.1462 131.516 79.9843L121.612 73.3337C121.371 73.1718 121.514 72.9648 121.932 72.8713C122.349 72.7778 122.883 72.8333 123.124 72.9952L133.028 79.6458Z" fill="#CECFDB"/>
<path d="M124.627 22.6402C125.165 21.7841 125.877 21.2108 126.343 21.2592C126.343 22.4656 126.343 41.657 126.343 41.779C126.342 41.8067 126.333 41.8348 126.313 41.8628L121.187 49.2806C121.062 49.4612 120.583 49.5684 120.117 49.52C119.731 49.4798 119.475 49.3451 119.47 49.1972C119.469 49.1669 119.469 28.7357 119.469 28.6722L124.627 22.6402Z" fill="url(#paint47_radial_146_2572)"/>
<path d="M124.625 21.1704C124.75 20.9898 125.228 20.8827 125.694 20.9311C126.16 20.9794 126.436 21.165 126.311 21.3456L121.185 28.7634C121.06 28.944 120.582 29.0512 120.116 29.0028C119.65 28.9544 119.374 28.7688 119.498 28.5882L124.625 21.1704Z" fill="#CECFDB"/>
<path d="M103.313 43.0368C103.234 42.9838 103.196 42.9259 103.196 42.8688C103.196 41.673 103.196 25.1959 103.196 22.3545C103.613 22.261 106.543 24.1133 106.784 24.2752L114.845 29.0056C114.845 29.3707 114.845 48.9431 114.845 49.5211C114.843 49.6369 114.686 49.7492 114.409 49.8113C113.991 49.9048 113.457 49.8493 113.216 49.6874L103.313 43.0368Z" fill="url(#paint48_radial_146_2572)"/>
<path d="M103.312 22.5197C103.07 22.3578 103.214 22.1508 103.631 22.0573C104.049 21.9638 104.583 22.0193 104.824 22.1812L114.727 28.8319C114.968 28.9938 114.825 29.2008 114.408 29.2942C113.99 29.3877 113.456 29.3322 113.215 29.1704L103.312 22.5197Z" fill="#CECFDB"/>
<path d="M90.6932 49.8316C90.3021 49.791 90.0446 49.6536 90.0459 49.5037C90.0462 49.4751 90.0472 29.1483 90.0472 28.9895C90.172 28.809 94.6575 29.4491 95.1233 29.4975L110.924 30.9736C110.924 31.2752 110.924 51.2286 110.924 51.4984C110.923 51.5254 110.913 51.5527 110.895 51.5799C110.77 51.7605 110.291 51.8676 109.825 51.8192L90.6932 49.8316Z" fill="url(#paint49_radial_146_2572)"/>
<path d="M90.6953 29.3191C90.2296 29.2707 89.9532 29.0851 90.078 28.9045C90.2028 28.7239 90.6815 28.6168 91.1473 28.6651L110.279 30.6527C110.745 30.7011 111.022 30.8867 110.897 31.0673C110.772 31.2479 110.293 31.355 109.827 31.3067L90.6953 29.3191Z" fill="#CECFDB"/>
<path d="M94.1724 58.1015C93.7549 58.195 93.2209 58.1395 92.9798 57.9776C92.9039 57.9266 92.8661 57.8712 92.8629 57.8162C92.856 57.6966 92.8629 37.7677 92.8629 37.2914L110.453 33.6722C110.87 33.5788 111.521 33.2881 111.762 33.45C111.762 34.3389 111.764 53.9126 111.762 53.9709C111.76 54.087 111.604 54.1995 111.326 54.2617L94.1724 58.1015Z" fill="url(#paint50_radial_146_2572)"/>
<path d="M94.1714 37.5851C93.7538 37.6786 93.2198 37.6232 92.9788 37.4613C92.7377 37.2994 92.8808 37.0923 93.2983 36.9989L110.452 33.1591C110.869 33.0656 111.403 33.1211 111.644 33.283C111.885 33.4449 111.742 33.6519 111.325 33.7454L94.1714 37.5851Z" fill="#CECFDB"/>
<path d="M111.711 62.9928C111.586 63.1733 111.107 63.2805 110.641 63.2321C110.25 63.1915 109.993 63.0542 109.994 62.9043C109.994 62.8756 109.994 43.9427 109.994 42.387L115.13 36.0375C115.255 35.857 116.401 34.9256 116.867 34.974C116.867 35.0533 116.867 55.3083 116.867 55.4929C116.866 55.52 116.856 55.5475 116.837 55.5749L111.711 62.9928Z" fill="url(#paint51_radial_146_2572)"/>
<path d="M111.711 42.4763C111.586 42.6568 111.107 42.764 110.642 42.7156C110.176 42.6672 109.899 42.4816 110.024 42.3011L115.151 34.8832C115.275 34.7026 115.754 34.5955 116.22 34.6439C116.686 34.6923 116.962 34.8779 116.837 35.0584L111.711 42.4763Z" fill="#CECFDB"/>
<path d="M139.014 27.179C139.432 27.0855 143.23 26.1916 143.471 26.3535C143.471 26.9567 143.473 46.8155 143.471 46.8744C143.467 46.9898 143.311 47.1014 143.034 47.1633L125.881 51.003C125.463 51.0965 124.929 51.041 124.688 50.8791C124.609 50.826 124.572 50.7681 124.571 50.7109C124.571 50.5937 124.572 30.7666 124.572 30.1951L139.014 27.179Z" fill="url(#paint52_radial_146_2572)"/>
<path d="M142.164 26.0604C142.582 25.9669 143.116 26.0224 143.357 26.1843C143.598 26.3462 143.455 26.5532 143.037 26.6466L125.884 30.4864C125.466 30.5799 124.932 30.5244 124.691 30.3625C124.45 30.2006 124.593 29.9936 125.011 29.9001L142.164 26.0604Z" fill="#CECFDB"/>
<path d="M146.292 34.6566C146.292 36.2757 146.295 55.0229 146.292 55.1734C146.292 55.2016 146.282 55.2302 146.262 55.2586C146.137 55.4392 145.659 55.5464 145.193 55.498L126.061 53.5104C125.673 53.4701 125.417 53.3348 125.414 53.1864C125.413 53.1565 125.414 34.6407 125.414 32.6723C125.817 32.5612 129.109 32.9104 131.018 33.2755L146.292 34.6566Z" fill="url(#paint53_radial_146_2572)"/>
<path d="M145.644 34.3269C146.11 34.3753 146.386 34.5609 146.261 34.7415C146.136 34.9221 145.658 35.0292 145.192 34.9809L126.06 32.9933C125.594 32.9449 125.318 32.7593 125.442 32.5787C125.567 32.3981 126.046 32.291 126.512 32.3393L145.644 34.3269Z" fill="#CECFDB"/>
<path d="M133.147 41.2915C133.147 41.8153 133.148 61.7574 133.146 61.8163C133.142 61.9316 132.986 62.0432 132.71 62.105C132.292 62.1985 131.758 62.143 131.517 61.9811L121.614 55.3305C121.535 55.2774 121.497 55.2195 121.496 55.1624C121.496 55.0451 121.496 35.4024 121.496 34.6405C121.914 34.547 125.566 35.7185 126.198 37.5295L133.147 41.2915Z" fill="url(#paint54_radial_146_2572)"/>
<path d="M133.028 41.1253C133.269 41.2872 133.126 41.4942 132.708 41.5877C132.291 41.6812 131.757 41.6257 131.516 41.4638L121.612 34.8132C121.371 34.6513 121.514 34.4442 121.932 34.3508C122.349 34.2573 122.883 34.3128 123.124 34.4747L133.028 41.1253Z" fill="#CECFDB"/>
<rect x="89.8521" y="56.4019" width="56.6457" height="121.371" fill="url(#paint55_radial_146_2572)"/>
<path d="M71.309 176.233L86.0589 176.039C86.4871 176.033 86.8342 175.877 86.8567 175.679C86.8575 175.672 86.8578 175.665 86.8578 175.659C86.8576 175.444 86.8567 73.0294 86.8567 61.0605L70.6028 61.3145C70.6028 63.521 70.5983 175.748 70.6028 175.919C70.6075 176.097 70.9255 176.238 71.309 176.233Z" fill="#000002"/>
<path d="M86.8628 61.5127V174.058" stroke="url(#paint56_linear_146_2572)" stroke-width="0.8" stroke-linecap="round"/>
<path d="M70.6084 61.9565V174.502" stroke="url(#paint57_linear_146_2572)" stroke-width="0.8" stroke-linecap="round"/>
<path d="M71.3104 61.6318L86.0604 61.4381C86.4885 61.4325 86.8356 61.2759 86.8581 61.0782C86.8837 60.8538 86.4844 60.6682 85.9986 60.6787L71.2588 60.9977C70.8892 61.0057 70.5998 61.1475 70.6043 61.3185C70.609 61.4957 70.927 61.6368 71.3104 61.6318Z" fill="#8C8EA5"/>
<path fill-rule="evenodd" clip-rule="evenodd" d="M185.954 193.614C188.835 191.139 188.155 188.26 184.163 186.029L152.838 168.526C151.446 171.957 146.687 175.183 138.883 177.395C138.57 177.483 138.255 177.57 137.937 177.654L165.213 191.399C169.484 193.551 176.353 194.676 183.31 194.363C184.469 194.311 185.473 194.026 185.954 193.614Z" fill="#CECFDB"/>
<path opacity="0.5" fill-rule="evenodd" clip-rule="evenodd" d="M137.937 63.053L138.022 63.0302V177.631C137.994 177.638 137.965 177.646 137.937 177.653L137.937 63.061L137.953 63.061L137.937 63.053ZM152.844 168.529V53.9287L184.163 71.4279C186.544 72.7583 187.747 74.3195 187.718 75.8879L187.718 87.9571C187.718 117.848 187.718 189.141 187.719 190.432C187.718 188.883 186.515 187.343 184.163 186.028L152.844 168.529ZM187.436 191.731C187.155 192.373 186.662 193.005 185.954 193.613C185.473 194.026 184.469 194.31 183.31 194.362C176.353 194.676 169.484 193.551 165.213 191.399L165.213 191.399C169.484 193.551 176.353 194.676 183.31 194.363C184.469 194.31 185.473 194.026 185.954 193.613C186.662 193.005 187.155 192.373 187.436 191.731Z" fill="#CECFDB"/>
<path fill-rule="evenodd" clip-rule="evenodd" d="M187.718 75.871C187.705 76.9379 187.122 78.0086 185.953 79.0126C185.473 79.4252 184.469 79.7097 183.309 79.762C176.353 80.0753 169.483 78.9502 165.213 76.7983L137.952 63.061C137.947 63.061 137.942 63.061 137.937 63.061L137.937 177.654L165.213 191.399C169.484 193.551 176.353 194.676 183.31 194.363C184.469 194.31 185.473 194.026 185.954 193.613C187.137 192.597 187.72 191.512 187.719 190.432C187.718 189.142 187.718 117.89 187.718 87.9839C187.718 81.9793 187.718 77.6414 187.718 75.8711L187.718 75.871Z" fill="#000002"/>
<path d="M187.714 76.3389V188.884" stroke="url(#paint58_linear_146_2572)" stroke-width="0.8" stroke-linecap="round"/>
<path d="M137.94 63.228V175.773" stroke="url(#paint59_linear_146_2572)" stroke-width="0.8" stroke-linecap="round"/>
<path d="M183.968 71.777C185.925 72.8706 186.976 74.0736 187.247 75.2206C187.509 76.3329 187.066 77.5302 185.693 78.7091C185.515 78.8621 185.206 79.016 184.777 79.1375C184.355 79.2571 183.846 79.3374 183.292 79.3623C176.375 79.6739 169.581 78.5512 165.393 76.4411L139.045 63.1635C142.948 62.0531 146.111 60.6852 148.482 59.1527C150.679 57.7326 152.222 56.1552 153.025 54.4883L183.968 71.777Z" fill="#000002" stroke="#8C8EA5" stroke-width="0.8" stroke-linejoin="round"/>
<path d="M126.838 187.85L131.8 181.309C131.827 181.273 131.84 181.238 131.84 181.203C131.841 181.049 131.84 68.2676 131.84 66.585C130.118 67.5533 129.721 67.6485 129.371 68.6327L125.234 73.1567C125.234 77.014 125.234 187.734 125.235 187.762C125.236 187.897 125.461 188.021 125.809 188.064C126.246 188.116 126.709 188.02 126.838 187.85Z" fill="#000002"/>
<path d="M131.832 66.8784V179.423" stroke="url(#paint60_linear_146_2572)" stroke-width="0.8" stroke-linecap="round"/>
<path d="M125.406 73.6089V186.154" stroke="url(#paint61_linear_146_2572)" stroke-width="0.8" stroke-linecap="round"/>
<path d="M126.838 73.2491L131.8 66.7076C131.944 66.5177 131.688 66.3167 131.211 66.2457C130.67 66.1651 130.068 66.2831 129.915 66.4999L125.264 73.0756C125.147 73.2405 125.388 73.4116 125.809 73.4625C126.246 73.5152 126.709 73.4191 126.838 73.2491Z" fill="#8C8EA5"/>
<path opacity="0.5" fill-rule="evenodd" clip-rule="evenodd" d="M96.571 62.5285L96.5827 62.521V62.532V78.8525V177.157L96.5693 177.153L71.092 191.408C68.7808 192.701 67.5822 194.212 67.5442 195.735V81.2596V81.1568V81.1101C67.5822 79.5869 68.7808 78.0761 71.092 76.783L96.5693 62.528L96.571 62.5285ZM67.5442 195.885L67.5444 195.892L67.5442 195.892V195.885Z" fill="#CECFDB"/>
<path d="M89.8715 81.7919C85.6878 83.9029 78.8956 85.0274 71.9783 84.7176C71.4242 84.6928 70.9142 84.6126 70.4921 84.4931C70.0631 84.3717 69.7539 84.2179 69.5753 84.0648C68.2005 82.886 67.755 81.6887 68.0158 80.5763C68.2846 79.4295 69.3333 78.2263 71.2885 77.1324L96.6177 62.9603C96.8706 63.0359 97.1269 63.1105 97.3864 63.184C104.691 65.2513 113.344 66.0699 121.666 65.7482L89.8715 81.7919Z" fill="#000002" stroke="#8C8EA5" stroke-width="0.8" stroke-linejoin="round"/>
<path fill-rule="evenodd" clip-rule="evenodd" d="M90.0507 82.1486C85.7841 84.3015 78.9161 85.4284 71.9595 85.1168C70.7996 85.0648 69.7952 84.7806 69.3141 84.3681C68.1409 83.3622 67.5563 82.2893 67.5437 81.2202L67.5435 81.2202C67.5435 82.5867 67.5433 87.3845 67.543 94.2944C67.5416 124.386 67.5385 194.535 67.5435 195.797C67.5477 196.874 68.1322 197.955 69.314 198.969C69.7951 199.381 70.7995 199.665 71.9595 199.717C78.916 200.029 85.784 198.902 90.0507 196.749L123.528 179.856L123.528 65.2671C123.516 65.2697 123.503 65.2723 123.49 65.2749L90.0507 82.1486Z" fill="#000002"/>
<path d="M123.535 65.6084V178.153" stroke="url(#paint62_linear_146_2572)" stroke-width="0.8" stroke-linecap="round"/>
<path d="M67.5557 81.5137V194.059" stroke="url(#paint63_linear_146_2572)" stroke-width="0.8" stroke-linecap="round"/>
<path d="M160.475 39.3579C154.51 41.1934 147.136 42.5562 139.002 43.3154C130.871 44.0743 122.253 44.2047 113.916 43.6944C105.578 43.1841 97.7945 42.0496 91.2564 40.3986C84.699 38.7428 79.6744 36.6377 76.5546 34.3202C73.4267 31.9967 72.5572 29.7536 73.2028 27.7366C73.9045 25.5443 76.4785 23.1851 81.1819 21.0192C85.8233 18.8818 92.1597 17.1078 99.6497 15.876C107.132 14.6454 115.497 14 124 14" stroke="#64A2FF" stroke-width="2" stroke-linecap="round" stroke-linejoin="round"/>
<path d="M124 14H155" stroke="#64A2FF" stroke-width="2" stroke-linecap="round" stroke-linejoin="round"/>
<path d="M163.524 13.3462C163.985 13.4454 163.633 14.093 163.059 14.2026L146.593 17.3462C146.246 17.4125 146.061 17.2065 146.214 16.9242L149.467 10.9375C149.62 10.6551 150.033 10.4431 150.311 10.5031L163.524 13.3462Z" fill="#64A2FF" stroke="#64A2FF"/>
<defs>
<radialGradient id="paint0_radial_146_2572" cx="0" cy="0" r="1" gradientUnits="userSpaceOnUse" gradientTransform="translate(114.5 78.924) rotate(90) scale(76.0714 114.5)">
<stop stop-color="#347DFE"/>
<stop offset="0.229167" stop-color="#347DFE"/>
<stop offset="1" stop-color="#347DFE" stop-opacity="0"/>
</radialGradient>
<linearGradient id="paint1_linear_146_2572" x1="86.5986" y1="43.8215" x2="86.5986" y2="155.866" gradientUnits="userSpaceOnUse">
<stop stop-color="#8C8EA5"/>
<stop offset="1" stop-color="#8C8EA5" stop-opacity="0"/>
</linearGradient>
<linearGradient id="paint2_linear_146_2572" x1="78.4546" y1="37.3454" x2="78.4546" y2="149.39" gradientUnits="userSpaceOnUse">
<stop stop-color="#8C8EA5"/>
<stop offset="1" stop-color="#8C8EA5" stop-opacity="0"/>
</linearGradient>
<linearGradient id="paint3_linear_146_2572" x1="22.5725" y1="45.6315" x2="22.5725" y2="157.676" gradientUnits="userSpaceOnUse">
<stop stop-color="#8C8EA5"/>
<stop offset="1" stop-color="#8C8EA5" stop-opacity="0"/>
</linearGradient>
<linearGradient id="paint4_linear_146_2572" x1="86.5986" y1="58.1726" x2="86.5986" y2="170.217" gradientUnits="userSpaceOnUse">
<stop stop-color="#8C8EA5"/>
<stop offset="1" stop-color="#8C8EA5" stop-opacity="0"/>
</linearGradient>
<linearGradient id="paint5_linear_146_2572" x1="85.104" y1="47.5229" x2="85.104" y2="56.9099" gradientUnits="userSpaceOnUse">
<stop stop-color="#8C8EA5"/>
<stop offset="1" stop-color="#8C8EA5" stop-opacity="0"/>
</linearGradient>
<linearGradient id="paint6_linear_146_2572" x1="93.9114" y1="42.6154" x2="93.9114" y2="154.66" gradientUnits="userSpaceOnUse">
<stop stop-color="#8C8EA5"/>
<stop offset="1" stop-color="#8C8EA5" stop-opacity="0"/>
</linearGradient>
<linearGradient id="paint7_linear_146_2572" x1="119.834" y1="38.7424" x2="119.834" y2="150.787" gradientUnits="userSpaceOnUse">
<stop stop-color="#8C8EA5"/>
<stop offset="1" stop-color="#8C8EA5" stop-opacity="0"/>
</linearGradient>
<linearGradient id="paint8_linear_146_2572" x1="144.102" y1="33.2497" x2="144.102" y2="145.294" gradientUnits="userSpaceOnUse">
<stop stop-color="#8C8EA5"/>
<stop offset="1" stop-color="#8C8EA5" stop-opacity="0"/>
</linearGradient>
<linearGradient id="paint9_linear_146_2572" x1="128.992" y1="37.822" x2="128.992" y2="149.866" gradientUnits="userSpaceOnUse">
<stop stop-color="#8C8EA5"/>
<stop offset="1" stop-color="#8C8EA5" stop-opacity="0"/>
</linearGradient>
<linearGradient id="paint10_linear_146_2572" x1="207.457" y1="37.0275" x2="207.457" y2="149.072" gradientUnits="userSpaceOnUse">
<stop stop-color="#8C8EA5"/>
<stop offset="1" stop-color="#8C8EA5" stop-opacity="0"/>
</linearGradient>
<linearGradient id="paint11_linear_146_2572" x1="152.563" y1="48.2668" x2="152.563" y2="160.311" gradientUnits="userSpaceOnUse">
<stop stop-color="#8C8EA5"/>
<stop offset="1" stop-color="#8C8EA5" stop-opacity="0"/>
</linearGradient>
<linearGradient id="paint12_linear_146_2572" x1="134.594" y1="40.4563" x2="134.594" y2="152.501" gradientUnits="userSpaceOnUse">
<stop stop-color="#8C8EA5"/>
<stop offset="1" stop-color="#8C8EA5" stop-opacity="0"/>
</linearGradient>
<linearGradient id="paint13_linear_146_2572" x1="174.445" y1="55.9489" x2="174.445" y2="167.993" gradientUnits="userSpaceOnUse">
<stop stop-color="#8C8EA5"/>
<stop offset="1" stop-color="#8C8EA5" stop-opacity="0"/>
</linearGradient>
<linearGradient id="paint14_linear_146_2572" x1="157.908" y1="52.3303" x2="157.908" y2="164.375" gradientUnits="userSpaceOnUse">
<stop stop-color="#8C8EA5"/>
<stop offset="1" stop-color="#8C8EA5" stop-opacity="0"/>
</linearGradient>
<radialGradient id="paint15_radial_146_2572" cx="0" cy="0" r="1" gradientUnits="userSpaceOnUse" gradientTransform="translate(119.465 143.826) rotate(90) scale(23.0646 5.60782)">
<stop stop-color="#8C8EA5"/>
<stop offset="1" stop-color="#000002"/>
</radialGradient>
<radialGradient id="paint16_radial_146_2572" cx="0" cy="0" r="1" gradientUnits="userSpaceOnUse" gradientTransform="translate(103.185 137.397) rotate(90) scale(27.5251 11.6581)">
<stop stop-color="#8C8EA5"/>
<stop offset="1" stop-color="#000002"/>
</radialGradient>
<radialGradient id="paint17_radial_146_2572" cx="0" cy="0" r="1" gradientUnits="userSpaceOnUse" gradientTransform="translate(91.588 144) rotate(90) scale(32.5412 29.7032)">
<stop stop-color="#8C8EA5"/>
<stop offset="1" stop-color="#000002"/>
</radialGradient>
<radialGradient id="paint18_radial_146_2572" cx="0" cy="0" r="1" gradientUnits="userSpaceOnUse" gradientTransform="translate(92.8445 152.413) rotate(90) scale(25.6044 19.5596)">
<stop stop-color="#8C8EA5"/>
<stop offset="1" stop-color="#000002"/>
</radialGradient>
<radialGradient id="paint19_radial_146_2572" cx="0" cy="0" r="1" gradientUnits="userSpaceOnUse" gradientTransform="translate(109.989 157.461) rotate(90) scale(24.7948 6.02764)">
<stop stop-color="#8C8EA5"/>
<stop offset="1" stop-color="#000002"/>
</radialGradient>
<radialGradient id="paint20_radial_146_2572" cx="0" cy="0" r="1" gradientUnits="userSpaceOnUse" gradientTransform="translate(124.586 145.253) rotate(90) scale(23.0963 17.6633)">
<stop stop-color="#8C8EA5"/>
<stop offset="1" stop-color="#000002"/>
</radialGradient>
<radialGradient id="paint21_radial_146_2572" cx="0" cy="0" r="1" gradientUnits="userSpaceOnUse" gradientTransform="translate(129.088 148.381) rotate(90) scale(23.2868 21.2717)">
<stop stop-color="#8C8EA5"/>
<stop offset="1" stop-color="#000002"/>
</radialGradient>
<radialGradient id="paint22_radial_146_2572" cx="0" cy="0" r="1" gradientUnits="userSpaceOnUse" gradientTransform="translate(121.503 149.683) rotate(90) scale(27.5251 11.6554)">
<stop stop-color="#8C8EA5"/>
<stop offset="1" stop-color="#000002"/>
</radialGradient>
<radialGradient id="paint23_radial_146_2572" cx="0" cy="0" r="1" gradientUnits="userSpaceOnUse" gradientTransform="translate(119.465 144.329) rotate(90) scale(23.0646 5.60782)">
<stop stop-color="#8C8EA5"/>
<stop offset="1" stop-color="#000002"/>
</radialGradient>
<radialGradient id="paint24_radial_146_2572" cx="0" cy="0" r="1" gradientUnits="userSpaceOnUse" gradientTransform="translate(103.185 137.9) rotate(90) scale(27.5251 11.6581)">
<stop stop-color="#8C8EA5"/>
<stop offset="1" stop-color="#000002"/>
</radialGradient>
<radialGradient id="paint25_radial_146_2572" cx="0" cy="0" r="1" gradientUnits="userSpaceOnUse" gradientTransform="translate(91.588 144.503) rotate(90) scale(32.5412 29.7032)">
<stop stop-color="#8C8EA5"/>
<stop offset="1" stop-color="#000002"/>
</radialGradient>
<radialGradient id="paint26_radial_146_2572" cx="0" cy="0" r="1" gradientUnits="userSpaceOnUse" gradientTransform="translate(92.8445 152.916) rotate(90) scale(25.6044 19.5596)">
<stop stop-color="#8C8EA5"/>
<stop offset="1" stop-color="#000002"/>
</radialGradient>
<radialGradient id="paint27_radial_146_2572" cx="0" cy="0" r="1" gradientUnits="userSpaceOnUse" gradientTransform="translate(109.989 157.964) rotate(90) scale(24.7948 6.02764)">
<stop stop-color="#8C8EA5"/>
<stop offset="1" stop-color="#000002"/>
</radialGradient>
<radialGradient id="paint28_radial_146_2572" cx="0" cy="0" r="1" gradientUnits="userSpaceOnUse" gradientTransform="translate(124.586 145.757) rotate(90) scale(23.0963 17.6633)">
<stop stop-color="#8C8EA5"/>
<stop offset="1" stop-color="#000002"/>
</radialGradient>
<radialGradient id="paint29_radial_146_2572" cx="0" cy="0" r="1" gradientUnits="userSpaceOnUse" gradientTransform="translate(129.088 148.885) rotate(90) scale(23.2868 21.2717)">
<stop stop-color="#8C8EA5"/>
<stop offset="1" stop-color="#000002"/>
</radialGradient>
<radialGradient id="paint30_radial_146_2572" cx="0" cy="0" r="1" gradientUnits="userSpaceOnUse" gradientTransform="translate(121.503 150.186) rotate(90) scale(27.5251 11.6554)">
<stop stop-color="#8C8EA5"/>
<stop offset="1" stop-color="#000002"/>
</radialGradient>
<radialGradient id="paint31_radial_146_2572" cx="0" cy="0" r="1" gradientUnits="userSpaceOnUse" gradientTransform="translate(119.465 105.808) rotate(90) scale(23.0646 5.60782)">
<stop stop-color="#8C8EA5"/>
<stop offset="1" stop-color="#000002"/>
</radialGradient>
<radialGradient id="paint32_radial_146_2572" cx="0" cy="0" r="1" gradientUnits="userSpaceOnUse" gradientTransform="translate(103.185 99.3797) rotate(90) scale(27.5251 11.6581)">
<stop stop-color="#8C8EA5"/>
<stop offset="1" stop-color="#000002"/>
</radialGradient>
<radialGradient id="paint33_radial_146_2572" cx="0" cy="0" r="1" gradientUnits="userSpaceOnUse" gradientTransform="translate(91.588 105.983) rotate(90) scale(32.5412 29.7032)">
<stop stop-color="#8C8EA5"/>
<stop offset="1" stop-color="#000002"/>
</radialGradient>
<radialGradient id="paint34_radial_146_2572" cx="0" cy="0" r="1" gradientUnits="userSpaceOnUse" gradientTransform="translate(92.8445 114.396) rotate(90) scale(25.6044 19.5596)">
<stop stop-color="#8C8EA5"/>
<stop offset="1" stop-color="#000002"/>
</radialGradient>
<radialGradient id="paint35_radial_146_2572" cx="0" cy="0" r="1" gradientUnits="userSpaceOnUse" gradientTransform="translate(109.989 119.444) rotate(90) scale(24.7948 6.02764)">
<stop stop-color="#8C8EA5"/>
<stop offset="1" stop-color="#000002"/>
</radialGradient>
<radialGradient id="paint36_radial_146_2572" cx="0" cy="0" r="1" gradientUnits="userSpaceOnUse" gradientTransform="translate(124.586 107.236) rotate(90) scale(23.0963 17.6633)">
<stop stop-color="#8C8EA5"/>
<stop offset="1" stop-color="#000002"/>
</radialGradient>
<radialGradient id="paint37_radial_146_2572" cx="0" cy="0" r="1" gradientUnits="userSpaceOnUse" gradientTransform="translate(129.088 110.364) rotate(90) scale(23.2868 21.2717)">
<stop stop-color="#8C8EA5"/>
<stop offset="1" stop-color="#000002"/>
</radialGradient>
<radialGradient id="paint38_radial_146_2572" cx="0" cy="0" r="1" gradientUnits="userSpaceOnUse" gradientTransform="translate(121.503 111.666) rotate(90) scale(27.5251 11.6554)">
<stop stop-color="#8C8EA5"/>
<stop offset="1" stop-color="#000002"/>
</radialGradient>
<radialGradient id="paint39_radial_146_2572" cx="0" cy="0" r="1" gradientUnits="userSpaceOnUse" gradientTransform="translate(119.465 67.2879) rotate(90) scale(23.0646 5.60782)">
<stop stop-color="#8C8EA5"/>
<stop offset="1" stop-color="#000002"/>
</radialGradient>
<radialGradient id="paint40_radial_146_2572" cx="0" cy="0" r="1" gradientUnits="userSpaceOnUse" gradientTransform="translate(103.185 60.8591) rotate(90) scale(27.5251 11.6581)">
<stop stop-color="#8C8EA5"/>
<stop offset="1" stop-color="#000002"/>
</radialGradient>
<radialGradient id="paint41_radial_146_2572" cx="0" cy="0" r="1" gradientUnits="userSpaceOnUse" gradientTransform="translate(91.588 67.4624) rotate(90) scale(32.5412 29.7032)">
<stop stop-color="#8C8EA5"/>
<stop offset="1" stop-color="#000002"/>
</radialGradient>
<radialGradient id="paint42_radial_146_2572" cx="0" cy="0" r="1" gradientUnits="userSpaceOnUse" gradientTransform="translate(92.8445 75.8755) rotate(90) scale(25.6044 19.5596)">
<stop stop-color="#8C8EA5"/>
<stop offset="1" stop-color="#000002"/>
</radialGradient>
<radialGradient id="paint43_radial_146_2572" cx="0" cy="0" r="1" gradientUnits="userSpaceOnUse" gradientTransform="translate(109.989 80.9234) rotate(90) scale(24.7948 6.02764)">
<stop stop-color="#8C8EA5"/>
<stop offset="1" stop-color="#000002"/>
</radialGradient>
<radialGradient id="paint44_radial_146_2572" cx="0" cy="0" r="1" gradientUnits="userSpaceOnUse" gradientTransform="translate(124.586 68.7156) rotate(90) scale(23.0963 17.6633)">
<stop stop-color="#8C8EA5"/>
<stop offset="1" stop-color="#000002"/>
</radialGradient>
<radialGradient id="paint45_radial_146_2572" cx="0" cy="0" r="1" gradientUnits="userSpaceOnUse" gradientTransform="translate(129.088 71.8437) rotate(90) scale(23.2868 21.2717)">
<stop stop-color="#8C8EA5"/>
<stop offset="1" stop-color="#000002"/>
</radialGradient>
<radialGradient id="paint46_radial_146_2572" cx="0" cy="0" r="1" gradientUnits="userSpaceOnUse" gradientTransform="translate(121.503 73.145) rotate(90) scale(27.5251 11.6554)">
<stop stop-color="#8C8EA5"/>
<stop offset="1" stop-color="#000002"/>
</radialGradient>
<radialGradient id="paint47_radial_146_2572" cx="0" cy="0" r="1" gradientUnits="userSpaceOnUse" gradientTransform="translate(119.465 28.7674) rotate(90) scale(23.0646 5.60782)">
<stop stop-color="#8C8EA5"/>
<stop offset="1" stop-color="#000002"/>
</radialGradient>
<radialGradient id="paint48_radial_146_2572" cx="0" cy="0" r="1" gradientUnits="userSpaceOnUse" gradientTransform="translate(103.185 22.3386) rotate(90) scale(27.5251 11.6581)">
<stop stop-color="#8C8EA5"/>
<stop offset="1" stop-color="#000002"/>
</radialGradient>
<radialGradient id="paint49_radial_146_2572" cx="0" cy="0" r="1" gradientUnits="userSpaceOnUse" gradientTransform="translate(91.588 28.9419) rotate(90) scale(32.5412 29.7032)">
<stop stop-color="#8C8EA5"/>
<stop offset="1" stop-color="#000002"/>
</radialGradient>
<radialGradient id="paint50_radial_146_2572" cx="0" cy="0" r="1" gradientUnits="userSpaceOnUse" gradientTransform="translate(92.8445 37.355) rotate(90) scale(25.6044 19.5596)">
<stop stop-color="#8C8EA5"/>
<stop offset="1" stop-color="#000002"/>
</radialGradient>
<radialGradient id="paint51_radial_146_2572" cx="0" cy="0" r="1" gradientUnits="userSpaceOnUse" gradientTransform="translate(109.989 42.4029) rotate(90) scale(24.7948 6.02764)">
<stop stop-color="#8C8EA5"/>
<stop offset="1" stop-color="#000002"/>
</radialGradient>
<radialGradient id="paint52_radial_146_2572" cx="0" cy="0" r="1" gradientUnits="userSpaceOnUse" gradientTransform="translate(124.586 30.1951) rotate(90) scale(23.0963 17.6633)">
<stop stop-color="#8C8EA5"/>
<stop offset="1" stop-color="#000002"/>
</radialGradient>
<radialGradient id="paint53_radial_146_2572" cx="0" cy="0" r="1" gradientUnits="userSpaceOnUse" gradientTransform="translate(129.088 33.3232) rotate(90) scale(23.2868 21.2717)">
<stop stop-color="#8C8EA5"/>
<stop offset="1" stop-color="#000002"/>
</radialGradient>
<radialGradient id="paint54_radial_146_2572" cx="0" cy="0" r="1" gradientUnits="userSpaceOnUse" gradientTransform="translate(121.503 34.6245) rotate(90) scale(27.5251 11.6554)">
<stop stop-color="#8C8EA5"/>
<stop offset="1" stop-color="#000002"/>
</radialGradient>
<radialGradient id="paint55_radial_146_2572" cx="0" cy="0" r="1" gradientUnits="userSpaceOnUse" gradientTransform="translate(118.175 56.4019) rotate(90) scale(116.26 3366.07)">
<stop stop-color="#000002" stop-opacity="0"/>
<stop offset="1" stop-color="#000002"/>
</radialGradient>
<linearGradient id="paint56_linear_146_2572" x1="87.3628" y1="62.0129" x2="87.3628" y2="174.057" gradientUnits="userSpaceOnUse">
<stop stop-color="#8C8EA5"/>
<stop offset="1" stop-color="#8C8EA5" stop-opacity="0"/>
</linearGradient>
<linearGradient id="paint57_linear_146_2572" x1="71.1084" y1="62.4567" x2="71.1084" y2="174.501" gradientUnits="userSpaceOnUse">
<stop stop-color="#8C8EA5"/>
<stop offset="1" stop-color="#8C8EA5" stop-opacity="0"/>
</linearGradient>
<linearGradient id="paint58_linear_146_2572" x1="188.214" y1="76.8391" x2="188.214" y2="188.884" gradientUnits="userSpaceOnUse">
<stop stop-color="#8C8EA5"/>
<stop offset="1" stop-color="#8C8EA5" stop-opacity="0"/>
</linearGradient>
<linearGradient id="paint59_linear_146_2572" x1="138.44" y1="63.7282" x2="138.44" y2="175.773" gradientUnits="userSpaceOnUse">
<stop stop-color="#8C8EA5"/>
<stop offset="1" stop-color="#8C8EA5" stop-opacity="0"/>
</linearGradient>
<linearGradient id="paint60_linear_146_2572" x1="132.332" y1="67.3786" x2="132.332" y2="179.423" gradientUnits="userSpaceOnUse">
<stop stop-color="#8C8EA5"/>
<stop offset="1" stop-color="#8C8EA5" stop-opacity="0"/>
</linearGradient>
<linearGradient id="paint61_linear_146_2572" x1="125.906" y1="74.1091" x2="125.906" y2="186.154" gradientUnits="userSpaceOnUse">
<stop stop-color="#8C8EA5"/>
<stop offset="1" stop-color="#8C8EA5" stop-opacity="0"/>
</linearGradient>
<linearGradient id="paint62_linear_146_2572" x1="124.035" y1="66.1086" x2="124.035" y2="178.153" gradientUnits="userSpaceOnUse">
<stop stop-color="#8C8EA5"/>
<stop offset="1" stop-color="#8C8EA5" stop-opacity="0"/>
</linearGradient>
<linearGradient id="paint63_linear_146_2572" x1="68.0557" y1="82.0139" x2="68.0557" y2="194.058" gradientUnits="userSpaceOnUse">
<stop stop-color="#8C8EA5"/>
<stop offset="1" stop-color="#8C8EA5" stop-opacity="0"/>
</linearGradient>
</defs>
</svg>
