
<svg width="24" height="24" viewBox="0 0 24 24" fill="none" xmlns="http://www.w3.org/2000/svg">
<g clip-path="url(#clip0_502_14)">
<path d="M0 4H24V20H0V4Z" fill="#055E1C"/>
<path d="M8.60381 13.565C8.60381 14.1413 9.05995 14.6085 9.62269 14.6085H12.6793C12.6793 15.0887 13.0595 15.4781 13.5284 15.4781H14.5473C15.0162 15.4781 15.3964 15.0887 15.3964 14.6085V13.565H8.60381ZM15.4811 8.52148V10.9563C15.4811 11.3398 15.1764 11.6519 14.8019 11.6519V12.6954C15.7382 12.6954 16.5 11.9152 16.5 10.9563V8.52148H15.4811ZM8.17927 10.9563C8.17927 11.3399 7.87458 11.6519 7.5 11.6519V12.6954C8.43637 12.6954 9.19809 11.9153 9.19809 10.9563V8.52153H8.17922V10.9563H8.17927Z" fill="white"/>
<path d="M13.9524 8.52148H14.9713V10.9563H13.9524V8.52148ZM12.4241 9.91297C12.4241 10.0089 12.3479 10.0869 12.2543 10.0869C12.1606 10.0869 12.0844 10.0089 12.0844 9.91297V8.52163H11.0656V9.91297C11.0656 10.0089 10.9894 10.0869 10.8957 10.0869C10.8021 10.0869 10.7259 10.0089 10.7259 9.91297V8.52163H9.70703V9.91297C9.70703 10.5842 10.2403 11.1304 10.8957 11.1304C11.1481 11.1304 11.3822 11.0491 11.575 10.9111C11.7676 11.0491 12.0018 11.1304 12.2542 11.1304C12.305 11.1304 12.355 11.1267 12.4042 11.1203C12.332 11.4249 12.0641 11.6521 11.7448 11.6521V12.6956C12.6812 12.6956 13.4429 11.9154 13.4429 10.9565V8.52163H12.424L12.4241 9.91297V9.91297Z" fill="white"/>
<path d="M9.70703 11.6523H11.2352V12.6958H9.70703V11.6523Z" fill="white"/>
</g>
<defs>
<clipPath id="clip0_502_14">
<rect y="4" width="24" height="16" rx="1" fill="white"/>
</clipPath>
</defs>
</svg>
