
<svg width="24" height="24" viewBox="0 0 24 24" fill="none" xmlns="http://www.w3.org/2000/svg">
<g clip-path="url(#clip0_560_491)">
<path d="M0 4H23.8769V20H0V4Z" fill="#D80027"/>
<path d="M10.556 15.1908L10.1045 14.461L9.27135 14.6668L9.82523 14.0072L9.37375 13.2774L10.1696 13.6002L10.7189 12.9405L10.6584 13.8013L11.4543 14.1241L10.6211 14.33L10.556 15.1908ZM13.5255 7.83643L13.0554 8.5569L13.5953 9.2259L12.7714 9.00134L12.3014 9.72649L12.2548 8.86567L11.431 8.64111L12.2315 8.33234L12.185 7.47152L12.7249 8.14052L13.5255 7.83643ZM10.9935 5.18848L10.9004 6.04462L11.6823 6.40017L10.8445 6.57795L10.7514 7.43409L10.3232 6.68555L9.49011 6.86333L10.0626 6.22239L9.6344 5.47854L10.4163 5.82941L10.9935 5.18848ZM13.6278 11.5698L12.9343 12.0797L13.2043 12.8984L12.5108 12.3932L11.8173 12.9078L12.0779 12.0844L11.3844 11.5838L12.2408 11.5791L12.5015 10.7557L12.7714 11.5744L13.6278 11.5698ZM5.35237 6.16625L6.15758 8.66918H8.77334L6.66025 10.2084L7.46546 12.7113L5.35237 11.1674L3.23464 12.7113L4.0445 10.2084L1.92676 8.66918H4.54717L5.35237 6.16625Z" fill="#FFDA44"/>
</g>
<defs>
<clipPath id="clip0_560_491">
<rect y="4" width="23.8769" height="16" rx="1" fill="white"/>
</clipPath>
</defs>
</svg>
