
<svg width="24" height="24" viewBox="0 0 24 24" fill="none" xmlns="http://www.w3.org/2000/svg">
<rect x="1.5" y="4.5" width="21" height="15" rx="2" fill="white"/>
<mask id="mask0_1368_17081" style="mask-type:alpha" maskUnits="userSpaceOnUse" x="1" y="4" width="22" height="16">
<rect x="1.5" y="4.5" width="21" height="15" rx="2" fill="white"/>
</mask>
<g mask="url(#mask0_1368_17081)">
<path fill-rule="evenodd" clip-rule="evenodd" d="M22.5 4.5H1.5V5.5H22.5V4.5ZM22.5 6.50047H1.5V7.50047H22.5V6.50047ZM1.5 8.49966H22.5V9.49966H1.5V8.49966ZM22.5 10.5001H1.5V11.5001H22.5V10.5001ZM1.5 12.5006H22.5V13.5006H1.5V12.5006ZM22.5 14.4995H1.5V15.4995H22.5V14.4995ZM1.5 16.5H22.5V17.5H1.5V16.5ZM22.5 18.5002H1.5V19.5002H22.5V18.5002Z" fill="#D02F44"/>
<rect x="1.5" y="4.5" width="9" height="7" fill="#46467F"/>
<g filter="url(#filter0_d_1368_17081)">
<path fill-rule="evenodd" clip-rule="evenodd" d="M3.50195 5.99951C3.50195 6.27565 3.2781 6.49951 3.00195 6.49951C2.72581 6.49951 2.50195 6.27565 2.50195 5.99951C2.50195 5.72337 2.72581 5.49951 3.00195 5.49951C3.2781 5.49951 3.50195 5.72337 3.50195 5.99951ZM5.5 5.99956C5.5 6.2757 5.27614 6.49956 5 6.49956C4.72386 6.49956 4.5 6.2757 4.5 5.99956C4.5 5.72342 4.72386 5.49956 5 5.49956C5.27614 5.49956 5.5 5.72342 5.5 5.99956ZM7.00098 6.49951C7.27712 6.49951 7.50098 6.27565 7.50098 5.99951C7.50098 5.72337 7.27712 5.49951 7.00098 5.49951C6.72483 5.49951 6.50098 5.72337 6.50098 5.99951C6.50098 6.27565 6.72483 6.49951 7.00098 6.49951ZM9.50195 5.99956C9.50195 6.2757 9.27809 6.49956 9.00195 6.49956C8.72581 6.49956 8.50195 6.2757 8.50195 5.99956C8.50195 5.72342 8.72581 5.49956 9.00195 5.49956C9.27809 5.49956 9.50195 5.72342 9.50195 5.99956ZM4.00098 7.49899C4.27712 7.49899 4.50098 7.27514 4.50098 6.99899C4.50098 6.72285 4.27712 6.49899 4.00098 6.49899C3.72483 6.49899 3.50098 6.72285 3.50098 6.99899C3.50098 7.27514 3.72483 7.49899 4.00098 7.49899ZM6.50195 6.99899C6.50195 7.27514 6.2781 7.49899 6.00195 7.49899C5.72581 7.49899 5.50195 7.27514 5.50195 6.99899C5.50195 6.72285 5.72581 6.49899 6.00195 6.49899C6.2781 6.49899 6.50195 6.72285 6.50195 6.99899ZM8 7.49899C8.27614 7.49899 8.5 7.27514 8.5 6.99899C8.5 6.72285 8.27614 6.49899 8 6.49899C7.72386 6.49899 7.5 6.72285 7.5 6.99899C7.5 7.27514 7.72386 7.49899 8 7.49899ZM9.50195 8.00003C9.50195 8.27617 9.27809 8.50003 9.00195 8.50003C8.72581 8.50003 8.50195 8.27617 8.50195 8.00003C8.50195 7.72389 8.72581 7.50003 9.00195 7.50003C9.27809 7.50003 9.50195 7.72389 9.50195 8.00003ZM7.00098 8.50003C7.27712 8.50003 7.50098 8.27617 7.50098 8.00003C7.50098 7.72389 7.27712 7.50003 7.00098 7.50003C6.72483 7.50003 6.50098 7.72389 6.50098 8.00003C6.50098 8.27617 6.72483 8.50003 7.00098 8.50003ZM5.5 8.00003C5.5 8.27617 5.27614 8.50003 5 8.50003C4.72386 8.50003 4.5 8.27617 4.5 8.00003C4.5 7.72389 4.72386 7.50003 5 7.50003C5.27614 7.50003 5.5 7.72389 5.5 8.00003ZM3.00195 8.50003C3.2781 8.50003 3.50195 8.27617 3.50195 8.00003C3.50195 7.72389 3.2781 7.50003 3.00195 7.50003C2.72581 7.50003 2.50195 7.72389 2.50195 8.00003C2.50195 8.27617 2.72581 8.50003 3.00195 8.50003ZM4.50098 8.99947C4.50098 9.27561 4.27712 9.49947 4.00098 9.49947C3.72483 9.49947 3.50098 9.27561 3.50098 8.99947C3.50098 8.72332 3.72483 8.49947 4.00098 8.49947C4.27712 8.49947 4.50098 8.72332 4.50098 8.99947ZM6.00195 9.49947C6.2781 9.49947 6.50195 9.27561 6.50195 8.99947C6.50195 8.72332 6.2781 8.49947 6.00195 8.49947C5.72581 8.49947 5.50195 8.72332 5.50195 8.99947C5.50195 9.27561 5.72581 9.49947 6.00195 9.49947ZM8.5 8.99947C8.5 9.27561 8.27614 9.49947 8 9.49947C7.72386 9.49947 7.5 9.27561 7.5 8.99947C7.5 8.72332 7.72386 8.49947 8 8.49947C8.27614 8.49947 8.5 8.72332 8.5 8.99947ZM9.00195 10.4992C9.27809 10.4992 9.50195 10.2754 9.50195 9.99922C9.50195 9.72308 9.27809 9.49922 9.00195 9.49922C8.72581 9.49922 8.50195 9.72308 8.50195 9.99922C8.50195 10.2754 8.72581 10.4992 9.00195 10.4992ZM7.50098 9.99922C7.50098 10.2754 7.27712 10.4992 7.00098 10.4992C6.72483 10.4992 6.50098 10.2754 6.50098 9.99922C6.50098 9.72308 6.72483 9.49922 7.00098 9.49922C7.27712 9.49922 7.50098 9.72308 7.50098 9.99922ZM5 10.4992C5.27614 10.4992 5.5 10.2754 5.5 9.99922C5.5 9.72308 5.27614 9.49922 5 9.49922C4.72386 9.49922 4.5 9.72308 4.5 9.99922C4.5 10.2754 4.72386 10.4992 5 10.4992ZM3.50195 9.99922C3.50195 10.2754 3.2781 10.4992 3.00195 10.4992C2.72581 10.4992 2.50195 10.2754 2.50195 9.99922C2.50195 9.72308 2.72581 9.49922 3.00195 9.49922C3.2781 9.49922 3.50195 9.72308 3.50195 9.99922Z" fill="url(#paint0_linear_1368_17081)"/>
</g>
</g>
<defs>
<filter id="filter0_d_1368_17081" x="2.50195" y="5.49951" width="7" height="5.99951" filterUnits="userSpaceOnUse" color-interpolation-filters="sRGB">
<feFlood flood-opacity="0" result="BackgroundImageFix"/>
<feColorMatrix in="SourceAlpha" type="matrix" values="0 0 0 0 0 0 0 0 0 0 0 0 0 0 0 0 0 0 127 0" result="hardAlpha"/>
<feOffset dy="1"/>
<feColorMatrix type="matrix" values="0 0 0 0 0 0 0 0 0 0 0 0 0 0 0 0 0 0 0.06 0"/>
<feBlend mode="normal" in2="BackgroundImageFix" result="effect1_dropShadow_1368_17081"/>
<feBlend mode="normal" in="SourceGraphic" in2="effect1_dropShadow_1368_17081" result="shape"/>
</filter>
<linearGradient id="paint0_linear_1368_17081" x1="2.50195" y1="5.49951" x2="2.50195" y2="10.4992" gradientUnits="userSpaceOnUse">
<stop stop-color="white"/>
<stop offset="1" stop-color="#F0F0F0"/>
</linearGradient>
</defs>
</svg>
