
<svg width="24" height="24" viewBox="0 0 24 24" fill="none" xmlns="http://www.w3.org/2000/svg">
<g clip-path="url(#clip0_511_35)">
<mask id="mask0_511_35" style="mask-type:luminance" maskUnits="userSpaceOnUse" x="0" y="4" width="24" height="16">
<path d="M23 4H1C0.447715 4 0 4.44772 0 5V19C0 19.5523 0.447715 20 1 20H23C23.5523 20 24 19.5523 24 19V5C24 4.44772 23.5523 4 23 4Z" fill="white"/>
</mask>
<g mask="url(#mask0_511_35)">
<path fill-rule="evenodd" clip-rule="evenodd" d="M0 3H24V21H0V3Z" fill="white"/>
<path fill-rule="evenodd" clip-rule="evenodd" d="M0 3H7.99875V21H0V3Z" fill="#00267F"/>
<path fill-rule="evenodd" clip-rule="evenodd" d="M16.001 3H23.9997V21H16.001V3Z" fill="#F31830"/>
</g>
<g clip-path="url(#clip1_511_35)">
<path d="M16 4H0V20H24V4H16Z" fill="white"/>
<path d="M0 4H7.99983V20.0002H0V4Z" fill="#6DA544"/>
<path d="M16 4H23.9998V20.0002H16V4Z" fill="#D80027"/>
</g>
<g clip-path="url(#clip2_511_35)">
<path d="M0 4.01123H23.9532V20.0112H0V4.01123Z" fill="white"/>
<path d="M0 4.01123H23.9532V8.2779H0V4.01123ZM0 15.7446H23.9532V20.0112H0V15.7446Z" fill="#D03433"/>
<path d="M0 8.26855H23.9532V15.7539H0V8.26855Z" fill="#FBCA46"/>
<path d="M8.30371 11.478H9.3683V12.0114H8.30371V11.478V11.478Z" fill="white"/>
<path d="M7.66512 13.0777C7.66512 13.3977 7.9845 13.611 8.30387 13.611C8.62325 13.611 8.94263 13.3977 8.94263 13.0777L9.04909 11.4777H7.55866L7.66512 13.0777V13.0777ZM7.02637 11.4777C7.02637 11.1577 7.23928 10.9443 7.4522 10.9443H9.04909C9.36846 10.9443 9.58138 11.1577 9.58138 11.371V11.4777L9.47492 13.0777C9.36846 13.7177 8.94263 14.1443 8.30387 14.1443C7.66512 14.1443 7.23928 13.7177 7.13283 13.0777L7.02637 11.4777Z" fill="#A41517"/>
<path d="M7.23897 12.0114H9.36815V12.5447H8.83586L8.30356 13.6114L7.77127 12.5447H7.23897V12.0114V12.0114ZM5.64209 10.4114H6.70668V14.1447H5.64209V10.4114ZM9.90044 10.4114H10.965V14.1447H9.90044V10.4114ZM7.23897 9.87806C7.23897 9.55806 7.45189 9.34473 7.77127 9.34473H8.83586C9.15523 9.34473 9.36815 9.55806 9.36815 9.87806V10.0914C9.36815 10.3047 9.26169 10.4114 9.04877 10.4114H7.45189C7.34543 10.4114 7.23897 10.3047 7.23897 10.1981V9.87806V9.87806Z" fill="#A41517"/>
</g>
<g clip-path="url(#clip3_511_35)">
<path d="M0 4H24.0964V20H0V4Z" fill="white"/>
<path fill-rule="evenodd" clip-rule="evenodd" d="M3.67871 8.84668L5.90642 5.51848L6.49266 5.90774L4.26495 9.23594L3.67871 8.84668ZM4.5141 9.40138L6.74181 6.07318L7.32805 6.46244L5.10034 9.79064L4.5141 9.40138ZM5.3495 9.95608L7.5772 6.62787L8.16344 7.01714L5.93574 10.3453L5.3495 9.95608ZM15.9311 16.9823L18.1588 13.6541L18.7451 14.0433L16.5174 17.3715L15.9311 16.9823ZM16.7665 17.537L18.9942 14.2088L19.5805 14.598L17.3528 17.9262L16.7665 17.537ZM20.4159 15.1527L18.1882 18.4809L17.6019 18.0917L19.8296 14.7635L20.4159 15.1527Z" fill="black"/>
<path fill-rule="evenodd" clip-rule="evenodd" d="M19.4033 17.2352L16.6187 15.3862L16.9443 14.8997L19.729 16.7486L19.4033 17.2352Z" fill="white"/>
<path d="M15.3889 14.2183C16.6192 12.3802 16.1205 9.89668 14.275 8.67128C12.4295 7.44587 9.93607 7.94257 8.70574 9.78068C7.47541 11.6188 7.9741 14.1023 9.8196 15.3277C11.6651 16.5531 14.1585 16.0564 15.3889 14.2183Z" fill="#CA163A"/>
<path d="M8.70574 9.78068C8.09089 10.6993 8.34039 11.9418 9.26267 12.5542C10.1849 13.1666 11.4325 12.9181 12.0473 11.9995C12.6622 11.0809 13.9097 10.8324 14.8319 11.4448C15.7542 12.0572 16.0037 13.2997 15.3889 14.2183C14.1592 16.0554 11.6641 16.5525 9.8196 15.3277C7.97505 14.1029 7.47604 11.6179 8.70574 9.78068V9.78068Z" fill="#0E4896"/>
<path fill-rule="evenodd" clip-rule="evenodd" d="M18.1881 5.51807L20.4159 8.84628L19.8296 9.23554L17.6019 5.90733L18.1881 5.51807ZM17.3527 6.07278L19.5805 9.40097L18.9942 9.79024L16.7665 6.46205L17.3527 6.07278ZM16.5173 6.62748L18.7451 9.95567L18.1588 10.3449L15.9311 7.01674L16.5173 6.62748ZM5.93569 13.6537L8.1634 16.9819L7.57716 17.3711L5.34945 14.0429L5.93569 13.6537ZM5.10029 14.2084L7.328 17.5366L6.74176 17.9258L4.51405 14.5977L5.10029 14.2084ZM4.26495 14.7631L6.49266 18.0913L5.90642 18.4806L3.67871 15.1523L4.26495 14.7631Z" fill="black"/>
<path d="M5.50488 16.3441L6.34028 15.7894L5.50488 16.3441ZM16.7815 8.8564L17.7573 8.20851L16.7815 8.8564ZM18.5927 7.65381L19.4281 7.09912Z" fill="black"/>
<path fill-rule="evenodd" clip-rule="evenodd" d="M19.5907 7.34205L18.7553 7.89674L18.4296 7.41016L19.265 6.85547L19.5907 7.34205ZM17.9199 8.45144L16.9441 9.09933L16.6184 8.61275L17.5942 7.96486L17.9199 8.45144ZM6.50287 16.0324L5.66747 16.587L5.3418 16.1005L6.17719 15.5458L6.50287 16.0324Z" fill="white"/>
</g>
<g clip-path="url(#clip4_511_35)">
<path d="M0 4H24.7273V20.0002H0V4Z" fill="white"/>
<path d="M12.3634 16.4995C14.924 16.4995 16.9998 14.4848 16.9998 11.9995C16.9998 9.51423 14.924 7.49951 12.3634 7.49951C9.80282 7.49951 7.72705 9.51423 7.72705 11.9995C7.72705 14.4848 9.80282 16.4995 12.3634 16.4995Z" fill="#D80027"/>
</g>
</g>
<defs>
<clipPath id="clip0_511_35">
<rect width="24" height="24" fill="white"/>
</clipPath>
<clipPath id="clip1_511_35">
<rect y="4" width="24" height="16" rx="1" fill="white"/>
</clipPath>
<clipPath id="clip2_511_35">
<rect y="4" width="24" height="16" rx="1" fill="white"/>
</clipPath>
<clipPath id="clip3_511_35">
<rect y="4" width="24.0964" height="16" rx="1" fill="white"/>
</clipPath>
<clipPath id="clip4_511_35">
<rect width="24.7273" height="16" fill="white" transform="translate(0 4)"/>
</clipPath>
</defs>
</svg>
