
<svg width="24" height="24" viewBox="0 0 24 24" fill="none" xmlns="http://www.w3.org/2000/svg">
<g clip-path="url(#clip0_579_497)">
<g clip-path="url(#clip1_579_497)">
<path d="M0 4H24V19.9997H0V4Z" fill="#D80027"/>
<path d="M9.21756 4V19.9997H0V4H9.21756Z" fill="#6DA544"/>
<path d="M9.21778 15C10.8746 15 12.2178 13.6569 12.2178 12C12.2178 10.3431 10.8746 9 9.21778 9C7.56092 9 6.21777 10.3431 6.21777 12C6.21777 13.6569 7.56092 15 9.21778 15Z" fill="#FFDA44"/>
<path d="M7.52979 10.5V12.375C7.52979 13.307 8.28532 14.0626 9.21729 14.0626C10.1493 14.0626 10.9048 13.307 10.9048 12.375V10.5H7.52979Z" fill="#D80027"/>
<path d="M9.21729 12.9375C8.90711 12.9375 8.65479 12.6852 8.65479 12.375V11.625H9.77983V12.375C9.77979 12.6851 9.52741 12.9375 9.21729 12.9375Z" fill="white"/>
</g>
</g>
<defs>
<clipPath id="clip0_579_497">
<rect width="24" height="24" fill="white"/>
</clipPath>
<clipPath id="clip1_579_497">
<rect y="4" width="24" height="16" rx="1" fill="white"/>
</clipPath>
</defs>
</svg>
