
<svg width="25" height="24" viewBox="0 0 25 24" fill="none" xmlns="http://www.w3.org/2000/svg">
<g clip-path="url(#clip0_1_206)">
<path d="M23.7485 19.8621H0.576196C0.347681 19.8621 0.162384 19.6768 0.162384 19.4483V4.55175C0.162384 4.32324 0.347681 4.13794 0.576196 4.13794H23.7486C23.9771 4.13794 24.1624 4.32324 24.1624 4.55175V19.4483C24.1623 19.6768 23.977 19.8621 23.7485 19.8621Z" fill="#FF4B55"/>
<path d="M12.3554 7.31108L13.462 10.6294L16.9599 10.6565C17.1555 10.658 17.2366 10.9076 17.0792 11.0238L14.2654 13.1017L15.3205 16.4367C15.3795 16.6232 15.1672 16.7775 15.008 16.6637L12.1623 14.6297L9.31653 16.6637C9.15743 16.7774 8.94509 16.6232 9.00406 16.4367L10.0592 13.1017L7.24531 11.0238C7.08795 10.9076 7.16909 10.658 7.36466 10.6565L10.8625 10.6294L11.9692 7.31108C12.0311 7.12555 12.2935 7.12555 12.3554 7.31108Z" fill="#FFE15A"/>
</g>
<defs>
<clipPath id="clip0_1_206">
<rect width="24" height="24" fill="white" transform="translate(0.162109)"/>
</clipPath>
</defs>
</svg>
